<?xml version="1.0" encoding="UTF-8" standalone="no"?>
<svg
   xmlns:dc="http://purl.org/dc/elements/1.1/"
   xmlns:cc="http://creativecommons.org/ns#"
   xmlns:rdf="http://www.w3.org/1999/02/22-rdf-syntax-ns#"
   xmlns:svg="http://www.w3.org/2000/svg"
   xmlns="http://www.w3.org/2000/svg"
   xmlns:sodipodi="http://sodipodi.sourceforge.net/DTD/sodipodi-0.dtd"
   xmlns:inkscape="http://www.inkscape.org/namespaces/inkscape"
   width="210mm"
   height="297mm"
   viewBox="0 0 210 297"
   version="1.1"
   id="svg8"
   inkscape:version="1.0.1 (3bc2e813f5, 2020-09-07)"
   sodipodi:docname="castellers.svg">
  <defs
     id="defs2">
    <inkscape:path-effect
       effect="powerclip"
       id="path-effect951"
       is_visible="true"
       lpeversion="1"
       inverse="true"
       flatten="false"
       hide_clip="false"
       message="La regla d'emplenat parell-senar al diàleg &lt;b&gt;emplenat i traç&lt;/b&gt; si el resultat després de convertir el clip en camí no està allisat." />
  </defs>
  <sodipodi:namedview
     id="base"
     pagecolor="#ffffff"
     bordercolor="#666666"
     borderopacity="1.0"
     inkscape:pageopacity="0.0"
     inkscape:pageshadow="2"
     inkscape:zoom="0.7"
     inkscape:cx="277.94502"
     inkscape:cy="519.82245"
     inkscape:document-units="mm"
     inkscape:current-layer="layer2"
     inkscape:document-rotation="0"
     showgrid="false"
     inkscape:window-width="1920"
     inkscape:window-height="1017"
     inkscape:window-x="-8"
     inkscape:window-y="-8"
     inkscape:window-maximized="1"
     inkscape:snap-bbox="false" />
  <metadata
     id="metadata5">
    <rdf:RDF>
      <cc:Work
         rdf:about="">
        <dc:format>image/svg+xml</dc:format>
        <dc:type
           rdf:resource="http://purl.org/dc/dcmitype/StillImage" />
        <dc:title />
      </cc:Work>
    </rdf:RDF>
  </metadata>
  <g
     inkscape:groupmode="layer"
     id="layer2"
     inkscape:label="Capa 2">
    <path
       id="path848"
       clip-path="none"
       style="fill:#000000;stroke:#000000;stroke-width:0;stroke-linecap:butt;stroke-linejoin:miter;stroke-miterlimit:4;stroke-dasharray:none;stroke-opacity:1"
       d="M 403.33594 29.357422 C 402.64195 29.310811 402.60101 30.581001 403.04297 32.238281 C 403.54803 34.132323 402.7904 33.248242 400.51758 34.005859 C 398.24472 34.763473 400.76982 34.764653 401.90625 36.027344 C 403.04268 37.290035 400.89551 36.783798 399.63281 36.53125 C 398.37015 36.278702 395.97234 36.531845 392.31055 36.279297 C 388.64875 36.02676 392.0566 38.679688 394.20312 38.679688 C 396.34967 38.679688 394.83514 39.562016 394.33008 40.193359 C 393.82502 40.824695 392.56163 40.446781 389.15234 41.078125 C 385.7431 41.709472 389.15234 45.244141 389.15234 45.244141 C 389.15234 45.244141 389.28016 46.254585 387.63867 46.380859 C 385.99719 46.50713 385.871 46.886231 388.01758 47.517578 C 390.16412 48.148922 386.37607 48.527741 385.49219 50.042969 C 384.60831 51.558189 385.11234 51.810547 386.375 51.810547 C 387.6377 51.810547 385.36511 54.336045 384.98633 57.240234 C 384.60751 60.144423 385.11242 57.366699 386.75391 57.998047 C 388.39539 58.62939 385.61771 59.134675 385.36523 61.28125 C 385.11265 63.427825 385.74342 63.680668 385.61719 64.943359 C 385.49091 66.20605 386.37605 66.583686 388.01758 65.447266 C 389.65906 64.310841 388.5222 66.711235 388.64844 67.847656 C 388.77471 68.984077 388.52177 69.741898 389.6582 71.130859 C 390.79463 72.519817 389.91137 71.129295 391.93164 70.119141 C 393.95195 69.10899 390.48452 72.380589 389.6582 76.181641 C 389.6582 76.181641 390.41612 77.821671 393.32031 78.074219 C 396.2245 78.326755 393.4465 78.327935 392.94141 80.095703 C 392.43635 81.863468 393.69827 81.231148 394.96094 81.357422 C 396.22364 81.483688 395.34091 82.621007 394.45703 84.767578 C 393.57315 86.914153 395.33975 85.777443 397.48633 86.15625 C 399.63295 86.535057 397.61314 86.661236 397.23438 88.302734 C 396.85555 89.944232 397.74001 91.207044 399.50781 93.732422 C 401.27557 96.257804 406.8301 92.469139 409.35547 91.458984 C 411.88095 90.44883 411.12461 94.489266 412.13477 95.751953 C 413.14488 97.014644 409.60781 99.792412 408.59766 102.57031 C 407.58743 105.34823 408.34647 108.12618 408.85156 110.14648 C 409.35662 112.16679 403.79998 124.03732 403.29492 127.32031 C 402.78983 130.60331 406.07278 136.15861 405.82031 140.19922 C 405.56776 144.23983 403.29475 148.5338 402.53711 150.80664 C 401.7795 153.07948 393.19414 164.4418 391.17383 165.95703 C 389.15352 167.47226 372.73766 163.17943 370.46484 162.42188 C 368.19199 161.66426 361.8785 159.13927 357.83789 158.88672 C 353.79728 158.63418 348.241 159.39298 343.69531 160.9082 C 339.14963 162.42343 340.66562 162.42273 339.15039 165.45312 C 337.63516 168.48358 337.88769 169.49416 336.625 174.54492 C 335.36231 179.59568 338.39259 178.83692 340.91797 180.09961 C 343.44335 181.3623 343.69591 179.09003 343.44336 177.32227 C 343.19082 175.5545 342.43288 175.0496 344.45312 173.0293 C 346.47343 171.009 347.98907 173.28125 351.01953 173.28125 C 354.04999 173.28125 358.59591 173.53496 361.87891 172.77734 C 365.1619 172.01973 369.70824 177.57442 371.72852 178.33203 C 373.74882 179.08965 389.15293 183.38379 396.47656 184.64648 C 403.80015 185.90918 406.83125 181.11093 408.85156 179.5957 C 410.87187 178.08048 413.39764 179.09024 412.89258 180.60547 C 412.38748 182.1207 412.13382 183.88829 413.39648 184.89844 C 414.65911 185.90859 415.16386 188.68693 414.40625 191.46484 C 413.64864 194.24276 410.87109 195 410.87109 195 C 407.84063 195.75761 407.84122 199.04123 405.56836 204.84961 C 403.29554 210.65798 405.06211 209.39434 406.07227 211.16211 C 407.08242 212.92988 406.8306 212.17286 406.57812 213.43555 C 406.32564 214.69824 405.31641 216.9711 405.31641 218.48633 C 405.31641 220.00155 402.03339 228.33421 400.26562 236.66797 C 398.49792 245.00173 394.4556 273.53888 394.20312 277.83203 C 393.95064 282.12518 395.97128 284.39767 398.24414 286.41797 C 400.51696 288.43828 396.98201 288.94318 395.4668 290.71094 C 393.95155 292.47871 376.0209 303.08633 373.74805 304.60156 C 371.47523 306.11679 358.09042 320.25956 355.3125 322.02734 C 352.53458 323.7951 350.51406 327.83421 349.50391 331.11719 C 348.49376 334.4002 355.56583 345.25958 358.34375 347.02734 C 361.12167 348.7951 363.14258 352.58457 363.14258 354.85742 C 363.14258 357.13024 368.95039 362.43185 370.9707 363.18945 C 372.99101 363.94706 376.52638 369.5033 380.31445 372.28125 C 384.10252 375.0592 386.12167 374.80744 388.39453 375.3125 C 390.66739 375.8176 389.40643 378.34297 387.63867 380.36328 C 385.87091 382.38359 383.09198 383.6455 381.32422 384.9082 C 379.55646 386.17087 382.33475 402.0807 382.83984 404.35352 C 383.3449 406.62637 384.60722 415.21368 383.84961 418.24414 C 383.09193 421.2746 382.58737 429.86037 382.83984 433.64844 C 383.09243 437.43651 383.34375 441.47762 383.34375 445.26562 C 383.34375 449.05369 386.62695 457.13477 386.62695 457.13477 C 386.62695 457.13477 386.8801 463.1955 386.375 466.47852 C 385.86994 469.76149 392.18359 476.07422 392.18359 476.07422 C 392.18359 476.07422 391.67892 479.35724 391.17383 481.125 C 390.66877 482.89276 389.78487 483.2719 388.64844 484.78711 C 387.51208 486.30232 387.5112 486.68134 387.76367 488.07031 C 388.01622 489.45925 384.35574 492.74248 382.9668 493.87891 C 381.57782 495.0153 382.96562 497.66672 380.94531 500.31836 C 378.925 502.97 379.30384 502.46534 378.41992 504.35938 C 377.53604 506.25335 377.28303 510.42021 376.52539 511.55664 C 375.76778 512.69307 375.26418 514.7133 374.63281 516.22852 C 374.00148 517.74377 373.11708 519.89094 370.21289 523.55273 C 367.30869 527.21453 368.06533 525.82484 366.42383 528.09766 C 364.78233 530.37051 364.02568 529.8659 362.63672 532.51758 C 361.24776 535.16922 360.86836 536.17802 360.36328 537.31445 C 359.8582 538.45084 358.34306 539.46092 355.69141 541.98633 C 353.03976 544.5117 350.6414 545.90208 348.62109 547.29102 C 346.60079 548.67999 346.60097 547.54315 344.32812 545.77539 C 342.05534 544.00763 342.433 546.28068 340.16016 549.05859 C 337.88731 551.83655 337.3829 549.05847 335.23633 548.67969 C 333.08975 548.30087 333.09052 549.18397 330.69141 550.69922 C 328.29229 552.21443 327.15575 554.48878 325.26172 556.38281 C 323.36768 558.27685 324.12455 559.16057 322.60938 560.67578 C 321.09415 562.19122 320.41016 562.26758 320.41016 562.26758 C 319.24944 563.24973 319.15988 564.41096 318.17773 565.48242 C 317.19559 566.55384 314.786 568.60659 312.10742 569.41016 C 309.42885 570.21372 308.17802 571.82201 306.03516 572.71484 C 303.8923 573.60772 300.32087 576.19616 298.53516 577.26758 C 296.74944 578.339 287.10742 584.67801 285.23242 585.66016 C 283.35742 586.6423 280.58845 588.96512 279.42773 589.94727 C 278.26702 590.92949 277.90988 591.10677 276.92773 591.01758 C 275.94559 590.92831 274.96401 589.49945 273.89258 587.53516 C 272.82115 585.5709 272.37528 585.39343 270.85742 583.96484 C 269.33956 582.5363 268.98187 582.17914 267.64258 581.46484 C 266.30329 580.75059 264.24972 580.12528 261.39258 578.60742 C 258.53544 577.08956 257.91099 577.08902 255.23242 576.64258 C 252.55385 576.19606 250.85631 576.10742 250.05273 576.10742 C 249.24917 576.10742 247.82227 576.375 247.82227 576.375 C 247.46513 576.375 244.51814 577.17882 242.73242 577.98242 C 240.9467 578.78599 240.6794 580.39342 239.07227 581.46484 C 237.46513 582.53626 235.58873 583.87446 234.16016 585.03516 C 232.73159 586.19589 232.7327 587.00027 231.83984 587.98242 C 230.94698 588.96457 230.1437 592.53657 229.69727 594.94727 C 229.25084 597.358 230.14368 596.91044 230.32227 599.76758 C 230.50083 602.6249 230.7687 601.9099 229.69727 602.80273 C 228.62584 603.69561 227.46401 603.87555 225.76758 604.58984 C 224.07115 605.30414 223.71456 606.10797 222.73242 606.82227 C 221.75027 607.53656 219.33984 609.05275 217.46484 609.67773 C 215.58984 610.30287 214.33901 610.66156 212.64258 609.94727 C 210.94615 609.23297 211.30357 609.94671 209.875 610.48242 C 208.44643 611.01832 206.21401 611.28646 205.14258 611.19727 C 204.07115 611.10799 205.2327 611.37473 201.21484 610.39258 C 197.19698 609.41039 199.96345 610.3926 196.92773 609.76758 C 193.89202 609.1426 196.21401 608.16154 195.76758 606.82227 C 195.32113 605.48299 195.67857 605.57058 196.125 603.42773 C 196.57143 601.28486 196.48298 601.55414 195.32227 599.58984 C 194.16156 597.62559 192.28572 596.46428 191.125 595.125 C 189.96429 593.78572 189.16072 592.44642 188.625 591.375 C 188.08929 590.30358 188.26841 589.05272 186.83984 587.17773 C 185.41128 585.30271 183.44559 583.34014 180.67773 581.19727 C 177.90988 579.05442 177.19559 578.69614 175.67773 577.89258 C 174.15988 577.08901 172.73131 576.73151 170.67773 576.55273 C 168.62417 576.37415 165.58985 576.99917 163.08984 577.80273 C 160.58985 578.6063 158.08984 580.83844 156.21484 581.55273 C 154.33984 582.26699 153.44586 584.14202 152.28516 585.92773 C 151.12444 587.71345 150.58984 587.08842 149.33984 588.42773 C 148.08983 589.76701 148.35742 590.74946 147.73242 591.91016 C 147.10742 593.07089 146.21484 594.40986 144.96484 595.30273 C 143.71486 596.19557 143.625 597.26758 143.625 597.26758 C 142.91071 598.69616 143.714 601.10801 143.89258 603.07227 C 144.07116 605.03656 144.51758 604.67804 145.14258 608.16016 C 145.76758 611.64231 144.42802 609.76757 143.53516 611.01758 C 142.6423 612.26758 143.71485 612.35799 144.33984 614.94727 C 144.96485 617.53654 143.71456 615.75039 142.10742 615.48242 C 140.50028 615.21457 136.92773 615.83945 135.67773 616.10742 C 134.42774 616.37528 134.07226 617.35687 132.19727 617.89258 C 130.32226 618.42833 131.03515 618.78541 129.16016 619.14258 C 127.28516 619.49974 125.49917 621.46376 124.42773 621.91016 C 123.35631 622.35659 121.66016 623.25 121.66016 623.25 L 117.91016 624.41016 L 117.82227 624.41016 C 117.82227 624.41016 117.82116 623.42888 117.64258 621.10742 C 117.464 618.786 117.64286 619.05327 117.375 617.89258 C 117.10714 616.73185 116.12528 616.4654 115.23242 615.92969 C 114.33957 615.39398 113.53655 614.32201 112.82227 612.71484 C 112.10798 611.10771 110.05413 610.57227 108.71484 609.32227 C 107.37556 608.07226 106.92857 608.4286 103.625 607.625 C 100.32143 606.82132 100.67941 607.71484 98.447266 607.71484 C 96.215122 607.71484 97.0173 607.80338 94.785156 607.89258 C 92.553013 607.98189 92.73214 608.87498 91.75 609.5 C 90.767856 610.12498 89.874706 610.75002 89.517578 611.375 C 89.160435 612.00002 86.571428 612.26719 85.5 612.53516 C 84.428572 612.80301 82.107422 615.39258 82.107422 615.39258 C 82.107422 615.39258 79.160714 617.9824 78.625 618.60742 C 78.089286 619.2324 76.035158 621.82197 75.410156 622.71484 C 74.785155 623.60768 73.89202 624.40986 73.177734 625.30273 C 72.463449 626.19557 71.30329 627.08958 70.142578 627.98242 C 68.981863 628.8753 68.445591 630.12529 67.552734 631.73242 C 66.659878 633.33959 64.16127 638.16014 63.714844 638.78516 C 63.268414 639.41014 62.82143 641.28488 62.375 642.80273 C 61.928574 644.32059 60.677732 645.5709 60.052734 646.28516 C 59.427733 646.99945 58.624165 649.05411 58.177734 650.21484 C 57.731308 651.37546 57.642857 651.55338 56.75 651.64258 C 55.857143 651.73185 54.607422 652.98242 54.607422 652.98242 C 54.339563 653.6074 53.179406 655.21429 52.197266 655.75 C 51.215121 656.28571 50.857128 657.62417 50.5 658.42773 C 50.142857 659.2313 49.250839 661.19726 48.447266 662.44727 C 47.643708 663.69727 47.821694 665.03488 47.732422 666.55273 C 47.643149 668.07059 47.821971 669.14283 47.464844 670.75 C 47.107701 672.35713 47.999429 676.10686 47.910156 677.89258 C 47.820872 679.67829 48.178839 679.94559 48.357422 680.92773 C 48.535993 681.90988 47.285156 682.89258 47.285156 682.89258 C 47.285156 682.89258 46.572267 685.3934 45.947266 687.08984 C 45.322283 688.78628 45.945589 689.14315 45.677734 690.48242 C 45.409879 691.82174 44.964562 693.2497 43.982422 694.14258 C 43.000293 695.03542 43.803306 695.83982 43.892578 697.71484 C 43.981881 699.58983 44.07087 699.85714 43.535156 701.375 C 42.999442 702.89286 42.999161 702.62501 42.552734 704.5 C 42.106289 706.37502 42.910156 706.10631 42.910156 707.17773 C 42.910156 708.24915 42.732422 709.32227 42.732422 709.32227 C 42.464548 709.85798 42.286005 711.37472 42.107422 712.89258 C 41.928851 714.41044 42.909878 715.21515 43.802734 717.44727 C 44.69558 719.67942 44.607145 719.49917 44.875 721.55273 C 45.142855 723.60634 44.874429 723.07197 44.785156 725.21484 C 44.695872 727.35768 44.874999 727.17887 43.625 728.60742 C 42.375001 730.03601 43.446971 731.37527 43.089844 732.35742 C 42.732701 733.33957 42.910716 734.49913 41.75 735.30273 C 40.589284 736.1063 41.392284 736.19615 41.035156 738.51758 C 40.678029 740.839 41.036538 739.67941 40.947266 741.19727 C 40.857982 742.71512 40.052734 743.16016 40.052734 743.16016 C 40.052734 743.16016 39.070589 745.3033 38.802734 746.64258 C 38.534875 747.98185 39.071431 748.16153 39.875 750.57227 C 40.678573 752.98296 40.232128 752.80326 39.875 754.14258 C 39.517857 755.48185 38.714289 755.6613 38 757.08984 C 37.285703 758.51843 37.732699 759.49917 37.464844 761.55273 C 37.196989 763.6063 37.374443 763.33958 36.035156 765.48242 C 34.695884 767.6253 35.677734 766.0184 35.677734 768.96484 C 35.677734 771.91129 36.303583 770.3937 36.125 771.19727 C 35.946429 772.00083 35.410158 772.3574 34.785156 772.98242 C 34.160155 773.6074 33.445591 774.7673 32.552734 776.28516 C 31.659893 777.80301 32.017855 777.80442 31.75 779.94727 C 31.482152 782.09014 31.927736 783.4283 31.302734 784.76758 C 30.677733 786.10685 29.786538 786.73269 29.697266 788.96484 C 29.607978 791.19696 29.429129 793.33958 28.714844 795.48242 C 28.000558 797.6253 28.803029 797.8044 29.160156 800.57227 C 29.517288 803.34013 29.339549 802.00027 28.982422 805.48242 C 28.625279 808.96454 29.874152 805.65987 30.052734 808.42773 C 30.231306 811.1956 31.839005 811.37527 32.642578 812.35742 C 33.446136 813.33957 33.625277 814.05439 33.357422 816.19727 C 33.089563 818.34011 33.981583 817.71374 34.785156 818.78516 C 35.588741 819.85658 35.499152 821.553 35.677734 825.03516 C 35.856306 828.51731 36.124442 826.99943 36.660156 828.16016 C 37.19587 829.32085 36.750279 830.21484 35.857422 832.71484 C 34.964565 835.21485 36.036271 834.3206 36.839844 835.92773 C 37.643402 837.53479 37.731307 836.46342 36.927734 837.80273 C 36.124165 839.14201 36.125558 838.69584 35.589844 840.03516 C 35.05413 841.37443 35.857145 839.67801 36.125 841.91016 C 36.392855 844.14231 37.018417 843.24972 37.464844 844.76758 C 37.911263 846.28544 38.000571 847.00054 38.089844 850.21484 C 38.179128 853.42911 38.535713 851.10632 36.75 856.55273 C 34.964287 861.99918 36.304393 859.6794 35.947266 862.44727 C 35.590123 865.21513 36.213995 865.74945 36.392578 866.28516 C 36.571165 866.82087 36.57087 869.58931 36.035156 870.75 C 35.499442 871.91073 35.678571 873.33987 34.25 877.08984 C 32.821429 880.83985 32.642857 879.58844 31.75 881.55273 C 30.857128 883.51703 31.929116 884.59011 31.839844 886.82227 C 31.75056 889.05438 31.036272 890.39287 29.964844 893.25 C 28.893404 896.10713 29.606304 898.25031 28.802734 901.73242 C 27.999161 905.21458 27.463447 906.91045 27.552734 908.51758 C 27.64202 910.12471 26.124163 915.66126 25.677734 917.08984 C 25.231306 918.51839 25.322266 921.19587 24.697266 925.03516 C 24.072266 928.87444 23.713728 931.01729 22.910156 933.78516 C 22.106585 936.55302 22.732703 937.98132 22.464844 942.17773 C 22.196987 946.37418 22.731306 945.03517 23.177734 948.16016 C 23.624163 951.28515 23.714844 953.96484 23.714844 953.96484 C 23.714844 953.96484 24.160993 957.26897 23.357422 961.55469 C 22.553849 965.84037 22.82115 965.39289 23.267578 967.625 C 23.714007 969.85715 23.804411 968.07255 24.072266 970.92969 C 24.340123 973.78686 21.750279 975.21428 20.857422 978.25 C 19.964565 981.28572 19.428292 981.73327 18.267578 987.17969 C 17.106864 992.62614 17.73298 989.41127 18.447266 993.96484 C 19.161551 998.51842 19.160714 995.48242 21.125 995.48242 C 23.089285 995.48242 25.232699 996.10795 31.214844 997.44727 C 37.196985 998.78635 33.982698 997.17838 38.714844 997.26758 C 43.446986 997.35685 39.696148 997.98131 44.517578 999.05273 C 49.339004 1000.124 49.070872 999.85807 52.285156 999.94727 C 55.499444 1000.0365 57.195867 1000.8388 61.035156 1001.0176 C 64.874442 1001.1961 68.051572 1000.8481 71.082031 1000.2168 C 74.11249 999.58543 70.702728 1003.8799 69.1875 1010.1934 C 67.672269 1016.5068 70.828237 1014.2335 73.732422 1015.875 C 76.636611 1017.5165 81.813593 1018.0208 85.980469 1017.8945 C 90.147349 1017.7683 93.305581 1018.4007 96.714844 1019.5371 C 100.12411 1020.6735 117.6754 1024.2095 121.21094 1023.957 C 124.74647 1023.7045 131.69142 1022.1878 134.2168 1020.7988 C 136.74218 1019.4099 146.96895 1011.9615 147.72656 1009.1836 C 148.48418 1006.4057 147.09579 1006.1522 142.42383 1003.248 C 137.75187 1000.3439 137.11922 1000.0923 132.44727 996.93555 C 127.77531 993.77881 125.8829 992.13631 123.73633 990.62109 C 121.58975 989.10584 123.10381 987.84298 121.71484 982.28711 C 120.32588 976.73128 123.10374 979.50956 128.91211 978.75195 C 134.72049 977.99438 134.21574 978.49988 140.15039 978.12109 C 146.08504 977.74227 145.70675 977.36287 149.62109 975.84766 C 153.53543 974.33244 150.63164 972.94372 151.13672 969.4082 C 151.6418 965.87264 150.8832 965.99948 149.87305 966.25195 C 148.8629 966.5045 148.60984 966.88281 142.92773 966.88281 C 137.24563 966.88281 140.40272 966.25117 136.86719 963.2207 C 133.33165 960.19024 134.3417 959.81153 133.96289 958.54883 C 133.58408 957.28613 132.70009 956.52833 131.05859 955.26562 C 129.4171 954.00302 131.05927 952.99288 131.18555 950.59375 C 131.31182 948.19466 132.19463 945.03904 132.06836 942.51367 C 131.94209 939.98827 132.69981 934.68488 132.44727 932.0332 C 132.19472 929.38156 132.95361 927.23474 132.32227 923.69922 C 131.69092 920.1637 133.33282 921.17345 133.83789 919.6582 C 134.34297 918.14299 135.9837 916.2493 135.85742 913.59766 C 135.73116 910.94598 137.24609 904.12695 137.24609 904.12695 C 137.6249 900.59143 138.13095 901.09578 138.50977 896.42383 C 138.88856 891.75188 139.51847 890.86848 140.40234 888.2168 C 141.28622 885.56516 141.53857 886.82814 142.16992 884.30273 C 142.80126 881.77737 144.06465 878.24267 144.82227 875.08594 C 145.57988 871.9292 147.85235 859.55378 148.35742 856.14453 C 148.8625 852.73525 150.00045 852.10419 151.51562 847.17969 C 153.03085 842.25519 152.77666 845.79083 152.65039 847.55859 C 152.52412 849.32635 151.64122 862.45841 151.38867 865.23633 C 151.13613 868.01424 152.65157 874.0755 152.14648 879 C 151.64142 883.9245 152.27148 883.29291 152.27148 885.43945 C 152.27148 887.58604 153.53487 888.09102 154.92383 890.11133 C 156.31279 892.13164 158.96554 892.13234 161.61719 892.76367 C 164.26885 893.395 165.5297 893.01527 169.57031 894.02539 C 173.61094 895.03554 169.82422 895.16121 169.82422 896.80273 C 169.82422 898.44422 169.19336 903.875 169.19336 903.875 C 169.0671 905.13766 168.81445 906.65228 168.81445 908.79883 C 168.81445 910.94541 169.44531 911.57611 169.44531 913.72266 C 169.44531 915.86924 169.06641 917.38565 169.06641 918.26953 C 169.06641 919.15341 168.81367 924.58185 168.30859 926.34961 C 167.80352 928.11737 167.29804 931.275 166.79297 932.28516 C 166.28789 933.29531 164.52119 939.60804 163.38477 941.88086 C 162.24834 944.15372 160.98408 947.81604 159.84766 951.35156 C 158.71123 954.88712 158.83818 955.26629 157.44922 957.91797 C 156.06026 960.56961 156.81836 962.8418 156.81836 962.8418 C 155.0506 965.87226 155.30264 967.13496 154.92383 970.41797 C 154.54501 973.70094 155.30189 978.37303 154.79688 980.89844 C 154.29179 983.4238 154.41797 990.11612 154.41797 991 C 154.41797 991.88388 154.41904 997.06181 153.53516 999.46094 C 152.65127 1001.86 152.01943 1009.6877 151.64062 1012.9707 C 151.26189 1016.2537 151.51503 1017.1378 151.76758 1023.8301 C 152.02012 1030.5223 150.8832 1033.1732 149.87305 1038.0977 C 148.8629 1043.0222 148.73623 1045.169 148.35742 1049.3359 C 147.97861 1053.5028 148.23135 1052.746 149.11523 1057.418 C 149.99912 1062.09 151.26163 1061.2066 153.4082 1062.2168 C 155.55478 1063.227 156.69083 1063.3531 159.46875 1064.3633 C 162.24667 1065.3734 162.75362 1064.9941 164.14258 1064.6152 C 165.53154 1064.2364 168.56046 1059.0597 170.70703 1055.6504 C 172.85361 1052.2411 172.47628 1046.6839 173.86523 1040.2441 C 175.25418 1033.8044 175.37959 1032.417 175.50586 1028.6289 C 175.63213 1024.8408 177.27344 1018.5273 177.27344 1018.5273 C 177.27344 1018.5273 177.77959 1012.4649 178.91602 1007.793 C 180.05244 1003.121 180.43106 1003.3743 183.20898 998.19727 C 185.98691 993.02022 183.58721 1003.6264 183.46094 1006.4043 C 183.33467 1009.1822 184.59658 1009.687 185.48047 1020.041 C 186.36435 1030.3951 187.12306 1024.083 192.17383 1030.3965 C 197.22459 1036.71 193.1839 1031.2803 196.8457 1032.543 C 200.50751 1033.8056 204.29464 1034.0585 208.20898 1033.6797 C 212.12333 1033.3009 218.05929 1033.6796 220.71094 1033.3008 C 223.36259 1032.922 222.35166 1032.2895 222.73047 1029.1328 C 223.10928 1025.9761 225.25606 1022.5672 226.01367 1020.5469 C 226.77129 1018.5266 228.66573 1013.8552 230.05469 1010.1934 C 231.44365 1006.5316 231.06445 1001.4796 231.06445 998.07031 C 231.06445 994.66103 234.09541 988.47421 235.48438 984.43359 C 236.87327 980.39298 237.37774 979.13147 237.88281 976.35352 C 238.38789 973.5756 239.14463 970.16492 239.52344 968.52344 C 239.90226 966.88191 239.5248 959.93857 239.77734 959.05469 C 240.02988 958.17081 242.80664 956.15034 242.80664 951.09961 C 242.80664 946.04884 242.9334 947.94177 242.17578 944.40625 C 241.41817 940.87069 243.18702 940.24013 243.81836 937.33594 C 244.44971 934.43175 244.0708 931.90606 243.43945 928.62305 C 242.80811 925.34004 244.44862 925.46728 244.70117 922.31055 C 244.95371 919.15385 246.84864 920.03602 248.11133 918.39453 C 249.37402 916.75301 250.25791 914.48018 250.63672 913.34375 C 251.01553 912.20732 254.5504 908.7988 255.56055 906.27344 C 256.5707 903.74807 257.45352 901.85403 258.96875 901.22266 C 260.48397 900.59132 259.34883 905.51514 258.84375 908.67188 C 258.33868 911.82851 258.46533 911.83019 257.83398 914.73438 C 257.20264 917.6385 258.21289 919.02669 258.21289 921.42578 C 258.21289 923.82491 257.83232 925.46631 256.44336 928.62305 C 255.05439 931.77978 255.56045 933.29435 255.18164 936.07227 C 254.80285 938.85018 255.05586 940.36534 254.55078 943.26953 C 254.0457 946.17372 253.16171 948.32025 251.64648 950.4668 C 250.13126 952.61338 251.51953 957.53906 251.51953 957.53906 C 251.14072 958.80176 249.75244 964.9881 249.12109 966.75586 C 248.48975 968.52366 248.36367 978.87824 247.35352 983.80273 C 246.34336 988.72723 248.48964 991.12717 248.74219 996.93555 C 248.99473 1002.7439 246.59559 1006.6579 243.69141 1013.0977 C 240.78722 1019.5374 240.40869 1024.841 239.77734 1031.9121 C 239.146 1038.9832 240.66153 1039.1094 243.43945 1044.1602 C 246.21737 1049.2109 248.23712 1048.9574 251.26758 1050.4727 C 254.29804 1051.9879 258.21281 1053.3778 262.88477 1053.8828 C 267.55672 1054.3879 270.20753 1050.852 272.10156 1047.6953 C 273.9956 1044.5386 275.13253 1039.6132 276.52148 1036.709 C 277.91045 1033.8048 277.27862 1031.2792 277.15234 1028.375 C 277.02607 1025.4708 275.13163 1026.8599 273.11133 1024.082 C 271.09102 1021.3041 272.10156 1021.5573 272.10156 1016.6328 C 272.10156 1011.7083 273.36426 1012.2142 274.62695 1009.9414 C 275.88964 1007.6685 277.90977 1000.8495 278.91992 997.94531 C 279.93008 995.04112 279.29823 994.53577 279.55078 991.75781 C 279.80333 988.9799 279.67773 987.97021 279.67773 986.07617 C 279.67773 984.18214 281.44591 979.00419 281.19336 975.08984 C 280.94082 971.1755 283.46641 967.89229 284.47656 964.60938 C 285.48671 961.32636 285.23378 958.67462 285.48633 954.12891 C 285.73887 949.58323 286.87481 949.20595 288.64258 945.03906 C 290.41034 940.87217 289.7793 939.35604 289.7793 936.57812 C 289.7793 933.80027 289.77989 933.54677 289.52734 930.64258 C 289.27481 927.73839 291.29443 928.37009 291.92578 927.10742 C 292.55712 925.84472 295.08291 920.1634 295.9668 917.51172 C 296.85068 914.86008 297.86005 915.23917 297.98633 916.12305 C 298.11259 917.00693 297.98686 918.01592 297.73438 919.15234 C 297.48184 920.28877 298.24023 926.47656 298.24023 926.47656 C 298.24023 926.47656 297.1039 930.64307 296.09375 932.53711 C 295.0836 934.43114 296.21875 934.17967 296.21875 936.70508 C 296.21875 939.23045 295.71349 940.367 295.46094 942.13477 C 295.2084 943.90253 295.2086 948.19445 296.21875 949.83594 C 297.2289 951.47742 296.97588 952.61454 296.84961 955.01367 C 296.72334 957.41276 296.47246 962.96777 295.71484 964.23047 C 294.95722 965.49317 295.58789 967.00831 295.58789 968.90234 C 295.58789 970.79638 295.33458 972.31223 295.08203 973.70117 C 294.82949 975.09015 293.94599 980.26719 294.07227 981.27734 C 294.19854 982.2875 293.18906 993.77889 294.19922 997.31445 C 295.20938 1000.85 294.82998 1000.0915 294.45117 1001.4805 C 294.07236 1002.8694 292.55712 1010.1926 291.92578 1012.2129 C 291.29443 1014.2332 290.91534 1029.0078 290.78906 1031.4062 C 290.6628 1033.8054 290.79023 1040.4985 290.28516 1042.0137 C 289.78008 1043.5289 288.64287 1043.5289 287.25391 1047.0645 C 285.86494 1050.6 288.39014 1051.483 289.02148 1053.7559 C 289.65283 1056.0287 289.52646 1057.4183 288.64258 1058.9336 C 287.75869 1060.4488 287.38057 1063.1 286.24414 1064.6152 C 285.10772 1066.1304 285.23438 1071.8125 285.23438 1071.8125 C 285.23438 1071.8125 320.21084 1072.6964 319.83203 1071.8125 C 319.45322 1070.9286 322.86211 1069.4139 323.36719 1068.6562 C 323.87226 1067.8992 326.01768 1065.7517 326.39648 1064.6152 C 326.77529 1063.4788 327.66084 1061.2053 327.78711 1059.8164 C 327.91338 1058.4274 329.30078 1051.4824 329.30078 1051.4824 C 329.67958 1048.5782 330.4376 1047.3162 330.81641 1046.5586 C 331.19521 1045.801 331.82736 1042.6445 333.84766 1039.7402 C 335.86796 1036.836 333.97393 1035.4465 333.84766 1032.7949 C 333.72139 1030.1432 334.60508 1029.2591 335.61523 1026.9863 C 336.62538 1024.7134 336.87823 1023.7037 336.75195 1020.9258 C 336.62568 1018.1479 337.25595 1017.3894 337.63477 1015.3691 C 338.01356 1013.3488 339.27599 1010.8241 339.02344 1008.2988 C 338.7709 1005.7734 339.65566 1004.2586 339.9082 1001.8594 C 340.16074 999.46016 341.92851 998.9555 342.43359 997.94531 C 342.93867 996.9352 343.06524 995.29275 343.57031 994.15625 C 344.0754 993.01986 344.20039 992.13661 343.69531 989.23242 C 343.19024 986.32831 345.33799 986.07512 345.7168 984.43359 C 346.0956 982.79211 347.61084 981.40311 348.24219 979.00391 C 348.87353 976.60481 348.49444 975.21617 349.63086 972.56445 C 350.76728 969.91289 350.13604 973.70095 350.00977 975.46875 C 349.88351 977.23655 350.2627 977.7429 351.52539 980.01562 C 352.78808 982.28844 351.52539 985.19258 351.52539 987.21289 C 351.52539 989.2332 352.53506 991.50508 352.15625 993.52539 C 351.77744 995.54566 352.7877 1000.0917 352.53516 1002.2383 C 352.28262 1004.3848 353.04091 1009.0557 352.66211 1010.3184 C 352.2833 1011.5811 353.41983 1021.5577 353.04102 1023.1992 C 352.66222 1024.8407 354.04951 1030.522 354.17578 1032.7949 C 354.30206 1035.0677 354.17578 1042.6436 354.17578 1046.4316 C 354.17578 1050.2197 355.31339 1051.7348 356.19727 1055.7754 C 357.08115 1059.816 358.21748 1060.1954 358.34375 1062.7207 C 358.47002 1065.2461 357.96484 1072.1914 357.96484 1072.1914 L 396.34961 1072.6953 C 396.34961 1072.6953 396.72872 1072.0646 397.48633 1070.2969 C 398.24405 1068.5291 398.24557 1068.1512 398.49805 1066.1309 C 398.75052 1064.1106 398.62376 1063.4781 398.75 1061.584 C 398.87627 1059.69 400.77042 1060.7015 401.6543 1059.6914 C 402.53818 1058.6812 403.29492 1057.166 403.29492 1057.166 C 403.4212 1056.2821 407.20892 1056.9134 409.35547 1059.3125 C 411.50205 1061.7116 413.14375 1061.3318 415.16406 1063.0996 C 417.18437 1064.8674 420.84711 1061.9629 426.15039 1061.9629 C 431.45371 1061.9629 428.42305 1060.5744 428.29688 1058.8066 C 428.1706 1057.0389 427.79139 1055.6495 429.30664 1054.7656 C 430.82185 1053.8817 429.05325 1051.9881 428.80078 1046.5586 C 428.54831 1041.1291 428.54955 1043.78 428.67578 1041.3809 C 428.80202 1038.9818 428.67578 1039.2346 428.67578 1037.5938 C 428.67578 1035.9523 428.92782 1034.5621 429.30664 1033.0469 C 429.68542 1031.5316 429.05397 1030.0163 428.92773 1027.6172 C 428.80146 1025.2181 429.55859 1023.8292 429.55859 1022.9453 C 429.55859 1022.0614 429.93802 1019.6642 429.68555 1017.5176 C 429.43304 1015.371 426.78211 1013.4768 425.14062 1009.5625 C 423.4992 1005.6482 423.37202 1005.6465 422.10938 1000.5957 C 420.84671 995.54497 421.73154 997.81959 420.84766 992.64258 C 419.96374 987.46553 420.97282 990.36827 421.73047 986.95898 C 422.48808 983.54974 421.98271 983.04609 423.11914 980.01562 C 424.25557 976.98515 422.74113 977.99512 421.09961 976.73242 C 419.45812 975.46972 420.34128 974.96465 420.59375 971.68164 C 420.8463 968.39867 419.83665 969.40783 419.96289 967.89258 C 420.08916 966.37737 420.72031 966.75604 421.73047 964.98828 C 422.74062 963.22052 424.25666 956.14989 424.76172 954.25586 C 425.26681 952.36182 425.13944 943.64821 425.64453 940.36523 C 426.14959 937.08222 425.64453 936.95633 425.64453 934.30469 C 425.64453 931.65305 426.90781 932.53808 427.91797 933.80078 C 428.92812 935.06345 428.54805 937.58822 428.42188 938.72461 C 428.2956 939.86104 429.30676 942.51242 429.68555 945.16406 C 430.06426 947.8157 429.93874 950.08859 429.8125 952.74023 C 429.68623 955.39188 430.31676 955.51777 431.45312 958.80078 C 432.58952 962.08375 432.96947 962.08419 433.0957 962.8418 C 433.22198 963.59944 433.59961 969.15625 433.59961 969.15625 C 433.09459 971.55534 433.2207 974.7117 433.2207 975.2168 C 433.2207 975.72186 435.24219 988.09647 435.24219 988.60156 C 435.24219 989.10662 436.25072 996.6829 436.37695 999.08203 C 436.50323 1001.4811 438.14525 1006.153 438.27148 1008.4258 C 438.39776 1010.6986 439.4082 1015.3708 439.4082 1016.7598 C 439.4082 1018.1487 441.68021 1039.2347 441.42773 1040.3711 C 441.17519 1041.5075 439.53477 1043.5283 440.54492 1044.791 C 441.55508 1046.0537 440.79708 1046.3067 441.55469 1049.2109 C 442.31229 1052.1151 443.19655 1050.5985 443.07031 1054.0078 C 442.944 1057.4171 442.69093 1056.6592 443.32227 1057.9219 C 443.95364 1059.1846 444.45975 1058.3013 444.96484 1060.1953 C 445.4699 1062.0893 445.72083 1063.2252 446.09961 1065.498 C 446.47843 1067.7709 448.37305 1072.0645 448.37305 1072.0645 L 470.21875 1072.0645 C 470.21875 1072.0645 470.59622 1068.2768 470.34375 1066.3828 C 470.09128 1064.4888 470.47122 1063.6044 470.21875 1061.9629 C 469.96624 1060.3214 471.2278 1057.2914 471.10156 1056.2812 C 470.97533 1055.2717 475.77377 1055.0181 476.91016 1054.3867 C 478.04658 1053.7553 480.44583 1052.7457 480.19336 1048.7051 C 479.94081 1044.6645 478.30002 1044.2859 477.79492 1042.2656 C 477.28986 1040.2453 477.7942 1039.8667 477.66797 1037.9727 C 477.54169 1036.0786 476.91016 1035.5732 476.91016 1034.3105 C 476.91016 1033.0479 476.65781 1030.6479 477.66797 1028.7539 C 478.67812 1026.8599 478.04688 1020.4201 478.04688 1018.6523 C 478.04688 1016.8845 477.03699 1006.9092 476.6582 1005.6465 C 476.27938 1004.3838 476.53104 996.80916 475.77344 994.03125 C 475.01579 991.25334 474.76418 985.57051 474.13281 981.27734 C 473.50148 976.98422 474.76273 979.13075 476.02539 976.22656 C 477.28809 973.32237 477.66758 971.93416 478.67773 969.15625 C 479.68789 966.37834 479.30948 966.62942 480.19336 965.99805 C 481.07728 965.36671 481.07695 969.40862 481.20312 970.92383 C 481.3294 972.43908 481.70927 974.20625 482.8457 976.22656 C 483.98213 978.24683 485.11731 984.81329 485.49609 987.84375 C 485.87492 990.87418 486.6321 991.50553 486.50586 992.51562 C 486.37962 993.52578 488.27344 997.69141 488.27344 997.69141 C 487.89462 998.1965 488.65379 1001.607 489.28516 1002.6172 C 489.91649 1003.6273 490.67383 1010.3189 490.67383 1012.2129 C 490.67383 1014.1069 491.93546 1018.6528 491.55664 1020.5469 C 491.17786 1022.4409 492.6943 1026.7346 493.57812 1027.4922 C 494.46208 1028.2498 494.2081 1035.9512 493.32422 1038.4766 C 492.44034 1041.0019 493.70315 1039.2353 496.22852 1040.1191 C 498.75392 1041.003 498.62901 1040.7496 501.5332 1041.7598 C 504.43739 1042.7699 502.03728 1042.3925 502.79492 1044.5391 C 503.55253 1046.6856 501.40604 1045.5476 500.64844 1045.6738 C 499.89083 1045.8001 499.76513 1045.6755 497.87109 1044.5391 C 495.97706 1043.4026 496.86122 1042.771 493.95703 1043.0234 C 491.05284 1043.276 492.81934 1043.7803 491.55664 1045.043 C 490.29398 1046.3057 489.11722 1044.6211 485.49609 1046.4316 C 482.97065 1047.6943 483.7289 1048.5782 482.71875 1051.4824 C 481.7086 1054.3866 483.09718 1054.8915 483.72852 1058.3008 C 484.35989 1061.71 485.49548 1061.0788 488.27344 1063.7305 C 491.05135 1066.3821 491.17844 1065.4993 493.83008 1067.8984 C 496.48172 1070.2975 501.40625 1072.3164 501.40625 1072.3164 L 529.81641 1072.5703 C 529.81641 1072.5703 530.70088 1072.0646 529.56445 1069.918 C 528.42802 1067.7714 528.42815 1066.8883 527.79688 1065.373 C 527.16547 1063.8578 528.04883 1062.8472 528.04883 1060.9531 C 528.04883 1059.0591 527.16521 1057.292 526.66016 1056.0293 C 526.15506 1054.7666 525.52391 1051.7348 524.89258 1048.5781 C 524.26121 1045.4214 525.39707 1047.4426 527.66992 1046.9375 C 529.94274 1046.4324 531.08027 1047.8206 534.36328 1048.957 C 537.64625 1050.0935 535.37344 1050.8517 534.36328 1053.7559 C 533.35313 1056.66 534.36328 1056.5343 534.36328 1058.1758 C 534.36328 1059.8173 534.3624 1060.9539 533.47852 1063.9844 C 532.59464 1067.0148 533.6058 1065.4994 534.74219 1068.2773 C 535.87862 1071.0553 535.24609 1072.3164 535.24609 1072.3164 L 583.10156 1072.4434 C 583.10156 1072.4434 583.85938 1072.823 583.85938 1070.8027 C 583.85937 1068.7824 583.48195 1068.7815 584.11328 1067.0137 C 584.74465 1065.2459 585.24948 1065.1198 585.50195 1062.4688 C 585.75454 1059.8171 585.24876 1061.2047 585.375 1059.6895 C 585.50135 1058.1742 585.75391 1055.3974 585.75391 1053.7559 C 585.75391 1052.1144 586.00662 1050.5987 586.51172 1049.7148 C 587.01678 1048.831 592.44632 1048.5794 593.70898 1048.4531 C 594.97169 1048.3269 601.28494 1048.3267 603.05273 1047.6953 C 604.8205 1047.064 606.20965 1047.1906 608.86133 1046.6855 C 611.51297 1046.1805 613.15478 1046.6855 617.57422 1046.6855 C 621.99362 1046.6855 624.13937 1046.8118 626.79102 1046.6855 C 629.44266 1046.5593 635.50411 1045.0427 636.26172 1043.9062 C 637.01925 1042.7705 636.51367 1037.7202 636.51367 1035.8262 C 636.51367 1033.9321 636.26131 1032.6694 634.74609 1030.7754 C 633.23084 1028.8814 633.3569 1028.3751 633.60938 1026.2285 C 633.86186 1024.0819 632.97763 1023.9553 632.09375 1022.5664 C 631.20991 1021.1774 631.33665 1019.4103 631.46289 1017.6426 C 631.58916 1015.8748 632.60049 1016.1276 633.48438 1013.7285 C 634.3682 1011.3294 632.85263 1011.4552 631.96875 1009.3086 C 631.08487 1007.162 630.07474 1005.3939 629.82227 1003.1211 C 629.56972 1000.8482 628.68626 1001.228 628.8125 999.33398 C 628.93877 997.43995 628.30592 994.15575 628.17969 992.26172 C 628.05341 990.36768 626.79225 986.95985 626.66602 985.31836 C 626.5397 983.67687 626.16087 981.78232 626.28711 980.89844 C 626.41335 980.01456 626.53958 976.2258 626.28711 975.7207 C 626.03456 975.21564 625.02292 967.38838 625.27539 966.25195 C 625.5279 965.11552 632.47266 965.49414 632.47266 965.49414 C 632.47266 965.49414 637.64992 965.49271 638.28125 965.24023 C 638.91258 964.98776 644.84696 965.11523 647.24609 965.11523 C 649.64519 965.11523 651.79258 964.23145 652.80273 962.96875 C 653.81289 961.70609 652.4243 959.68606 651.79297 959.05469 C 651.1616 958.42336 650.65633 957.79073 651.03516 956.6543 C 651.41394 955.51787 650.15205 953.11903 649.01562 950.21484 C 647.87933 947.31065 648.63592 946.42652 648.13086 944.40625 C 647.62576 942.38594 647.37296 939.73427 646.99414 936.83008 C 646.61532 933.92589 646.74168 930.01131 647.37305 928.49609 C 648.00438 926.98088 647.62552 924.96124 647.37305 923.57227 C 647.1205 922.18333 648.00462 918.01737 648.13086 917.25977 C 648.25713 916.50216 649.52005 913.21817 649.26758 910.94531 C 649.01503 908.67249 650.40382 905.6414 651.03516 903.62109 C 651.66641 901.60079 651.41406 903.62198 651.41406 904.50586 C 651.41406 905.38974 652.92921 908.67356 653.56055 910.0625 C 654.19192 911.45148 664.29297 912.08203 664.29297 912.08203 C 664.29297 912.08203 664.924 918.01621 665.68164 920.28906 C 666.43917 922.56188 666.1875 928.49609 666.1875 928.49609 C 666.1875 928.49609 666.18738 929.00177 665.80859 930.76953 C 665.42977 932.53729 665.8089 937.46232 664.41992 940.24023 C 663.03095 943.01815 662.6509 944.40666 662.01953 945.92188 C 661.38812 947.43703 661.38919 949.70977 661.13672 952.74023 C 660.88421 955.7707 660.12734 956.5286 659.11719 958.92773 C 658.10707 961.32683 658.10657 962.21024 657.22266 964.60938 C 656.33878 967.00841 654.69617 968.65029 653.05469 970.79688 C 651.41316 972.9434 651.91797 974.58418 651.91797 977.86719 C 651.91797 981.15016 652.92854 982.03421 653.43359 983.29688 C 653.93869 984.55948 656.33759 984.43359 657.72656 984.43359 C 659.1155 984.43359 667.82879 985.5704 670.48047 985.94922 C 673.13211 986.328 678.94102 983.67609 679.95117 982.28711 C 680.96133 980.89817 680.83419 977.99385 681.5918 976.85742 C 682.34948 975.72099 682.7278 966.37781 682.60156 964.73633 C 682.47529 963.0948 680.20411 961.70483 678.94141 958.42188 C 677.67878 955.13886 678.6875 952.61385 678.6875 949.83594 C 678.6875 947.05802 678.30931 945.92226 678.43555 944.91211 C 678.56182 943.90196 681.71875 957.53906 681.71875 957.53906 L 687.27344 976.09961 C 687.27344 976.09961 692.07243 993.14756 692.83008 997.31445 C 693.58765 1001.4813 693.966 1007.2881 693.46094 1008.5508 C 692.95584 1009.8135 688.41122 1020.674 687.52734 1021.4316 C 686.64346 1022.1892 683.61172 1022.6934 682.60156 1023.0723 C 681.59141 1023.4511 681.08684 1024.5886 679.44531 1024.7148 C 677.80383 1024.8411 676.54208 1025.4708 675.6582 1025.8496 C 674.77432 1026.2284 670.48098 1030.2691 669.84961 1030.9004 C 669.21828 1031.5317 667.19813 1031.1529 665.55664 1030.9004 C 663.91515 1030.6478 660.37888 1033.0484 657.85352 1033.6797 C 655.32811 1034.311 657.09694 1035.3205 656.9707 1036.0781 C 656.84443 1036.8357 655.32771 1037.215 653.8125 1037.9727 C 652.29729 1038.7303 652.67761 1040.4969 652.29883 1041.002 C 651.92001 1041.507 654.44412 1043.6546 654.94922 1044.791 C 655.45428 1045.9274 661.13701 1048.3263 662.27344 1048.7051 C 663.40987 1049.0839 667.45078 1049.7156 668.46094 1050.2207 C 669.47109 1050.7258 669.34348 1051.4824 670.73242 1051.4824 C 672.1214 1051.4824 682.3491 1052.4922 682.98047 1052.4922 C 683.6118 1052.4922 694.21904 1051.9888 695.35547 1051.7363 C 696.4919 1051.4838 714.42157 1049.841 715.81055 1049.3359 C 717.19949 1048.8308 725.65942 1048.8311 727.67969 1047.9473 C 729.69996 1047.0634 729.19675 1042.5173 729.44922 1041.3809 C 729.70173 1040.2444 726.79667 1038.7296 726.03906 1037.8457 C 725.28146 1036.9618 723.38779 1036.4564 722.50391 1034.1836 C 721.61995 1031.9107 721.87225 1031.4064 721.36719 1029.6387 C 720.86209 1027.871 725.6595 1028.5018 728.05859 1028.123 C 730.45772 1027.7442 738.16077 1023.9555 740.43359 1022.9453 C 742.70645 1021.9352 749.6506 1020.1679 750.4082 1019.7891 C 751.16581 1019.4103 763.54083 1017.1385 765.30859 1016.3809 C 767.07639 1015.6233 770.23242 1012.214 770.23242 1011.709 C 770.23242 1011.2039 768.96953 1006.7839 766.94922 1004.3848 C 764.92891 1001.9857 760.13155 1004.2578 757.73242 1004.2578 C 755.33333 1004.2578 751.03972 1007.1626 748.64062 1006.9102 C 746.24155 1006.6576 750.28222 1005.8996 751.54492 1005.3945 C 752.80759 1004.8895 751.67149 1004.2574 754.82812 1002.7422 C 757.98486 1001.227 756.34447 998.44977 756.4707 995.67188 C 756.59694 992.89396 754.32364 990.87399 752.05078 989.61133 C 749.77796 988.34863 744.09537 976.73193 742.95898 974.83789 C 741.82256 972.94386 740.56046 969.02948 740.18164 967.26172 C 739.80286 965.49396 738.79288 961.83192 738.41406 958.92773 C 738.03528 956.02355 736.39246 949.20598 736.01367 947.56445 C 735.63485 945.92297 733.99414 934.0531 733.99414 930.51758 C 733.99414 926.98206 732.85742 922.05664 732.85742 922.05664 C 732.35236 919.53124 730.83768 916.37584 730.08008 914.73438 C 729.32247 913.09289 727.04909 908.67277 725.66016 907.03125 C 724.27118 905.38976 720.60917 896.80283 719.85156 894.65625 C 719.09392 892.50967 717.19922 890.86914 717.19922 890.86914 C 716.94671 890.11153 713.03371 883.29179 712.40234 881.27148 C 711.77094 879.25118 710.88625 877.48388 711.51758 875.58984 C 712.14895 873.69581 710.25443 870.66513 710.00195 869.78125 C 709.74941 868.89737 709.24465 867.38308 708.61328 865.99414 C 707.98195 864.60516 707.35136 864.73018 706.59375 863.59375 C 705.83614 862.45736 705.20431 860.56404 704.69922 859.04883 C 704.19416 857.53362 703.68933 856.1448 703.31055 854.75586 C 702.93172 853.36688 703.0588 853.4932 703.81641 852.60938 C 704.57401 851.72549 707.47728 838.71982 707.60352 837.83594 C 707.72979 836.95206 708.74023 830.7653 708.74023 829.62891 C 708.74023 828.49248 706.71999 819.27438 706.59375 818.01172 C 706.46748 816.74902 704.95292 812.83505 704.19531 811.95117 C 703.43774 811.06729 704.32083 810.18322 704.06836 808.66797 C 703.81581 807.15276 698.89063 794.77734 698.89062 794.77734 C 698.89063 794.77734 698.63867 793.38982 698.63867 792.88477 C 698.63867 792.37963 700.15438 793.13583 700.5332 792.25195 C 700.91199 791.36807 699.39572 789.98048 698.89062 787.45508 C 698.38563 784.92971 697.62806 785.56094 696.74414 784.55078 C 695.86026 783.54063 696.24023 780.76172 696.24023 780.76172 C 695.73521 779.37278 696.11328 777.22619 696.11328 775.71094 C 696.11328 774.19572 697.24885 772.93271 697.75391 772.04883 C 698.259 771.16495 703.94141 755.25586 703.94141 755.25586 C 703.94141 755.25586 704.57315 753.10937 705.45703 753.10938 C 706.34095 753.10938 708.74023 749.32031 708.74023 749.32031 C 708.74023 749.32031 709.24609 748.69061 709.24609 748.18555 C 709.24609 747.68049 708.86719 747.17413 708.86719 745.78516 C 708.86719 744.39622 709.24538 742.88181 709.11914 741.61914 C 708.99287 740.35644 709.87716 741.1131 710.63477 740.73438 C 711.39237 740.35555 713.15964 734.79922 713.41211 733.78906 C 713.66466 732.77891 712.90617 732.02167 712.52734 730.25391 C 712.14856 728.48611 712.52734 728.73935 712.52734 727.85547 C 712.52734 726.97159 713.15944 724.57301 713.0332 722.55273 C 712.90693 720.53243 712.78049 717.75462 712.27539 715.73438 C 711.77033 713.71403 712.40091 714.72432 712.14844 713.58789 C 711.89589 712.45146 712.02395 709.67345 711.39258 708.1582 C 710.76125 706.64299 710.12819 704.24286 710.00195 699.31836 C 709.87572 694.39386 710.00319 695.02528 709.87695 692.12109 C 709.75072 689.2169 710.38201 689.34393 709.87695 687.57617 C 709.37197 685.80841 709.49805 683.0293 709.49805 683.0293 C 708.99291 680.88271 710.12882 679.11525 709.75 676.58984 C 709.37118 674.06448 709.11838 670.52897 708.61328 669.39258 C 708.10822 668.25615 706.7205 666.86678 705.96289 665.35156 C 705.20528 663.83631 702.04862 660.42676 701.29102 659.16406 C 700.53341 657.9014 698.133 654.87074 696.36523 653.73438 C 694.59747 652.59795 692.32588 650.07413 691.18945 649.69531 C 690.05302 649.31649 682.72831 645.2759 681.9707 644.64453 C 681.2131 644.0132 677.80351 641.99266 675.7832 641.36133 C 673.76289 640.72996 674.14237 639.84568 673.38477 637.32031 C 672.62712 634.79495 674.8992 635.55304 675.4043 634.16406 C 675.90936 632.77512 677.93049 631.76457 678.43555 630.12305 C 678.94064 628.48156 680.83407 626.83994 681.21289 624.69336 C 681.59171 622.54678 681.97122 620.39998 681.71875 618.88477 C 681.4662 617.36955 681.466 614.08692 680.96094 612.82422 C 680.45584 611.56155 679.19387 607.8993 678.5625 606.25781 C 677.93117 604.61633 676.03614 602.59677 674.77344 601.71289 C 673.51077 600.82901 669.21766 598.68195 667.57617 597.29297 C 665.93465 595.90403 659.24264 594.76758 656.08594 594.76758 C 652.9292 594.76758 649.14149 597.29246 647.5 597.92383 C 645.85848 598.55516 644.46982 599.69264 643.58594 599.56641 C 642.70206 599.44013 641.18575 598.93546 639.79688 598.55664 C 638.4079 598.17786 636.13492 597.92412 631.8418 599.06055 C 627.54863 600.19694 627.42303 601.71174 626.91797 602.2168 C 626.41287 602.72189 625.02374 602.84973 623.63477 603.22852 C 622.24583 603.60734 620.85781 605.24825 619.84766 606.00586 C 618.8375 606.7635 618.20431 608.91024 617.69922 609.28906 C 617.19416 609.66788 614.66926 610.92977 612.01758 611.30859 C 609.36594 611.68738 608.1039 612.95107 607.09375 615.09766 C 606.0836 617.24424 608.48271 618.25284 609.61914 619.13672 C 610.75557 620.0206 609.11308 620.52743 608.35547 620.90625 C 607.59786 621.28507 606.58861 624.9456 606.71484 626.08203 C 606.84112 627.21842 602.92685 628.98713 602.04297 629.49219 C 601.15909 629.99728 600.14856 631.89065 600.52734 634.41602 C 600.90617 636.94138 605.83008 641.48666 605.83008 642.62305 C 605.83008 643.75948 604.9471 642.4972 604.18945 641.61328 C 603.43185 640.7294 603.43242 640.22513 601.41211 639.97266 C 599.3918 639.72018 599.51678 639.71875 599.01172 639.71875 C 598.50662 639.71875 597.6242 639.08816 597.11914 637.69922 C 596.61404 636.31024 595.60378 635.93063 594.21484 634.66797 C 592.82587 633.40527 593.58183 633.53249 592.82422 633.40625 C 592.06661 633.27998 591.43607 632.52267 591.18359 632.01758 C 590.93105 631.51252 591.18271 630.50234 590.29883 629.49219 C 589.41495 628.48203 588.40596 627.47237 587.26953 626.33594 C 586.1331 625.19951 586.13201 623.68369 585.62695 621.53711 C 585.12186 619.39056 585.75319 619.01075 585.62695 617.74805 C 585.50068 616.48538 583.98672 615.34944 582.97656 614.5918 C 581.96641 613.83419 583.22839 613.07656 582.84961 612.06641 C 582.47079 611.05625 581.20878 610.17226 580.45117 609.16211 C 579.69364 608.15196 580.19778 606.38495 579.94531 604.61719 C 579.69276 602.84943 578.051 599.31289 576.2832 598.30273 C 574.51544 597.29258 571.86426 596.28392 570.60156 596.41016 C 569.3389 596.53643 567.57138 595.02005 566.6875 594.76758 C 565.80362 594.51503 561.63741 592.36897 559.23828 591.61133 C 556.83919 590.85368 553.68164 590.72656 553.68164 590.72656 C 550.27236 590.47401 543.70721 591.99032 541.93945 592.36914 C 540.17169 592.74792 540.17041 592.24249 537.01367 590.85352 C 533.85693 589.4645 535.62552 590.09677 535.37305 589.21289 C 535.1205 588.32897 532.46854 588.45364 531.71094 588.20117 C 530.95329 587.94862 530.06863 585.92957 528.67969 585.55078 C 527.29071 585.17196 526.02841 585.29776 525.14453 586.18164 C 524.26065 587.06552 524.51347 587.06445 523.75586 587.06445 C 522.99825 587.06445 509.99317 583.15154 508.73047 582.64648 C 507.4678 582.14139 505.19375 580.49979 504.18359 579.74219 C 503.17344 578.98462 497.36622 579.23633 496.10352 579.23633 C 494.84085 579.23633 493.19833 576.83713 492.31445 576.33203 C 491.43057 575.82697 488.14883 573.42897 487.13867 573.30273 C 486.12859 573.17646 486.38086 572.03889 486.38086 571.28125 C 486.38086 570.52364 485.87598 570.27128 484.61328 569.51367 C 483.35062 568.75607 483.09818 567.87228 482.8457 567.36719 C 482.59316 566.86213 482.46523 565.22053 481.45508 564.46289 C 480.44492 563.70528 477.54093 562.06493 477.16211 561.43359 C 476.78333 560.80219 474.63779 560.8013 473.75391 560.54883 C 472.86995 560.29628 473.24852 558.52785 472.61719 557.89648 C 471.98582 557.26515 470.72318 555.62344 470.4707 554.61328 C 470.21816 553.60313 466.93411 551.33047 466.68164 550.32031 C 466.42909 549.31016 462.13596 548.55345 461.63086 548.67969 C 461.1258 548.80596 459.10526 544.5127 458.34766 543.25 C 457.59001 541.98734 457.84278 542.61766 456.58008 541.98633 C 455.31741 541.35496 455.94875 540.47292 456.58008 539.08398 C 457.21145 537.69501 456.45364 537.4412 456.20117 536.68359 C 455.94862 535.92599 455.19193 533.40185 454.93945 531.50781 C 454.68698 529.61378 454.93874 528.47627 454.8125 527.33984 C 454.68623 526.20342 456.58152 523.67765 457.21289 523.29883 C 457.84422 522.92004 458.22214 520.14217 458.47461 518.62695 C 458.72716 517.11174 461.50586 511.93555 461.50586 511.93555 C 461.50586 511.93555 460.62109 506.63193 460.62109 505.74805 C 460.62109 504.86417 461.88485 501.70742 462.26367 500.69727 C 462.64246 499.68711 462.13663 497.79375 461.75781 495.77344 C 461.37899 493.75313 461.12584 493.12068 459.48438 491.60547 C 457.84289 490.09026 458.98047 489.45925 458.98047 488.07031 C 458.98047 486.68134 457.96927 483.14619 457.7168 482.00977 C 457.46429 480.87334 457.96947 476.32648 458.0957 474.9375 C 458.22198 473.54856 457.08585 470.77187 456.70703 469.76172 C 456.32825 468.75156 456.95907 468.37284 457.33789 467.61523 C 457.71667 466.85763 457.08646 465.46854 456.83398 464.71094 C 456.5814 463.95333 456.95898 462.56484 456.95898 461.55469 C 456.95898 460.54453 455.82278 454.73485 455.57031 454.10352 C 455.31776 453.47218 456.32813 450.44141 456.32812 450.44141 C 456.32813 450.44141 455.69727 446.52833 455.69727 445.26562 C 455.69727 444.00298 456.83329 445.26563 459.23242 445.26562 C 461.63151 445.26562 463.77893 443.74992 467.31445 443.37109 C 470.85001 442.99227 474.51035 443.49648 476.7832 442.48633 C 479.05602 441.47617 479.56198 437.5628 479.81445 436.17383 C 480.067 434.78489 477.54221 428.21825 477.03711 426.32422 C 476.53205 424.43018 477.16335 423.42091 477.03711 422.1582 C 476.91084 420.8955 478.5513 422.03075 478.29883 420.13672 C 478.04628 418.24268 476.91068 416.47675 476.6582 414.70898 C 476.40566 412.94122 477.79297 411.04599 477.79297 410.16211 C 477.79297 409.27823 477.79349 408.26873 477.54102 407.76367 C 477.28847 407.25858 476.91016 405.7432 476.91016 404.85938 L 476.91016 401.70312 C 476.91016 401.70313 475.89959 396.65253 475.39453 394.88477 C 474.88959 393.117 475.39505 389.58047 475.14258 388.57031 C 474.89003 387.56016 474.51163 384.27646 474.13281 383.39258 C 473.75403 382.5087 472.61719 379.47852 472.61719 379.47852 C 472.61719 379.47852 469.71281 372.02901 469.33398 370.89258 C 468.95512 369.75615 469.58594 367.86133 469.58594 367.86133 C 469.58594 367.86133 469.83908 365.841 469.33398 365.33594 C 468.82893 364.83084 468.95436 364.70598 468.82812 363.06445 C 468.70191 361.42297 470.97541 359.78176 471.48047 359.15039 C 471.98553 358.51906 472.61771 356.11961 472.36523 355.48828 C 472.11269 354.85695 475.26901 352.58378 475.52148 351.82617 C 475.77403 351.06857 480.6987 344.50175 480.95117 343.74414 C 481.20372 342.98653 488.27539 333.26367 488.27539 333.26367 C 488.40166 332.75858 491.30545 329.98242 491.81055 329.98242 C 492.31561 329.98242 497.74402 324.04739 497.36523 323.41602 C 496.98641 322.78465 500.14414 323.66836 501.1543 322.6582 C 502.16445 321.64805 506.2052 314.57598 506.58398 313.81836 C 506.96269 313.06075 506.96146 307.12607 506.70898 306.24219 C 506.45647 305.3583 507.21432 302.70683 507.4668 301.94922 C 507.71934 301.19161 507.21536 297.4039 506.96289 295.88867 C 506.71034 294.37345 506.33008 289.07011 506.33008 288.3125 C 506.33008 287.55489 507.08932 286.16689 507.3418 284.52539 C 507.59431 282.88389 505.82529 282.25234 504.94141 281.24219 C 504.05753 280.23204 504.05779 280.48379 503.55273 278.21094 C 503.0476 275.9381 503.80469 275.81298 503.80469 275.18164 C 503.80469 274.55029 503.55265 274.17147 503.17383 272.65625 C 502.79501 271.14104 503.8054 272.1502 503.93164 271.39258 C 504.05799 270.63497 504.43678 268.61436 504.31055 267.73047 C 504.18427 266.84659 503.55325 265.83711 503.30078 265.33203 C 503.04823 264.82695 501.2793 262.93359 501.2793 262.93359 C 501.2793 262.93359 499.76533 259.2705 498.62891 258.00781 C 497.49248 256.74513 498.88098 255.86113 499.25977 255.10352 C 499.63859 254.34589 499.00638 253.33643 498.75391 252.70508 C 498.50143 252.07374 498.62819 249.67364 498.50195 248.91602 C 498.37568 248.15841 496.98789 244.87568 497.99805 245.00195 C 499.0082 245.12822 501.1543 241.08789 501.1543 241.08789 C 501.1543 241.08789 502.16335 231.74336 502.03711 231.23828 C 501.91084 230.7332 506.45651 227.32539 506.70898 226.82031 C 506.96153 226.31524 510.11875 222.52695 511.12891 221.01172 C 512.13906 219.49649 514.41211 212.5519 514.41211 212.04688 C 514.41211 211.54181 514.41283 203.08173 514.53906 201.94531 C 514.66534 200.8089 511.88632 193.73788 507.8457 189.69727 C 503.80509 185.65666 492.81953 183.38349 489.78906 183.50977 C 486.7586 183.63604 482.21338 186.91963 479.05664 188.30859 C 475.8999 189.69755 472.61758 193.10556 471.60742 193.48438 C 470.59727 193.86312 469.71367 190.07567 467.69336 188.18164 C 465.67301 186.2876 467.06072 187.42304 467.81836 186.91797 C 468.57597 186.41289 468.19714 184.26728 467.81836 183.13086 C 467.43954 181.99443 469.20703 176.05898 469.20703 175.04883 C 469.20703 174.03867 469.46094 167.60038 469.46094 165.58008 C 469.46094 163.55977 466.80824 160.1502 465.67188 159.39258 C 464.53545 158.63497 467.43997 155.60439 467.1875 153.96289 C 466.93499 152.32139 465.9249 153.58408 465.04102 153.96289 C 464.1571 154.3417 462.51571 153.83554 462.89453 152.32031 C 463.27332 150.80508 461.88333 146.26093 461.63086 143.23047 C 461.37831 140.20001 460.24186 142.21953 459.10547 140.19922 C 457.96904 138.17892 459.73705 136.66299 459.86328 135.02148 C 459.98956 133.37999 461.37962 133.25507 461.50586 132.75 C 461.63213 132.24492 463.65163 128.07773 463.52539 126.5625 C 463.39912 125.04727 462.51474 124.03749 461.63086 123.02734 C 460.74698 122.01719 459.86367 121.51152 458.85352 120.75391 C 457.84336 119.99628 457.84375 115.32422 457.84375 115.32422 C 457.71748 113.43018 456.96022 112.67216 456.83398 111.2832 C 456.70771 109.89425 456.07664 108.88437 455.44531 107.36914 C 454.81394 105.85391 454.68738 104.46455 454.30859 103.32812 C 453.92973 102.19176 454.43359 98.909852 454.43359 97.773438 C 454.43359 96.637013 453.9288 92.849017 453.04492 90.576172 C 452.16104 88.30333 445.84796 81.609859 444.45898 80.978516 C 443.07001 80.347168 442.18661 77.569332 441.30273 76.306641 C 440.41885 75.04395 437.89249 75.171378 437.51367 73.277344 C 437.13489 71.383305 437.64083 71.00439 438.39844 70.373047 C 439.15608 69.741699 439.66133 69.362884 441.68164 67.847656 C 443.70195 66.332425 439.15578 67.721082 439.78711 66.710938 C 440.41844 65.700783 441.42845 64.816497 441.55469 62.669922 C 441.68096 60.523351 442.56602 60.396674 443.57617 58.628906 C 444.58633 56.861142 443.82716 55.852237 442.56445 53.453125 C 441.30175 51.054013 441.30282 51.936519 441.68164 50.673828 C 442.06046 49.411137 442.31297 49.664637 441.68164 46.886719 C 441.05031 44.1088 440.41776 44.991306 439.66016 44.107422 C 438.90255 43.223538 438.65018 42.720306 437.89258 41.205078 C 437.13497 39.68985 435.74725 40.825398 435.24219 42.845703 C 434.73709 44.866008 433.85343 42.087398 433.47461 40.193359 C 433.09583 38.299325 432.58943 38.173431 431.07422 36.658203 C 429.55897 35.142975 428.80224 36.1538 426.9082 34.259766 C 425.96119 33.312748 426.0238 32.870887 426.18164 32.697266 C 426.13214 32.712832 426.10165 32.72676 426.02344 32.744141 C 424.88701 32.996677 425.26688 33.500972 422.61523 32.238281 C 419.96356 30.97559 421.73096 31.734276 418.57422 31.355469 C 415.41748 30.976662 418.19579 32.112992 417.56445 33.501953 C 416.93312 34.890911 414.91211 34.132409 414.91211 32.617188 C 414.91211 31.10196 413.01848 32.995705 411.37695 34.005859 C 409.73547 35.01601 410.61842 33.374991 410.49219 30.849609 C 410.36591 28.324231 408.34656 30.97559 406.70508 32.238281 C 405.06359 33.500972 406.19973 33.501066 405.56836 32.617188 C 404.93703 31.733303 404.68398 29.966005 403.67383 29.460938 C 403.54756 29.397803 403.43508 29.364081 403.33594 29.357422 z M 426.375 32.607422 C 426.36323 32.589762 426.26234 32.611653 426.18359 32.697266 C 426.31256 32.656533 426.38354 32.620235 426.375 32.607422 z M 445.7207 253.8418 C 445.7207 253.8418 446.48008 254.34728 447.49023 257.88281 C 448.50039 261.41835 448.24766 262.93224 449.25781 265.20508 C 450.26797 267.47792 449.76235 269.24611 449.50977 271.77148 C 449.25729 274.29687 450.52031 274.29648 448.5 275.30664 C 446.47969 276.31679 435.11523 277.32813 435.11523 277.32812 C 436.3779 276.8231 438.14571 267.98417 440.16602 264.70117 C 442.18632 261.41818 445.7207 253.8418 445.7207 253.8418 z M 404.11914 303.82812 C 404.24245 303.83207 404.30469 303.84375 404.30469 303.84375 L 407.33594 312.93555 C 407.33594 312.93555 405.31544 313.69258 404.05273 315.71289 C 402.79003 317.73319 400.76951 319.24844 398.24414 320.76367 C 395.71874 322.27888 394.70816 322.53204 391.67773 325.5625 C 388.64735 328.59296 390.92069 330.86606 391.42578 333.89648 C 391.93084 336.92695 391.17283 335.9166 387.38477 338.18945 C 383.5967 340.46231 383.84923 336.67321 382.33398 334.40039 C 380.81885 332.12753 380.31462 331.87518 381.07227 330.10742 C 381.82987 328.33966 385.11153 324.80411 385.86914 322.53125 C 386.62675 320.25841 387.13323 320.25812 393.69922 311.67188 C 399.44449 304.15887 403.25598 303.80055 404.11914 303.82812 z M 443.44922 305.10742 C 444.45937 305.35997 447.74238 305.10645 451.02539 306.36914 C 454.3084 307.63183 458.34768 308.38886 460.87305 309.14648 C 463.39841 309.90409 466.17673 308.13634 464.91406 311.67188 C 463.65136 315.20737 462.13575 319.24846 460.87305 323.28906 C 459.61034 327.32968 459.10684 329.85447 456.83398 333.64258 C 454.56113 337.43065 453.29726 339.19962 452.28711 343.24023 C 451.27696 347.28081 449.76228 348.29024 449.50977 350.31055 C 449.25729 352.33086 449.25671 355.36228 447.23633 346.52344 C 445.21602 337.68463 445.72228 337.17968 444.20703 332.12891 C 442.69182 327.07813 442.43865 326.06716 441.93359 321.52148 C 441.4285 316.97581 438.65021 315.71327 440.41797 312.17773 C 442.18573 308.6422 443.44922 305.10742 443.44922 305.10742 z M 455.67773 392.53516 C 455.67773 392.53516 456.21484 395.21429 456.21484 397 C 456.21484 398.78571 457.2849 401.28574 456.92773 404.5 C 456.57057 407.7143 458.17913 410.75028 458.71484 416.10742 C 459.25055 421.46456 458.89258 418.24944 457.64258 420.03516 C 456.39257 421.82087 456.92884 421.28515 458.35742 422.53516 C 459.78597 423.78516 460.85798 423.24915 460.32227 425.92773 C 459.78656 428.60629 460.32169 428.7857 455.85742 430.75 C 451.39312 432.71426 452.82061 432.00059 451.92773 430.21484 C 451.0349 428.42913 450.14283 413.25085 450.5 410.57227 C 450.85713 407.89371 452.10768 405.74942 452.46484 402.53516 C 452.82197 399.32086 452.82057 399.32227 453.17773 398.07227 C 453.5349 396.82226 455.67773 392.53516 455.67773 392.53516 z M 617.17773 820.25195 C 617.78025 820.26404 616.79991 822.77743 616.68945 824.32422 C 616.56322 826.09198 616.81641 826.34445 616.81641 828.99609 C 616.81641 831.64773 616.94212 831.64774 617.06836 834.04688 C 617.19471 836.44595 617.06888 836.31992 616.81641 837.33008 C 616.56386 838.34023 616.56297 844.52725 615.93164 846.67383 C 615.30031 848.82037 616.43643 849.19912 617.32031 851.3457 C 618.20427 853.49229 617.44714 854.37621 617.06836 856.39648 C 616.68954 858.41679 618.07813 865.11022 618.07812 865.99414 C 618.07812 866.87798 618.45818 868.64464 617.95312 871.54883 C 617.44805 874.45302 617.82694 876.97978 618.33203 879.37891 C 618.83709 881.778 619.3418 881.39754 619.3418 883.03906 C 619.3418 884.68055 618.71073 884.80718 617.95312 886.70117 C 617.19554 888.59521 617.69961 888.09046 616.68945 890.36328 C 615.6793 892.63614 616.94182 891.37303 618.45703 893.89844 C 619.97228 896.42392 619.7212 895.03617 621.61523 896.67773 C 623.50927 898.31918 625.65471 897.56084 627.16992 898.69727 C 628.68513 899.83369 627.67471 899.95991 628.55859 900.84375 C 629.4424 901.72763 628.3074 902.86483 628.8125 906.40039 C 629.31756 909.93591 630.07422 916.50215 630.07422 919.78516 C 630.07422 923.06813 630.83255 924.58319 630.58008 929.12891 C 630.32753 933.67454 630.07401 937.46137 629.31641 941.50195 C 628.5588 945.54257 622.49805 947.5625 622.49805 947.5625 C 622.49805 947.56254 621.74075 945.41721 621.48828 944.91211 C 621.23573 944.40705 619.84745 939.35693 619.08984 937.46289 C 618.33224 935.56886 618.5845 934.43162 617.95312 931.90625 C 617.32181 929.38085 617.19523 929.50721 616.81641 927.23438 C 616.43762 924.96156 615.42765 922.68789 615.04883 921.67773 C 614.67004 920.66758 613.78631 917.25871 613.28125 915.61719 C 612.77619 913.9757 612.397 912.9663 612.14453 911.07227 C 611.89198 909.17823 611.25968 908.67345 610.88086 907.1582 C 610.50208 905.64299 610.25047 904.88554 609.61914 902.86523 C 608.98777 900.84493 609.74557 900.33935 609.99805 898.44531 C 610.25059 896.55128 609.49229 896.92898 607.3457 894.27734 C 605.19912 891.62567 606.33594 892.63672 606.33594 892.63672 L 606.08398 889.35352 C 605.83147 887.58575 605.32545 886.19757 605.19922 884.80859 C 605.07294 883.41966 605.45146 883.29268 606.58789 882.15625 C 607.72428 881.01982 606.46182 880.64078 607.3457 876.34766 C 608.22951 872.05449 607.97656 874.32674 607.97656 871.54883 C 607.97656 868.77091 607.34523 869.02454 607.97656 868.14062 C 608.60789 867.25676 608.48242 864.60565 608.48242 862.83789 C 608.48242 861.07013 608.35623 859.0497 608.86133 854.88281 C 609.36639 850.71588 608.48294 851.72438 608.23047 848.44141 C 607.97785 845.15843 608.35619 844.65499 608.48242 842.25586 C 608.6087 839.85677 608.86081 839.22479 609.11328 837.45703 C 609.36583 835.68931 610.88107 834.93213 611.63867 831.77539 C 612.39632 828.61865 612.27101 828.99747 612.90234 826.72461 C 613.53371 824.45179 613.53285 825.33476 614.54297 823.31445 C 615.55316 821.29414 615.55374 821.29404 616.81641 820.41016 C 616.97425 820.29967 617.09166 820.25023 617.17773 820.25195 z M 92.330078 824.51172 C 92.698386 824.61217 92.463448 826.82058 91.927734 828.42773 C 91.213434 830.57058 92.106574 830.03515 92.285156 832.53516 C 92.463739 835.03516 92.821722 837.17773 92.107422 838.42773 C 92.107422 839.14203 90.678009 841.64368 89.785156 843.07227 C 88.892284 844.50085 88.892284 847.536 88.535156 849.85742 C 88.178014 852.17885 88.536272 852.89257 87.464844 855.39258 C 86.393431 857.89255 87.107128 860.92828 86.75 862.89258 C 86.392857 864.85687 85.85798 868.42828 85.322266 870.39258 C 84.786548 872.35684 85.322266 877.17798 85.322266 880.03516 C 85.322266 882.89229 84.25 888.42942 84.25 890.57227 C 84.25 892.71511 84.607128 894.67942 84.25 896.82227 C 83.892872 898.96514 84.607128 901.10712 84.25 903.25 C 83.892872 905.39284 84.428583 908.96373 84.25 911.28516 C 84.071429 913.60662 85.322266 915.21344 85.322266 917.17773 C 85.322266 919.14199 84.25 929.14232 84.25 930.03516 C 84.25 930.92803 85.143683 935.39283 85.322266 937 C 85.500852 938.60713 85.857422 940.21517 85.857422 943.07227 C 85.857422 945.92948 85.857425 944.1429 84.607422 947 C 83.357438 949.85721 84.607128 950.21513 84.25 951.82227 C 83.892869 953.42947 83.714844 953.96517 83.714844 955.57227 C 83.714844 957.17947 82.642578 963.42773 82.642578 963.42773 L 79.785156 966.64258 C 79.785156 966.64258 77.642857 967.35717 76.75 967 C 75.85714 966.64287 75.143135 964.85713 73.357422 963.25 C 71.571708 961.64287 71.035435 962.53542 70.142578 961.64258 C 69.249733 960.7497 69.429393 958.07227 69.072266 955.57227 C 68.715123 953.07226 68.893418 954.32227 67.464844 953.07227 C 66.036288 951.82226 66.750294 951.64203 67.107422 948.42773 C 67.464587 945.21344 67.285156 946.64255 67.285156 944.14258 C 67.285156 941.64253 66.750836 942.35743 65.322266 939.85742 C 63.893695 937.35742 63.892019 937.35684 61.927734 934.14258 C 59.963446 930.92828 61.927734 931.64343 61.927734 930.21484 C 61.927734 928.7863 62.107422 928.42774 62.107422 927.17773 C 62.107422 925.92773 62.821417 921.28516 63 918.78516 C 63.178571 916.28515 64.428293 915.39288 65.142578 913.25 C 65.856863 911.10716 65.678839 909.85713 65.857422 908.25 C 66.035993 906.64287 68.000555 901.82227 68.714844 900.57227 C 69.42914 899.32226 68.892578 894.50085 68.892578 891.82227 C 68.892578 889.14371 68.713449 889.14314 69.427734 887.35742 C 70.14202 885.57171 73.714565 884.67859 74.607422 883.25 C 75.500279 881.82145 74.786272 877.35798 73.714844 875.57227 C 72.643416 873.78655 76.75028 873.42884 78.357422 872.35742 C 79.964564 871.28596 79.429393 869.85717 79.072266 868.25 C 78.715123 866.64287 79.965138 862.00085 80.322266 860.57227 C 80.679408 859.14372 82.463739 857.1794 82.285156 854.32227 C 82.106585 851.46513 82.643137 852.53601 83.357422 851.10742 C 84.071726 849.67884 84.427734 848.60743 84.427734 847.35742 C 84.427734 846.10742 86.393137 838.60632 87.107422 835.92773 C 87.821707 833.24918 88.892872 832.714 89.25 830.39258 C 89.607143 828.07112 90.678568 827.35772 91.75 825.21484 C 92.01786 824.67913 92.207309 824.47824 92.330078 824.51172 z M 576.01367 944.63477 C 576.39314 944.6794 576.83955 945.30384 577.10742 946.10742 C 577.64313 947.71455 579.42773 951.10742 579.42773 951.10742 C 579.42773 951.10742 580.14387 954.6788 580.32227 957.35742 C 580.50085 960.03594 581.39368 960.75025 582.82227 963.60742 C 584.251 966.46452 584.07057 966.99962 584.42773 969.14258 C 584.7849 971.28538 586.75066 981.10805 586.57227 983.07227 C 586.39368 985.0366 585.67773 984.14258 585.67773 984.14258 L 584.25 989.67773 C 584.25 989.67773 583.53545 990.03607 582.64258 990.21484 C 582.64258 990.21481 582.46459 988.78538 582.10742 987.89258 C 581.75029 986.9997 581.57171 986.10687 580.85742 984.14258 C 580.14328 982.17828 581.39394 982.71485 580.67969 980.21484 C 579.96555 977.71491 579.60687 978.42778 580.14258 977.17773 C 580.67833 975.92777 579.60628 975.57139 578.17773 972 C 576.74915 968.42861 577.28487 969.85628 575.67773 968.42773 C 574.0706 966.99907 576.39283 967.17807 576.75 966.28516 C 577.10717 965.39236 575.85717 964.67774 575.5 963.42773 C 575.14287 962.17773 576.21355 961.64376 576.03516 959.32227 C 575.85661 957.00088 576.03542 957.17807 575.14258 955.03516 C 574.24955 952.8925 575.32227 954.32197 575.32227 952.71484 L 575.32227 946.64258 C 575.32227 945.12474 575.6342 944.59013 576.01367 944.63477 z "
       transform="scale(0.26458333)" />
  </g>
</svg>
