<?xml version="1.0" encoding="UTF-8" standalone="no"?>
<svg
   xmlns:dc="http://purl.org/dc/elements/1.1/"
   xmlns:cc="http://creativecommons.org/ns#"
   xmlns:rdf="http://www.w3.org/1999/02/22-rdf-syntax-ns#"
   xmlns:svg="http://www.w3.org/2000/svg"
   xmlns="http://www.w3.org/2000/svg"
   xmlns:sodipodi="http://sodipodi.sourceforge.net/DTD/sodipodi-0.dtd"
   xmlns:inkscape="http://www.inkscape.org/namespaces/inkscape"
   width="297mm"
   height="210mm"
   viewBox="0 0 297 210"
   version="1.1"
   id="svg8"
   inkscape:version="1.0.1 (3bc2e813f5, 2020-09-07)"
   sodipodi:docname="cotxe-electric-svg.svg">
  <defs
     id="defs2" />
  <sodipodi:namedview
     id="base"
     pagecolor="#ffffff"
     bordercolor="#666666"
     borderopacity="1.0"
     inkscape:pageopacity="0.0"
     inkscape:pageshadow="2"
     inkscape:zoom="0.35"
     inkscape:cx="400"
     inkscape:cy="560"
     inkscape:document-units="mm"
     inkscape:current-layer="layer1"
     inkscape:document-rotation="0"
     showgrid="false"
     inkscape:window-width="1920"
     inkscape:window-height="1017"
     inkscape:window-x="-8"
     inkscape:window-y="-8"
     inkscape:window-maximized="1" />
  <metadata
     id="metadata5">
    <rdf:RDF>
      <cc:Work
         rdf:about="">
        <dc:format>image/svg+xml</dc:format>
        <dc:type
           rdf:resource="http://purl.org/dc/dcmitype/StillImage" />
        <dc:title></dc:title>
      </cc:Work>
    </rdf:RDF>
  </metadata>
  <g
     inkscape:label="Capa 1"
     inkscape:groupmode="layer"
     id="layer1">
    <path
       style="fill:#000000;stroke-width:0.461708"
       d="m 28.477016,185.12573 c -1.211314,-1.53994 -1.225693,-3.59349 -0.03351,-4.78567 0.699559,-0.69956 1.539028,-0.92342 3.462813,-0.92342 h 2.539397 v -8.77246 -8.77246 h 1.385125 1.385126 V 97.001683 32.131653 h 22.85457 22.85457 v 17.31407 c 0,17.00626 0.0164,17.31406 0.92341,17.31406 0.91466,0 0.92342,0.30781 0.92342,32.44771 0,35.630187 -0.15374,33.680517 2.77535,35.195207 1.7378,0.89866 5.05477,0.88266 6.35873,-0.0307 2.12383,-1.4876 2.40863,-2.84058 2.40863,-11.44237 0,-6.73268 -0.11358,-8.09701 -0.69256,-8.31919 -0.38694,-0.14848 -0.69256,-0.83501 -0.69256,-1.55572 0,-1.04747 1.30076,-2.58855 6.919503,-8.19792 6.83443,-6.823047 6.93638,-6.901587 8.29304,-6.389507 1.09214,0.41224 1.48335,0.38615 1.90949,-0.12732 0.88985,-1.07219 3.13189,-0.74137 8.35663,1.23307 l 4.97178,1.878837 1.62713,-1.24108 c 0.89493,-0.682587 1.62714,-1.382267 1.62714,-1.554837 0,-0.17256 -2.44128,-0.55973 -5.42507,-0.86035 -8.80772,-0.88742 -11.71222,-1.9288 -13.55209,-4.85901 -1.21029,-1.92753 -1.05913,-6.69276 0.25848,-8.1487 2.01013,-2.22118 10.82797,-3.17484 14.06702,-1.52138 1.78807,0.91278 1.94911,1.17167 3.00355,4.82859 0.41808,1.44991 1.1995,3.62947 1.73652,4.84348 l 0.97639,2.20729 2.01166,-7.79189 c 1.10642,-4.28553 2.72491,-9.58163 3.59664,-11.7691 0.87174,-2.18747 2.33461,-5.95102 3.25082,-8.36345 3.51543,-9.25624 12.52301,-24.91681 15.22547,-26.471 1.17957,-0.67836 64.34888,-1.03287 72.19793,-0.40517 4.98638,0.39877 5.28966,0.48276 6.34992,1.75848 7.13001,8.57889 16.46828,29.24639 20.90544,46.268 l 1.72216,6.60648 1.06108,-2.26546 c 0.5836,-1.24599 1.42294,-3.58735 1.8652,-5.203 1.10684,-4.04346 2.15595,-4.77212 7.17318,-4.98209 4.39604,-0.18398 8.34206,0.73108 9.72037,2.25409 1.32314,1.46205 1.47727,6.22259 0.26402,8.15483 -1.83987,2.93021 -4.74437,3.97159 -13.55208,4.85901 -2.98379,0.30062 -5.42508,0.66611 -5.42508,0.81218 0,0.3148 6.32164,5.455687 9.1021,7.402017 2.34389,1.64074 3.0473,2.66282 4.80484,6.98158 1.16352,2.85911 1.44986,4.49415 2.08397,11.89987 0.77252,9.02226 0.6394,23.72556 -0.27421,30.28564 -0.24756,1.77757 -0.45691,7.24482 -0.46521,12.14943 -0.0142,8.39667 -0.0793,9.05731 -1.11405,11.31186 -2.11827,4.61527 -4.09426,5.39548 -13.66488,5.39548 -7.19012,0 -8.97781,-0.3384 -11.43862,-2.16532 -2.05219,-1.52355 -2.98444,-3.52291 -2.95093,-6.3287 l 0.0282,-2.35612 h -49.84572 -49.84571 v 2.13673 c 0,4.16629 -2.18314,7.04952 -6.24608,8.2491 -1.21099,0.35753 -4.43259,0.49405 -9.23417,0.39128 -8.48367,-0.18156 -9.59746,-0.56314 -11.99096,-4.10796 l -1.3856,-2.05207 -0.32122,-11.54271 c -0.17667,-6.34849 -0.5272,-13.30875 -0.77894,-15.46723 -0.92162,-7.9022 -0.4413,-25.92881 0.89691,-33.66082 0.23755,-1.37252 0.92851,-3.58022 1.53547,-4.90598 l 1.10356,-2.4105 -2.57207,-0.86536 c -1.41464,-0.47596 -2.9406,-1.25849 -3.39101,-1.73897 -0.7955,-0.84858 -0.96498,-0.72319 -5.91773,4.37831 l -5.098783,5.25191 v 7.0638 c 0,7.5261 -0.39113,9.3762 -2.446,11.56982 -3.20258,3.4188 -9.92553,3.04357 -12.72535,-0.71025 l -0.95919,-1.28603 -0.0146,14.16687 -0.0146,14.16687 1.2697,0.14609 1.2697,0.14609 0.12561,8.65704 0.12562,8.65703 h 1.99594 c 3.82,0 5.20088,4.01374 2.17907,6.33381 -0.55801,0.42842 -7.84847,0.56595 -30.59469,0.57713 l -29.86209,0.0147 z M 63.516817,99.656513 c 0.009,-0.31743 -0.50289,-0.57714 -1.13774,-0.57714 -1.57819,0 -1.45847,-0.43897 0.69256,-2.53939 1.01576,-0.99186 1.84684,-1.96899 1.84684,-2.1714 0,-0.2024 -1.13635,-0.368 -2.52521,-0.368 h -2.52521 l -1.70345,2.65482 c -0.9369,1.46016 -1.7051,2.9056 -1.70712,3.21209 -0.002,0.306497 -0.28069,0.663577 -0.61928,0.793497 -1.27277,0.48841 -0.54745,1.18863 1.23122,1.18863 1.01576,0 1.84684,0.0969 1.84684,0.21528 0,0.1184 -0.83108,1.50111 -1.84684,3.07268 -1.01576,1.57158 -1.83939,3.08492 -1.8303,3.36297 0.0224,0.68392 8.25677,-8.11387 8.27769,-8.844037 z m 79.499523,-9.81131 c 0.5317,0 1.06694,-0.49923 1.35909,-1.26765 0.88532,-2.32855 2.59571,-4.05871 5.32827,-5.38985 3.16436,-1.54149 3.38463,-1.80164 3.39402,-4.00845 0.004,-0.91445 0.5381,-2.66137 1.18713,-3.88204 1.01972,-1.91782 1.10689,-2.3961 0.6415,-3.51964 -0.31118,-0.75125 -0.46511,-2.75501 -0.36458,-4.74577 0.14611,-2.89338 0.35777,-3.64223 1.32077,-4.6729 2.18606,-2.33968 3.03888,-2.5248 11.62771,-2.52403 9.10751,9.3e-4 10.61521,0.4059 12.02663,3.23124 0.91085,1.82332 1.10603,7.00692 0.33973,9.02243 -0.3781,0.99448 -0.28233,1.53549 0.49421,2.79196 0.52975,0.85716 1.08084,2.69846 1.22464,4.09179 l 0.26146,2.53333 2.4237,0.70458 c 2.76887,0.80494 6.68229,4.0158 7.60268,6.23781 0.54144,1.30715 0.73681,1.39719 3.03144,1.39719 1.9395,0 2.93415,-0.29928 4.75365,-1.43034 l 2.30093,-1.43034 0.59973,-4.91815 c 0.38495,-3.15693 0.96537,-5.64159 1.6208,-6.93836 0.77825,-1.53978 0.91923,-2.28807 0.59282,-3.14659 -0.23553,-0.6195 -0.42747,-2.61917 -0.42652,-4.44371 10e-4,-2.5124 0.22782,-3.68816 0.93353,-4.84566 1.51368,-2.48273 3.08846,-2.85789 11.99615,-2.85789 6.99342,0 8.08812,0.10502 9.70781,0.93132 1.23149,0.62826 2.05186,1.47297 2.52101,2.59578 0.87654,2.09786 0.89831,6.63633 0.0417,8.68654 -0.59804,1.4313 -0.57819,1.63311 0.2328,2.36704 1.10718,1.00198 1.6727,3.10185 2.08194,7.73051 0.32168,3.63833 0.94369,4.9296 2.37462,4.9296 0.40573,0 1.79333,0.59153 3.08356,1.31451 2.5868,1.44952 8.25343,2.40591 7.88832,1.33136 -0.10618,-0.3125 -1.05487,-3.26917 -2.1082,-6.57039 -2.50596,-7.85387 -9.03313,-24.44076 -12.29089,-31.2337 l -2.57919,-5.37802 -7.90249,-0.28551 c -4.34636,-0.15703 -12.11001,-0.33402 -17.25254,-0.39333 l -9.35008,-0.10782 4.7e-4,3.57824 4.6e-4,3.57824 4.73251,0.007 c 2.60288,0.004 4.96112,0.15971 5.24053,0.34628 0.90597,0.60494 1.62816,2.42865 1.33167,3.36282 -0.65828,2.07406 -2.3155,2.34455 -13.44817,2.19499 -10.30073,-0.13839 -10.4147,-0.15081 -11.28765,-1.2298 -1.13146,-1.39852 -1.11819,-2.59818 0.0416,-3.75794 0.80615,-0.80616 1.53902,-0.92342 5.77135,-0.92342 h 4.84794 l 4.6e-4,-3.57824 4.6e-4,-3.57824 -9.35006,0.10782 c -5.14253,0.0593 -12.93139,0.23736 -17.30856,0.39567 l -7.95848,0.28783 -2.13253,4.45228 c -3.24913,6.78352 -8.70326,20.53964 -12.00174,30.27016 -1.62849,4.80407 -2.9609,8.82959 -2.9609,8.9456 0,0.11601 0.64928,0.0811 1.44284,-0.0776 0.79356,-0.15871 1.83755,-0.28856 2.31997,-0.28856 z M 56.607717,71.146013 v -2.07769 h -4.15537 -4.15538 v -2.30854 -2.30854 h 3.69367 3.69367 v -1.84683 -1.84684 h -3.69367 -3.69367 v -2.07769 -2.07768 h 3.92452 3.92452 v -2.07769 -2.07769 h -6.23306 -6.23306 v 10.38844 10.38844 h 6.46391 6.46392 z m 16.84887,-7.73707 c 1.77565,-5.39432 3.29954,-10.07966 3.38642,-10.41188 0.11761,-0.44974 -0.41218,-0.56767 -2.0742,-0.4617 l -2.23215,0.14232 -0.75747,2.30854 c -0.41661,1.2697 -1.438,4.86077 -2.26976,7.98016 -0.83177,3.11939 -1.65014,5.50873 -1.81862,5.30964 -0.16847,-0.19908 -1.21416,-3.84209 -2.32375,-8.09558 l -2.01744,-7.73362 h -2.21667 c -1.21918,0 -2.21668,0.18966 -2.21668,0.42146 0,0.23181 1.35049,4.80508 3.0011,10.16283 1.65061,5.35775 3.00111,9.84289 3.00111,9.96698 0,0.12409 1.19467,0.22405 2.65482,0.22215 l 2.65482,-0.004 3.22847,-9.80784 z"
       id="path847" />
  </g>
</svg>
