<?xml version="1.0" encoding="UTF-8" standalone="no"?>
<svg
   xmlns:dc="http://purl.org/dc/elements/1.1/"
   xmlns:cc="http://creativecommons.org/ns#"
   xmlns:rdf="http://www.w3.org/1999/02/22-rdf-syntax-ns#"
   xmlns:svg="http://www.w3.org/2000/svg"
   xmlns="http://www.w3.org/2000/svg"
   xmlns:sodipodi="http://sodipodi.sourceforge.net/DTD/sodipodi-0.dtd"
   xmlns:inkscape="http://www.inkscape.org/namespaces/inkscape"
   width="210mm"
   height="297mm"
   viewBox="0 0 210 297"
   version="1.1"
   id="svg8"
   inkscape:version="1.0.1 (3bc2e813f5, 2020-09-07)"
   sodipodi:docname="totoro1.svg">
  <defs
     id="defs2" />
  <sodipodi:namedview
     id="base"
     pagecolor="#ffffff"
     bordercolor="#666666"
     borderopacity="1.0"
     inkscape:pageopacity="0.0"
     inkscape:pageshadow="2"
     inkscape:zoom="0.35"
     inkscape:cx="400"
     inkscape:cy="560"
     inkscape:document-units="mm"
     inkscape:current-layer="layer1"
     inkscape:document-rotation="0"
     showgrid="false"
     inkscape:window-width="1920"
     inkscape:window-height="1017"
     inkscape:window-x="-8"
     inkscape:window-y="-8"
     inkscape:window-maximized="1" />
  <metadata
     id="metadata5">
    <rdf:RDF>
      <cc:Work
         rdf:about="">
        <dc:format>image/svg+xml</dc:format>
        <dc:type
           rdf:resource="http://purl.org/dc/dcmitype/StillImage" />
        <dc:title></dc:title>
      </cc:Work>
    </rdf:RDF>
  </metadata>
  <g
     inkscape:label="Capa 1"
     inkscape:groupmode="layer"
     id="layer1">
    <path
       style="fill:#000000;stroke-width:0.451348"
       d="m 49.904032,256.41123 c -0.12486,-0.32537 -0.0335,-1.10055 0.20301,-1.72262 0.94659,-2.48971 -0.80561,-2.75732 -5.23508,-0.79955 -1.29772,0.57357 -2.50661,0.89573 -2.68643,0.71592 -0.17981,-0.17982 -0.27955,-1.03064 -0.22162,-1.89071 0.1314,-1.9512 -0.63964,-2.03953 -3.79577,-0.43482 -3.35761,1.70715 -4.53687,0.8226 -1.96588,-1.47458 0.85038,-0.75982 1.27936,-1.49602 1.11403,-1.91187 -0.14787,-0.37194 -1.41852,-1.48869 -2.82367,-2.48165 -1.40515,-0.99297 -4.74799,-3.91188 -7.42853,-6.48649 -4.86317,-4.67096 -4.87617,-4.67948 -6.00646,-3.93888 l -1.13274,0.7422 v -2.26715 c 0,-2.58377 -0.76195,-3.01235 -1.99898,-1.12439 -1.16247,1.77414 -1.72764,0.85374 -0.70575,-1.14934 1.91201,-3.74784 0.5657,-5.54319 -1.7002,-2.26728 -0.68031,0.98354 -1.38925,1.79597 -1.57543,1.80539 -0.79033,0.04 -0.23858,-1.78989 1.01553,-3.36798 0.74473,-0.93712 1.35405,-1.84754 1.35405,-2.02316 0,-0.17562 -0.7652,-1.51866 -1.70043,-2.98453 -2.48394,-3.89328 -2.77259,-4.74398 -3.32775,-9.80741 -0.59718,-5.44673 -0.29158,-12.67278 0.74782,-17.68196 1.07318,-5.17206 4.23315,-14.51923 7.3527,-21.74927 1.47945,-3.42887 3.44124,-8.36693 4.35953,-10.97347 3.64725,-10.35261 4.48781,-12.5076 5.80961,-14.89448 2.3593,-4.26038 6.41703,-10.0165 9.52329,-13.50934 1.64054,-1.8447 2.9059,-3.57111 2.81191,-3.83645 -0.0942,-0.26608 -1.13042,-0.44803 -2.31033,-0.40568 -1.99042,0.0714 -2.12112,0.009 -1.8767,-0.9027 0.1445,-0.53871 0.2655,-1.30656 0.26889,-1.70634 0.003,-0.39979 0.51731,-1.4801 1.14204,-2.40069 1.13463,-1.67197 1.13502,-1.67625 0.3553,-3.87161 -0.67601,-1.90336 -0.70725,-2.55285 -0.23319,-4.84805 0.96424,-4.66836 0.8778,-4.94524 -1.79126,-5.73787 -3.18494,-0.94583 -6.64616,-0.87197 -10.72592,0.22887 -5.14404,1.38801 -6.89151,2.52068 -7.646,4.95596 -1.12628,3.63531 -1.3618,4.05032 -2.29849,4.05032 -0.5018,0 -0.91237,-0.21275 -0.91237,-0.47279 0,-0.26003 0.74161,-2.95119 1.64801,-5.98036 1.33271,-4.45383 1.66386,-6.32794 1.7308,-9.79538 0.0955,-4.948772 1.10554,-8.551635 3.98558,-14.217465 3.15894,-6.214512 10.47622,-12.532803 18.00628,-15.547988 6.7852,-2.716921 9.8449,-3.188851 23.20738,-3.579492 6.7345,-0.196878 13.63858,-0.190135 15.34239,0.01498 4.20045,0.505686 4.53517,0.34103 5.12983,-2.523421 0.49948,-2.406011 1.80113,-4.203797 2.65955,-3.673268 0.24954,0.154225 0.57927,1.240431 0.73273,2.413791 0.46634,3.565628 0.86174,4.14784 2.80581,4.13142 5.90252,-0.04985 27.329568,0.927105 29.013038,1.322825 8.16525,1.919357 15.3347,6.309349 18.9969,11.632173 0.74642,1.084883 1.62657,1.972517 1.9559,1.972517 0.32933,0 2.09676,-1.090971 3.92762,-2.424384 1.83085,-1.333413 4.63576,-3.081683 6.23312,-3.885042 3.6149,-1.818034 3.85303,-1.598385 4.27939,3.947296 0.33113,4.306827 -0.18588,9.021193 -1.36809,12.475026 -0.686,2.00418 -3.01057,4.809682 -5.79707,6.996432 -0.69724,0.54717 -0.76042,1.01594 -0.45626,3.38511 0.19417,1.5125 0.41065,4.4764 0.48105,6.58645 0.0704,2.11005 0.42942,4.6813 0.79779,5.71388 0.36838,1.03259 0.54986,1.99734 0.4033,2.14391 -0.67112,0.67111 -1.4864,0.0944 -2.83291,-2.00396 -0.85284,-1.32904 -2.2555,-2.73843 -3.38288,-3.39912 -2.69151,-1.57733 -7.84679,-2.59297 -11.74708,-2.3143 -4.03679,0.28843 -13.10454,2.44053 -13.98257,3.31856 -0.47672,0.47672 -0.66765,1.68828 -0.66765,4.23671 0,2.4538 -0.3086,4.50911 -0.98756,6.57739 l -0.98757,3.00833 1.21324,0.9674 c 0.66728,0.53207 1.21324,1.38434 1.21324,1.89394 0,0.5096 0.98312,2.56231 2.18473,4.56159 1.2016,1.99927 3.21578,6.3485 4.47595,9.66494 1.26018,3.31643 4.44514,10.65862 7.0777,16.31597 8.19249,17.6056 8.54224,19.23795 8.57807,40.03572 0.0209,12.1512 -0.11017,15.38471 -0.7639,18.84 -1.68411,8.90143 -4.75027,15.49365 -9.40107,20.21222 -1.71849,1.74353 -3.12452,3.38768 -3.12452,3.65367 0,0.26599 0.39322,0.83947 0.87382,1.27441 1.09175,0.98803 1.85585,3.09738 1.39317,3.846 -0.47142,0.76277 -2.1412,0.19228 -2.74626,-0.93828 -0.58012,-1.08396 -2.48921,-1.87466 -3.64248,-1.50862 -1.07101,0.33993 -1.05408,1.03971 0.0596,2.46349 0.48544,0.6206 0.88713,1.29439 0.89265,1.4973 0.0135,0.49715 -1.84658,-0.0974 -2.73358,-0.87366 -0.95869,-0.83905 -2.5122,-0.78983 -2.84994,0.0903 -0.15068,0.39266 -0.27396,1.4082 -0.27396,2.25674 0,1.77735 -0.41246,1.92991 -1.61755,0.5983 -1.62359,-1.79404 -2.1034,-1.83185 -10.90644,-0.85947 -5.300018,0.58544 -13.103248,1.03258 -20.875768,1.19623 -11.7848,0.24813 -12.86368,0.19965 -21.34834,-0.95929 -4.91495,-0.67135 -9.2406,-1.10386 -9.61255,-0.96113 -0.37195,0.14274 -0.88395,0.85523 -1.13776,1.58333 -0.50867,1.45917 -1.65804,2.16738 -2.01363,1.24073 z m 51.263508,-4.84375 c 10.44197,-0.97095 14.91233,-2.36147 18.64084,-5.79829 4.14044,-3.81652 9.03232,-12.64779 10.73446,-19.37884 0.68385,-2.70426 0.86628,-4.71421 0.7681,-8.46268 l -0.12876,-4.91608 -5.1905,-1.50216 c -12.52575,-3.62504 -17.29862,-5.30081 -22.95046,-8.05798 -4.983838,-2.43128 -6.591718,-3.47756 -9.305078,-6.05498 -1.80408,-1.7137 -3.48675,-3.11582 -3.73926,-3.11582 -0.63004,0 -0.91067,1.34654 -0.56439,2.70809 0.4968,1.95342 0.0371,2.83078 -1.30445,2.48923 -0.64788,-0.16496 -3.61525,-0.44983 -6.59414,-0.63305 -4.52233,-0.27815 -5.72612,-0.51251 -7.29418,-1.42005 l -1.87801,-1.08694 -2.50607,1.03871 c -1.37833,0.57129 -2.86896,0.96953 -3.3125,0.88498 -1.17109,-0.22325 -1.25966,-2.09739 -0.16885,-3.5728 1.1749,-1.58914 1.18258,-2.70814 0.0392,-5.71635 -1.04041,-2.73737 -1.22164,-8.19059 -0.367,-11.04314 0.83394,-2.78344 2.61229,-4.41069 4.82024,-4.41069 2.48246,0 2.87936,0.82819 2.06209,4.30277 -0.34841,1.48122 -0.63665,4.29343 -0.64053,6.24937 l -0.007,3.55625 2.59526,-0.26907 c 1.42738,-0.14798 3.50923,-0.088 4.62631,0.13334 1.11709,0.22131 2.17873,0.25989 2.35921,0.0857 0.18048,-0.17417 0.4657,-2.10622 0.63382,-4.29343 0.24321,-3.16409 0.47592,-4.08308 1.13874,-4.49702 0.70454,-0.43999 0.83229,-1.11277 0.82809,-4.36098 -0.008,-6.13229 -0.27735,-7.10004 -2.14856,-7.7176 -2.6267,-0.86689 -15.33537,-0.26872 -19.7218,0.92826 -7.57256,2.0664 -16.20372,6.47191 -23.93651,12.21762 -7.79398,5.79119 -8.82684,7.45588 -11.47148,18.4889 -3.39233,14.1523 -3.78319,16.50191 -3.79161,22.79308 -0.0141,10.5495 2.12408,14.14414 14.17068,23.82313 3.55896,2.85949 7.83961,4.24159 17.79229,5.74462 7.69654,1.16232 36.71699,1.70955 45.811828,0.86387 z m -7.576068,-26.40607 c -0.48758,-0.87127 0.57061,-5.22509 1.89015,-7.77679 1.00279,-1.9392 3.8674,-3.69716 6.015458,-3.69159 3.75739,0.01 8.41316,3.39495 9.59525,6.97674 0.76881,2.32951 -0.0931,5.20524 -1.56014,5.20524 -0.30348,0 -1.85269,-0.84725 -3.44268,-1.88279 -1.59,-1.03553 -3.20914,-1.86338 -3.59809,-1.83967 -0.38896,0.0237 -1.92245,0.75536 -3.407768,1.62588 -3.52665,2.06692 -4.91394,2.41625 -5.49218,1.38298 z m -24.13276,-2.70938 c -4.28406,-1.95679 -5.84068,-2.01026 -10.86721,-0.37331 -4.61452,1.50279 -5.28731,1.27727 -4.4527,-1.49256 0.7728,-2.56468 2.9393,-4.86745 6.03465,-6.41422 4.4363,-2.21684 9.09352,-1.57978 12.54911,1.7166 2.40227,2.29158 3.66417,7.27013 2.0042,7.90712 -1.15892,0.44471 -1.59789,0.33275 -5.26805,-1.34363 z m -32.83394,-24.4181 c 0,-5.52666 4.66998,-9.63278 10.93069,-9.61089 4.74219,0.0166 7.77401,1.94546 9.13904,5.81437 0.88039,2.49529 0.87478,3.48741 -0.0217,3.83141 -0.39266,0.15068 -2.59242,0.27396 -4.88836,0.27396 -2.29593,0 -6.39223,0.40313 -9.10288,0.89584 -2.71065,0.49272 -5.18234,0.89893 -5.49264,0.9027 -0.37203,0.005 -0.56419,-0.71324 -0.56419,-2.10739 z m 59.47448,-24.17678 c 4.240328,-2.13931 5.021718,-2.99172 3.77596,-4.11911 -1.30115,-1.17753 -6.9141,-2.92044 -8.05087,-2.49993 -0.96401,0.35662 -1.93447,2.71262 -1.9363,4.70081 -9.1e-4,0.95732 1.57398,3.83646 2.0985,3.83646 0.17083,0 2.02155,-0.8632 4.11271,-1.91823 z m 15.449288,-13.60491 c 2.42368,-1.19818 3.73851,-3.28818 4.49835,-7.15038 0.66257,-3.36776 0.33063,-5.40017 -1.3676,-8.37366 -1.87243,-3.27851 -3.25449,-3.91091 -8.54692,-3.91091 -4.84171,0 -6.194888,0.49551 -8.489238,3.10863 -1.44351,1.64407 -2.79447,5.3052 -2.79447,7.57308 0,1.64884 1.12444,4.34016 2.36509,5.66076 1.62125,1.72575 5.097018,3.72942 7.176128,4.13682 2.55871,0.50137 4.64876,0.19647 7.15866,-1.04434 z m -9.08333,-6.54781 c -1.91738,-1.55259 -1.11962,-5.9392 1.24351,-6.83767 3.75732,-1.42853 6.89811,3.71318 4.02388,6.58741 -1.36211,1.3621 -3.75398,1.47575 -5.26739,0.25026 z m -48.212768,5.58789 c 2.92144,-1.03074 4.73534,-2.64284 6.09069,-5.41309 1.36536,-2.79069 1.37468,-5.11022 0.0319,-7.93991 -0.84744,-1.78584 -4.22951,-4.52342 -6.55355,-5.30468 -2.15968,-0.72601 -7.24971,-0.64108 -9.51678,0.15879 -2.36247,0.83353 -5.30216,2.95538 -6.38822,4.61097 -1.98867,3.03155 -1.38741,8.58048 1.21133,11.17922 2.95465,2.95466 10.56467,4.31755 15.12463,2.7087 z m -6.31709,-6.42355 c -2.00599,-1.01945 -2.55923,-2.64094 -1.64645,-4.82553 1.44704,-3.46326 6.56173,-3.79014 8.11419,-0.51858 0.88988,1.8753 0.88968,1.81885 0.0134,3.66545 -1.12087,2.36205 -3.78079,3.05099 -6.48116,1.67866 z m 34.22467,-1.18866 c 2.48342,-2.53042 2.3792,-3.54809 -0.40637,-3.96768 -4.17803,-0.62935 -7.70607,0.40706 -7.06577,2.07566 0.22915,0.59717 4.69393,3.87124 5.27913,3.87124 0.13781,0 1.12467,-0.89065 2.19301,-1.97922 z m 11.69492,-27.58408 c 0.0791,-0.49648 0.27114,-1.20736 0.42669,-1.57972 0.15554,-0.37236 0.33935,-1.3879 0.40847,-2.25674 0.0691,-0.86885 0.25656,-2.56316 0.41654,-3.76514 0.15998,-1.20198 0.10105,-2.37524 -0.13095,-2.60725 -0.23201,-0.232 -1.4671,-0.54562 -2.74466,-0.69693 -2.16915,-0.2569 -2.35078,-0.20158 -2.74535,0.83622 -0.34898,0.91787 -0.71655,7.13737 -0.54971,9.30149 0.0558,0.72439 2.65838,1.91568 3.87701,1.77468 0.50177,-0.0581 0.96158,-0.50228 1.04196,-1.00661 z m -12.20993,-0.49697 c 1.51094,-0.18515 1.9596,-0.44396 2.12017,-1.22298 0.46995,-2.28016 0.63223,-6.08908 0.33945,-7.96756 -0.29088,-1.86627 -0.4375,-2.04377 -1.99146,-2.41085 -3.74475,-0.88458 -19.92086,2.44202 -21.57674,4.43723 -0.27874,0.33586 -0.44134,1.18147 -0.36134,1.87915 0.12715,1.1089 0.35862,1.28614 1.83974,1.40868 1.53264,0.12681 1.66868,0.24223 1.42586,1.20968 -0.2296,0.91481 -0.13193,1.0338 0.67529,0.82271 1.03343,-0.27025 1.21334,0.31673 0.50358,1.64293 -0.41967,0.78416 -0.0787,0.81341 7.33441,0.62913 4.27599,-0.1063 8.63696,-0.29895 9.69104,-0.42812 z m 66.813638,-22.54737 c 1.46792,-1.02817 1.3714,-3.455672 -0.18611,-4.680812 -1.52468,-1.199311 -2.77448,-1.185265 -4.08501,0.0459 -2.88347,2.70888 1.00167,6.924902 4.27112,4.634892 z m 5.40377,151.64605 c -1.47954,-0.80267 -1.53157,-1.14456 -0.33851,-2.22426 1.17442,-1.06283 1.13855,-1.64342 -0.22567,-3.65372 -1.97007,-2.90307 -1.71365,-4.27544 1.91404,-10.24403 2.91491,-4.79588 2.95958,-4.91797 2.90382,-7.93752 -0.0507,-2.74552 0.0856,-3.26009 1.30103,-4.91286 1.69976,-2.31132 4.84339,-3.92476 6.97351,-3.57908 0.83869,0.1361 2.16216,0.7191 2.94104,1.29554 1.25581,0.92943 2.08815,1.07848 7.35169,1.3165 5.264,0.23804 6.0897,0.1744 7.29806,-0.5625 2.51465,-1.53351 5.88771,-0.81654 7.84101,1.66668 0.50399,0.64072 1.1668,2.32041 1.47291,3.73264 0.41181,1.89988 1.13918,3.30905 2.7967,5.41821 4.33615,5.51765 5.37524,10.28765 3.22921,14.82398 -0.93342,1.9731 -1.04894,2.5912 -0.63042,3.37322 0.8105,1.51442 -0.20032,1.81123 -5.53093,1.62401 -4.94063,-0.17351 -6.23625,-0.61072 -6.23625,-2.10447 0,-0.69158 -0.89841,-0.7588 -9.81682,-0.73459 -5.39925,0.0147 -10.70963,-0.15638 -11.80085,-0.38008 l -1.98404,-0.40672 0.83194,1.40837 c 0.45757,0.7746 0.69224,1.54807 0.52149,1.71882 -1.06544,1.06544 -9.02506,1.3318 -10.81296,0.36186 z m 28.35661,-4.42158 c 7.61243,-0.67322 9.44379,-1.42407 9.44379,-3.87198 0,-2.38304 -0.95922,-2.65296 -4.82256,-1.35707 -4.76922,1.59975 -12.70009,1.52425 -18.99169,-0.1808 -2.42346,-0.65676 -4.51567,-1.19412 -4.64935,-1.19412 -0.32179,0 -1.55105,2.96279 -1.55105,3.73837 0,1.41353 6.90851,3.3858 11.96073,3.4146 1.2412,0.007 5.11577,-0.23997 8.61013,-0.549 z m 3.45393,-6.5201 c 3.28998,-1.15983 5.31284,-2.59689 5.31284,-3.77431 0,-0.72772 -0.21304,-0.86878 -1.01554,-0.67245 -2.54197,0.62187 -14.88945,1.28821 -21.07528,1.13734 -6.51817,-0.15898 -6.82367,-0.12722 -6.69969,0.69654 0.17105,1.13647 4.81435,2.88035 9.11025,3.42151 4.89889,0.61712 11.35363,0.25383 14.36742,-0.80863 z m 4.65737,-9.40241 c 1.99127,-2.14862 1.29207,-7.15468 -1.24777,-8.93365 -1.02638,-0.71891 -3.30728,-0.92821 -4.62109,-0.42406 -0.9265,0.35554 -2.05129,2.50352 -2.05129,3.91731 0,1.12304 2.11916,4.46615 3.70496,5.84482 1.30331,1.13307 2.93541,0.97648 4.21519,-0.40442 z m -4.68204,-2.55843 c -1.80972,-1.92636 -0.71237,-4.8229 1.82715,-4.8229 1.16383,0 2.60766,1.62438 2.60766,2.93376 0,1.31958 -1.44672,2.93376 -2.62941,2.93376 -0.45321,0 -1.26564,-0.47008 -1.8054,-1.04462 z m -18.43553,2.68571 c 2.43902,-1.01909 3.91372,-3.15819 3.91372,-5.67698 0,-2.69153 -1.16597,-4.31191 -3.635,-5.05165 -6.17821,-1.85104 -11.57422,6.41162 -6.40086,9.80134 2.32295,1.52205 4.06659,1.78615 6.12214,0.92729 z m -3.65876,-3.2464 c -1.93228,-1.35342 -0.91544,-4.71356 1.42642,-4.71356 1.17382,0 2.98663,1.52988 2.98663,2.52051 0,0.83879 -1.99803,2.89567 -2.81282,2.89567 -0.32841,0 -1.04852,-0.31618 -1.60023,-0.70262 z M 108.0688,62.954385 c -1.68774,-1.029073 -3.29048,-3.893142 -3.29048,-5.88006 0,-4.61866 4.86474,-10.132247 12.09374,-13.706775 2.43341,-1.203249 2.90592,-1.308553 3.29278,-0.733833 0.26752,0.397434 0.38825,3.247258 0.2961,6.989882 -0.13619,5.531646 -0.28551,6.571909 -1.19853,8.349939 -1.23686,2.408676 -2.96232,4.351802 -4.64485,5.230797 -1.74544,0.911858 -4.83683,0.793867 -6.54876,-0.24995 z m 8.63801,-3.884717 c 0.91342,-0.913423 0.9004,-1.942218 -0.0377,-2.97882 -1.41276,-1.561115 -3.31513,-0.739756 -3.31513,1.431341 0,2.109492 1.90953,2.990816 3.35287,1.547479 z m 26.42254,-12.041321 c -2.69698,-1.362471 -4.04858,-3.461448 -4.04858,-6.287279 0,-2.823736 0.76328,-4.577777 3.17378,-7.293478 3.27298,-3.687382 10.25168,-8.23291 12.09567,-7.87843 0.88852,0.170805 1.34704,2.606125 1.39698,7.419855 0.062,5.981755 -2.75161,12.349353 -6.24415,14.131112 -2.32977,1.188563 -3.88358,1.166189 -6.3737,-0.09178 z m 8.13782,-3.046599 c 1.54849,-1.548492 0.78447,-3.610784 -1.33769,-3.610784 -2.37073,0 -3.46618,2.043066 -1.97747,3.688082 0.97329,1.075466 2.19078,1.047079 3.31516,-0.0773 z"
       id="path847" />
  </g>
</svg>
