solid OpenSCAD_Model
  facet normal -1 0 0
    outer loop
      vertex 0 30 32
      vertex 0 36 36
      vertex 0 36 0
    endloop
  endfacet
  facet normal -1 0 0
    outer loop
      vertex 0 36 36
      vertex 0 32 34
      vertex 0 33 35
    endloop
  endfacet
  facet normal -1 0 0
    outer loop
      vertex 0 36 36
      vertex 0 31 33
      vertex 0 32 34
    endloop
  endfacet
  facet normal -1 0 0
    outer loop
      vertex 0 36 36
      vertex 0 30 32
      vertex 0 31 33
    endloop
  endfacet
  facet normal -1 0 0
    outer loop
      vertex 0 36 0
      vertex 0 29 31
      vertex 0 30 32
    endloop
  endfacet
  facet normal -1 0 0
    outer loop
      vertex 0 36 0
      vertex 0 28 30
      vertex 0 29 31
    endloop
  endfacet
  facet normal -1 0 0
    outer loop
      vertex 0 36 0
      vertex 0 27 29
      vertex 0 28 30
    endloop
  endfacet
  facet normal -1 0 0
    outer loop
      vertex 0 36 0
      vertex 0 26 28
      vertex 0 27 29
    endloop
  endfacet
  facet normal -1 0 0
    outer loop
      vertex 0 36 0
      vertex 0 25 27
      vertex 0 26 28
    endloop
  endfacet
  facet normal -1 0 0
    outer loop
      vertex 0 36 0
      vertex 0 24 26
      vertex 0 25 27
    endloop
  endfacet
  facet normal -1 0 0
    outer loop
      vertex 0 36 0
      vertex 0 23 25
      vertex 0 24 26
    endloop
  endfacet
  facet normal -1 0 0
    outer loop
      vertex 0 36 0
      vertex 0 22 24
      vertex 0 23 25
    endloop
  endfacet
  facet normal -1 0 0
    outer loop
      vertex 0 36 0
      vertex 0 21 23
      vertex 0 22 24
    endloop
  endfacet
  facet normal -1 0 0
    outer loop
      vertex 0 36 0
      vertex 0 20 22
      vertex 0 21 23
    endloop
  endfacet
  facet normal -1 0 0
    outer loop
      vertex 0 36 0
      vertex 0 19 21
      vertex 0 20 22
    endloop
  endfacet
  facet normal -1 0 0
    outer loop
      vertex 0 36 0
      vertex 0 18 20
      vertex 0 19 21
    endloop
  endfacet
  facet normal -1 0 0
    outer loop
      vertex 0 36 0
      vertex 0 17 19
      vertex 0 18 20
    endloop
  endfacet
  facet normal -1 0 0
    outer loop
      vertex 0 36 0
      vertex 0 16 18
      vertex 0 17 19
    endloop
  endfacet
  facet normal -1 0 0
    outer loop
      vertex 0 36 0
      vertex 0 15 17
      vertex 0 16 18
    endloop
  endfacet
  facet normal -1 0 0
    outer loop
      vertex 0 36 0
      vertex 0 14 16
      vertex 0 15 17
    endloop
  endfacet
  facet normal -1 0 0
    outer loop
      vertex 0 36 0
      vertex 0 13 15
      vertex 0 14 16
    endloop
  endfacet
  facet normal -1 0 0
    outer loop
      vertex 0 36 0
      vertex 0 12 14
      vertex 0 13 15
    endloop
  endfacet
  facet normal -1 0 0
    outer loop
      vertex 0 36 0
      vertex 0 11 13
      vertex 0 12 14
    endloop
  endfacet
  facet normal -1 0 0
    outer loop
      vertex 0 36 0
      vertex 0 10 12
      vertex 0 11 13
    endloop
  endfacet
  facet normal -1 0 0
    outer loop
      vertex 0 36 0
      vertex 0 9 11
      vertex 0 10 12
    endloop
  endfacet
  facet normal -1 0 0
    outer loop
      vertex 0 36 0
      vertex 0 8 10
      vertex 0 9 11
    endloop
  endfacet
  facet normal -1 0 0
    outer loop
      vertex 0 36 0
      vertex 0 7 9
      vertex 0 8 10
    endloop
  endfacet
  facet normal -1 0 0
    outer loop
      vertex 0 36 0
      vertex 0 6 8
      vertex 0 7 9
    endloop
  endfacet
  facet normal -1 0 0
    outer loop
      vertex 0 36 0
      vertex 0 5 7
      vertex 0 6 8
    endloop
  endfacet
  facet normal -1 0 0
    outer loop
      vertex 0 36 0
      vertex 0 4 6
      vertex 0 5 7
    endloop
  endfacet
  facet normal -1 0 0
    outer loop
      vertex 0 0 0
      vertex 0 4 6
      vertex 0 36 0
    endloop
  endfacet
  facet normal -1 0 0
    outer loop
      vertex 0 4 6
      vertex 0 0 0
      vertex 0 3 5
    endloop
  endfacet
  facet normal -1 0 0
    outer loop
      vertex 0 3 5
      vertex 0 0 0
      vertex 0 2 4
    endloop
  endfacet
  facet normal -1 0 0
    outer loop
      vertex 0 2 4
      vertex 0 0 0
      vertex 0 1 3
    endloop
  endfacet
  facet normal -1 -0 0
    outer loop
      vertex 0 1 3
      vertex 0 0 0
      vertex 0 0 3
    endloop
  endfacet
  facet normal -1 -0 0
    outer loop
      vertex 0 36 36
      vertex 0 33 35
      vertex 0 33 36
    endloop
  endfacet
  facet normal -1 -0 0
    outer loop
      vertex 0 33 35
      vertex 0 32 34
      vertex 0 32 35
    endloop
  endfacet
  facet normal -1 -0 0
    outer loop
      vertex 0 32 34
      vertex 0 31 33
      vertex 0 31 34
    endloop
  endfacet
  facet normal -1 -0 0
    outer loop
      vertex 0 31 33
      vertex 0 30 32
      vertex 0 30 33
    endloop
  endfacet
  facet normal -1 -0 0
    outer loop
      vertex 0 30 32
      vertex 0 29 31
      vertex 0 29 32
    endloop
  endfacet
  facet normal -1 -0 0
    outer loop
      vertex 0 29 31
      vertex 0 28 30
      vertex 0 28 31
    endloop
  endfacet
  facet normal -1 -0 0
    outer loop
      vertex 0 28 30
      vertex 0 27 29
      vertex 0 27 30
    endloop
  endfacet
  facet normal -1 -0 0
    outer loop
      vertex 0 27 29
      vertex 0 26 28
      vertex 0 26 29
    endloop
  endfacet
  facet normal -1 -0 0
    outer loop
      vertex 0 26 28
      vertex 0 25 27
      vertex 0 25 28
    endloop
  endfacet
  facet normal -1 -0 0
    outer loop
      vertex 0 25 27
      vertex 0 24 26
      vertex 0 24 27
    endloop
  endfacet
  facet normal -1 -0 0
    outer loop
      vertex 0 24 26
      vertex 0 23 25
      vertex 0 23 26
    endloop
  endfacet
  facet normal -1 -0 0
    outer loop
      vertex 0 23 25
      vertex 0 22 24
      vertex 0 22 25
    endloop
  endfacet
  facet normal -1 -0 0
    outer loop
      vertex 0 22 24
      vertex 0 21 23
      vertex 0 21 24
    endloop
  endfacet
  facet normal -1 -0 0
    outer loop
      vertex 0 21 23
      vertex 0 20 22
      vertex 0 20 23
    endloop
  endfacet
  facet normal -1 -0 0
    outer loop
      vertex 0 20 22
      vertex 0 19 21
      vertex 0 19 22
    endloop
  endfacet
  facet normal -1 -0 0
    outer loop
      vertex 0 19 21
      vertex 0 18 20
      vertex 0 18 21
    endloop
  endfacet
  facet normal -1 -0 0
    outer loop
      vertex 0 18 20
      vertex 0 17 19
      vertex 0 17 20
    endloop
  endfacet
  facet normal -1 -0 0
    outer loop
      vertex 0 17 19
      vertex 0 16 18
      vertex 0 16 19
    endloop
  endfacet
  facet normal -1 -0 0
    outer loop
      vertex 0 16 18
      vertex 0 15 17
      vertex 0 15 18
    endloop
  endfacet
  facet normal -1 -0 0
    outer loop
      vertex 0 15 17
      vertex 0 14 16
      vertex 0 14 17
    endloop
  endfacet
  facet normal -1 -0 0
    outer loop
      vertex 0 14 16
      vertex 0 13 15
      vertex 0 13 16
    endloop
  endfacet
  facet normal -1 -0 0
    outer loop
      vertex 0 13 15
      vertex 0 12 14
      vertex 0 12 15
    endloop
  endfacet
  facet normal -1 -0 0
    outer loop
      vertex 0 12 14
      vertex 0 11 13
      vertex 0 11 14
    endloop
  endfacet
  facet normal -1 -0 0
    outer loop
      vertex 0 11 13
      vertex 0 10 12
      vertex 0 10 13
    endloop
  endfacet
  facet normal -1 -0 0
    outer loop
      vertex 0 10 12
      vertex 0 9 11
      vertex 0 9 12
    endloop
  endfacet
  facet normal -1 -0 0
    outer loop
      vertex 0 9 11
      vertex 0 8 10
      vertex 0 8 11
    endloop
  endfacet
  facet normal -1 -0 0
    outer loop
      vertex 0 8 10
      vertex 0 7 9
      vertex 0 7 10
    endloop
  endfacet
  facet normal -1 -0 0
    outer loop
      vertex 0 7 9
      vertex 0 6 8
      vertex 0 6 9
    endloop
  endfacet
  facet normal -1 -0 0
    outer loop
      vertex 0 6 8
      vertex 0 5 7
      vertex 0 5 8
    endloop
  endfacet
  facet normal -1 -0 0
    outer loop
      vertex 0 5 7
      vertex 0 4 6
      vertex 0 4 7
    endloop
  endfacet
  facet normal -1 -0 0
    outer loop
      vertex 0 4 6
      vertex 0 3 5
      vertex 0 3 6
    endloop
  endfacet
  facet normal -1 -0 0
    outer loop
      vertex 0 3 5
      vertex 0 2 4
      vertex 0 2 5
    endloop
  endfacet
  facet normal -1 -0 0
    outer loop
      vertex 0 2 4
      vertex 0 1 3
      vertex 0 1 4
    endloop
  endfacet
  facet normal -0 0 1
    outer loop
      vertex 0 1 3
      vertex 8 0 3
      vertex 8 1 3
    endloop
  endfacet
  facet normal 0 0 1
    outer loop
      vertex 8 0 3
      vertex 0 1 3
      vertex 0 0 3
    endloop
  endfacet
  facet normal 1 0 0
    outer loop
      vertex 8 33 35
      vertex 8 36 36
      vertex 8 33 36
    endloop
  endfacet
  facet normal 1 0 0
    outer loop
      vertex 8 32 34
      vertex 8 36 36
      vertex 8 33 35
    endloop
  endfacet
  facet normal 1 0 0
    outer loop
      vertex 8 32 34
      vertex 8 33 35
      vertex 8 32 35
    endloop
  endfacet
  facet normal 1 0 0
    outer loop
      vertex 8 31 33
      vertex 8 36 36
      vertex 8 32 34
    endloop
  endfacet
  facet normal 1 0 0
    outer loop
      vertex 8 31 33
      vertex 8 32 34
      vertex 8 31 34
    endloop
  endfacet
  facet normal 1 0 0
    outer loop
      vertex 8 30 32
      vertex 8 36 36
      vertex 8 31 33
    endloop
  endfacet
  facet normal 1 0 0
    outer loop
      vertex 8 30 32
      vertex 8 31 33
      vertex 8 30 33
    endloop
  endfacet
  facet normal 1 0 0
    outer loop
      vertex 8 36 36
      vertex 8 30 32
      vertex 8 36 0
    endloop
  endfacet
  facet normal 1 0 0
    outer loop
      vertex 8 29 31
      vertex 8 30 32
      vertex 8 29 32
    endloop
  endfacet
  facet normal 1 0 0
    outer loop
      vertex 8 30 32
      vertex 8 29 31
      vertex 8 36 0
    endloop
  endfacet
  facet normal 1 0 0
    outer loop
      vertex 8 28 30
      vertex 8 29 31
      vertex 8 28 31
    endloop
  endfacet
  facet normal 1 0 0
    outer loop
      vertex 8 29 31
      vertex 8 28 30
      vertex 8 36 0
    endloop
  endfacet
  facet normal 1 0 0
    outer loop
      vertex 8 27 29
      vertex 8 28 30
      vertex 8 27 30
    endloop
  endfacet
  facet normal 1 0 0
    outer loop
      vertex 8 28 30
      vertex 8 27 29
      vertex 8 36 0
    endloop
  endfacet
  facet normal 1 0 0
    outer loop
      vertex 8 26 28
      vertex 8 27 29
      vertex 8 26 29
    endloop
  endfacet
  facet normal 1 0 0
    outer loop
      vertex 8 27 29
      vertex 8 26 28
      vertex 8 36 0
    endloop
  endfacet
  facet normal 1 0 0
    outer loop
      vertex 8 25 27
      vertex 8 26 28
      vertex 8 25 28
    endloop
  endfacet
  facet normal 1 0 0
    outer loop
      vertex 8 26 28
      vertex 8 25 27
      vertex 8 36 0
    endloop
  endfacet
  facet normal 1 0 0
    outer loop
      vertex 8 24 26
      vertex 8 25 27
      vertex 8 24 27
    endloop
  endfacet
  facet normal 1 0 0
    outer loop
      vertex 8 25 27
      vertex 8 24 26
      vertex 8 36 0
    endloop
  endfacet
  facet normal 1 0 0
    outer loop
      vertex 8 23 25
      vertex 8 24 26
      vertex 8 23 26
    endloop
  endfacet
  facet normal 1 0 0
    outer loop
      vertex 8 24 26
      vertex 8 23 25
      vertex 8 36 0
    endloop
  endfacet
  facet normal 1 0 0
    outer loop
      vertex 8 22 24
      vertex 8 23 25
      vertex 8 22 25
    endloop
  endfacet
  facet normal 1 0 0
    outer loop
      vertex 8 23 25
      vertex 8 22 24
      vertex 8 36 0
    endloop
  endfacet
  facet normal 1 0 0
    outer loop
      vertex 8 21 23
      vertex 8 22 24
      vertex 8 21 24
    endloop
  endfacet
  facet normal 1 0 0
    outer loop
      vertex 8 22 24
      vertex 8 21 23
      vertex 8 36 0
    endloop
  endfacet
  facet normal 1 0 0
    outer loop
      vertex 8 20 22
      vertex 8 21 23
      vertex 8 20 23
    endloop
  endfacet
  facet normal 1 0 0
    outer loop
      vertex 8 21 23
      vertex 8 20 22
      vertex 8 36 0
    endloop
  endfacet
  facet normal 1 0 0
    outer loop
      vertex 8 19 21
      vertex 8 20 22
      vertex 8 19 22
    endloop
  endfacet
  facet normal 1 0 0
    outer loop
      vertex 8 20 22
      vertex 8 19 21
      vertex 8 36 0
    endloop
  endfacet
  facet normal 1 0 0
    outer loop
      vertex 8 18 20
      vertex 8 19 21
      vertex 8 18 21
    endloop
  endfacet
  facet normal 1 0 0
    outer loop
      vertex 8 19 21
      vertex 8 18 20
      vertex 8 36 0
    endloop
  endfacet
  facet normal 1 0 0
    outer loop
      vertex 8 17 19
      vertex 8 18 20
      vertex 8 17 20
    endloop
  endfacet
  facet normal 1 0 0
    outer loop
      vertex 8 18 20
      vertex 8 17 19
      vertex 8 36 0
    endloop
  endfacet
  facet normal 1 0 0
    outer loop
      vertex 8 16 18
      vertex 8 17 19
      vertex 8 16 19
    endloop
  endfacet
  facet normal 1 0 0
    outer loop
      vertex 8 17 19
      vertex 8 16 18
      vertex 8 36 0
    endloop
  endfacet
  facet normal 1 0 0
    outer loop
      vertex 8 15 17
      vertex 8 16 18
      vertex 8 15 18
    endloop
  endfacet
  facet normal 1 0 0
    outer loop
      vertex 8 16 18
      vertex 8 15 17
      vertex 8 36 0
    endloop
  endfacet
  facet normal 1 0 0
    outer loop
      vertex 8 14 16
      vertex 8 15 17
      vertex 8 14 17
    endloop
  endfacet
  facet normal 1 0 0
    outer loop
      vertex 8 15 17
      vertex 8 14 16
      vertex 8 36 0
    endloop
  endfacet
  facet normal 1 0 0
    outer loop
      vertex 8 13 15
      vertex 8 14 16
      vertex 8 13 16
    endloop
  endfacet
  facet normal 1 0 0
    outer loop
      vertex 8 14 16
      vertex 8 13 15
      vertex 8 36 0
    endloop
  endfacet
  facet normal 1 0 0
    outer loop
      vertex 8 12 14
      vertex 8 13 15
      vertex 8 12 15
    endloop
  endfacet
  facet normal 1 0 0
    outer loop
      vertex 8 13 15
      vertex 8 12 14
      vertex 8 36 0
    endloop
  endfacet
  facet normal 1 0 0
    outer loop
      vertex 8 11 13
      vertex 8 12 14
      vertex 8 11 14
    endloop
  endfacet
  facet normal 1 0 0
    outer loop
      vertex 8 12 14
      vertex 8 11 13
      vertex 8 36 0
    endloop
  endfacet
  facet normal 1 0 0
    outer loop
      vertex 8 10 12
      vertex 8 11 13
      vertex 8 10 13
    endloop
  endfacet
  facet normal 1 0 0
    outer loop
      vertex 8 11 13
      vertex 8 10 12
      vertex 8 36 0
    endloop
  endfacet
  facet normal 1 0 0
    outer loop
      vertex 8 9 11
      vertex 8 10 12
      vertex 8 9 12
    endloop
  endfacet
  facet normal 1 0 0
    outer loop
      vertex 8 10 12
      vertex 8 9 11
      vertex 8 36 0
    endloop
  endfacet
  facet normal 1 0 0
    outer loop
      vertex 8 8 10
      vertex 8 9 11
      vertex 8 8 11
    endloop
  endfacet
  facet normal 1 0 0
    outer loop
      vertex 8 9 11
      vertex 8 8 10
      vertex 8 36 0
    endloop
  endfacet
  facet normal 1 0 0
    outer loop
      vertex 8 7 9
      vertex 8 8 10
      vertex 8 7 10
    endloop
  endfacet
  facet normal 1 0 0
    outer loop
      vertex 8 8 10
      vertex 8 7 9
      vertex 8 36 0
    endloop
  endfacet
  facet normal 1 0 0
    outer loop
      vertex 8 6 8
      vertex 8 7 9
      vertex 8 6 9
    endloop
  endfacet
  facet normal 1 0 0
    outer loop
      vertex 8 7 9
      vertex 8 6 8
      vertex 8 36 0
    endloop
  endfacet
  facet normal 1 0 0
    outer loop
      vertex 8 5 7
      vertex 8 6 8
      vertex 8 5 8
    endloop
  endfacet
  facet normal 1 0 0
    outer loop
      vertex 8 6 8
      vertex 8 5 7
      vertex 8 36 0
    endloop
  endfacet
  facet normal 1 0 0
    outer loop
      vertex 8 4 6
      vertex 8 5 7
      vertex 8 4 7
    endloop
  endfacet
  facet normal 1 0 0
    outer loop
      vertex 8 5 7
      vertex 8 4 6
      vertex 8 36 0
    endloop
  endfacet
  facet normal 1 0 0
    outer loop
      vertex 8 3 5
      vertex 8 4 6
      vertex 8 3 6
    endloop
  endfacet
  facet normal 1 0 0
    outer loop
      vertex 8 0 0
      vertex 8 4 6
      vertex 8 3 5
    endloop
  endfacet
  facet normal 1 0 0
    outer loop
      vertex 8 2 4
      vertex 8 3 5
      vertex 8 2 5
    endloop
  endfacet
  facet normal 1 0 0
    outer loop
      vertex 8 0 0
      vertex 8 3 5
      vertex 8 2 4
    endloop
  endfacet
  facet normal 1 0 0
    outer loop
      vertex 8 1 3
      vertex 8 2 4
      vertex 8 1 4
    endloop
  endfacet
  facet normal 1 0 0
    outer loop
      vertex 8 0 0
      vertex 8 2 4
      vertex 8 1 3
    endloop
  endfacet
  facet normal 1 0 0
    outer loop
      vertex 8 0 0
      vertex 8 1 3
      vertex 8 0 3
    endloop
  endfacet
  facet normal 1 0 0
    outer loop
      vertex 8 4 6
      vertex 8 0 0
      vertex 8 36 0
    endloop
  endfacet
  facet normal 0 0 -1
    outer loop
      vertex 0 0 0
      vertex 8 36 0
      vertex 8 0 0
    endloop
  endfacet
  facet normal -0 0 -1
    outer loop
      vertex 8 36 0
      vertex 0 0 0
      vertex 0 36 0
    endloop
  endfacet
  facet normal 0 -1 0
    outer loop
      vertex 0 0 0
      vertex 8 0 3
      vertex 0 0 3
    endloop
  endfacet
  facet normal 0 -1 -0
    outer loop
      vertex 8 0 3
      vertex 0 0 0
      vertex 8 0 0
    endloop
  endfacet
  facet normal -0 0 1
    outer loop
      vertex 0 2 4
      vertex 8 1 4
      vertex 8 2 4
    endloop
  endfacet
  facet normal 0 0 1
    outer loop
      vertex 8 1 4
      vertex 0 2 4
      vertex 0 1 4
    endloop
  endfacet
  facet normal 0 -1 0
    outer loop
      vertex 0 1 3
      vertex 8 1 4
      vertex 0 1 4
    endloop
  endfacet
  facet normal 0 -1 -0
    outer loop
      vertex 8 1 4
      vertex 0 1 3
      vertex 8 1 3
    endloop
  endfacet
  facet normal -0 0 1
    outer loop
      vertex 0 3 5
      vertex 8 2 5
      vertex 8 3 5
    endloop
  endfacet
  facet normal 0 0 1
    outer loop
      vertex 8 2 5
      vertex 0 3 5
      vertex 0 2 5
    endloop
  endfacet
  facet normal 0 -1 0
    outer loop
      vertex 0 2 4
      vertex 8 2 5
      vertex 0 2 5
    endloop
  endfacet
  facet normal 0 -1 -0
    outer loop
      vertex 8 2 5
      vertex 0 2 4
      vertex 8 2 4
    endloop
  endfacet
  facet normal -0 0 1
    outer loop
      vertex 0 4 6
      vertex 8 3 6
      vertex 8 4 6
    endloop
  endfacet
  facet normal 0 0 1
    outer loop
      vertex 8 3 6
      vertex 0 4 6
      vertex 0 3 6
    endloop
  endfacet
  facet normal 0 -1 0
    outer loop
      vertex 0 3 5
      vertex 8 3 6
      vertex 0 3 6
    endloop
  endfacet
  facet normal 0 -1 -0
    outer loop
      vertex 8 3 6
      vertex 0 3 5
      vertex 8 3 5
    endloop
  endfacet
  facet normal -0 0 1
    outer loop
      vertex 0 5 7
      vertex 8 4 7
      vertex 8 5 7
    endloop
  endfacet
  facet normal 0 0 1
    outer loop
      vertex 8 4 7
      vertex 0 5 7
      vertex 0 4 7
    endloop
  endfacet
  facet normal 0 -1 0
    outer loop
      vertex 0 4 6
      vertex 8 4 7
      vertex 0 4 7
    endloop
  endfacet
  facet normal 0 -1 -0
    outer loop
      vertex 8 4 7
      vertex 0 4 6
      vertex 8 4 6
    endloop
  endfacet
  facet normal -0 0 1
    outer loop
      vertex 0 6 8
      vertex 8 5 8
      vertex 8 6 8
    endloop
  endfacet
  facet normal 0 0 1
    outer loop
      vertex 8 5 8
      vertex 0 6 8
      vertex 0 5 8
    endloop
  endfacet
  facet normal 0 -1 0
    outer loop
      vertex 0 5 7
      vertex 8 5 8
      vertex 0 5 8
    endloop
  endfacet
  facet normal 0 -1 -0
    outer loop
      vertex 8 5 8
      vertex 0 5 7
      vertex 8 5 7
    endloop
  endfacet
  facet normal -0 0 1
    outer loop
      vertex 0 7 9
      vertex 8 6 9
      vertex 8 7 9
    endloop
  endfacet
  facet normal 0 0 1
    outer loop
      vertex 8 6 9
      vertex 0 7 9
      vertex 0 6 9
    endloop
  endfacet
  facet normal 0 -1 0
    outer loop
      vertex 0 6 8
      vertex 8 6 9
      vertex 0 6 9
    endloop
  endfacet
  facet normal 0 -1 -0
    outer loop
      vertex 8 6 9
      vertex 0 6 8
      vertex 8 6 8
    endloop
  endfacet
  facet normal -0 0 1
    outer loop
      vertex 0 8 10
      vertex 8 7 10
      vertex 8 8 10
    endloop
  endfacet
  facet normal 0 0 1
    outer loop
      vertex 8 7 10
      vertex 0 8 10
      vertex 0 7 10
    endloop
  endfacet
  facet normal 0 -1 0
    outer loop
      vertex 0 7 9
      vertex 8 7 10
      vertex 0 7 10
    endloop
  endfacet
  facet normal 0 -1 -0
    outer loop
      vertex 8 7 10
      vertex 0 7 9
      vertex 8 7 9
    endloop
  endfacet
  facet normal -0 0 1
    outer loop
      vertex 0 9 11
      vertex 8 8 11
      vertex 8 9 11
    endloop
  endfacet
  facet normal 0 0 1
    outer loop
      vertex 8 8 11
      vertex 0 9 11
      vertex 0 8 11
    endloop
  endfacet
  facet normal 0 -1 0
    outer loop
      vertex 0 8 10
      vertex 8 8 11
      vertex 0 8 11
    endloop
  endfacet
  facet normal 0 -1 -0
    outer loop
      vertex 8 8 11
      vertex 0 8 10
      vertex 8 8 10
    endloop
  endfacet
  facet normal -0 0 1
    outer loop
      vertex 0 10 12
      vertex 8 9 12
      vertex 8 10 12
    endloop
  endfacet
  facet normal 0 0 1
    outer loop
      vertex 8 9 12
      vertex 0 10 12
      vertex 0 9 12
    endloop
  endfacet
  facet normal 0 -1 0
    outer loop
      vertex 0 9 11
      vertex 8 9 12
      vertex 0 9 12
    endloop
  endfacet
  facet normal 0 -1 -0
    outer loop
      vertex 8 9 12
      vertex 0 9 11
      vertex 8 9 11
    endloop
  endfacet
  facet normal -0 0 1
    outer loop
      vertex 0 11 13
      vertex 8 10 13
      vertex 8 11 13
    endloop
  endfacet
  facet normal 0 0 1
    outer loop
      vertex 8 10 13
      vertex 0 11 13
      vertex 0 10 13
    endloop
  endfacet
  facet normal 0 -1 0
    outer loop
      vertex 0 10 12
      vertex 8 10 13
      vertex 0 10 13
    endloop
  endfacet
  facet normal 0 -1 -0
    outer loop
      vertex 8 10 13
      vertex 0 10 12
      vertex 8 10 12
    endloop
  endfacet
  facet normal -0 0 1
    outer loop
      vertex 0 12 14
      vertex 8 11 14
      vertex 8 12 14
    endloop
  endfacet
  facet normal 0 0 1
    outer loop
      vertex 8 11 14
      vertex 0 12 14
      vertex 0 11 14
    endloop
  endfacet
  facet normal 0 -1 0
    outer loop
      vertex 0 11 13
      vertex 8 11 14
      vertex 0 11 14
    endloop
  endfacet
  facet normal 0 -1 -0
    outer loop
      vertex 8 11 14
      vertex 0 11 13
      vertex 8 11 13
    endloop
  endfacet
  facet normal -0 0 1
    outer loop
      vertex 0 13 15
      vertex 8 12 15
      vertex 8 13 15
    endloop
  endfacet
  facet normal 0 0 1
    outer loop
      vertex 8 12 15
      vertex 0 13 15
      vertex 0 12 15
    endloop
  endfacet
  facet normal 0 -1 0
    outer loop
      vertex 0 12 14
      vertex 8 12 15
      vertex 0 12 15
    endloop
  endfacet
  facet normal 0 -1 -0
    outer loop
      vertex 8 12 15
      vertex 0 12 14
      vertex 8 12 14
    endloop
  endfacet
  facet normal -0 0 1
    outer loop
      vertex 0 14 16
      vertex 8 13 16
      vertex 8 14 16
    endloop
  endfacet
  facet normal 0 0 1
    outer loop
      vertex 8 13 16
      vertex 0 14 16
      vertex 0 13 16
    endloop
  endfacet
  facet normal 0 -1 0
    outer loop
      vertex 0 13 15
      vertex 8 13 16
      vertex 0 13 16
    endloop
  endfacet
  facet normal 0 -1 -0
    outer loop
      vertex 8 13 16
      vertex 0 13 15
      vertex 8 13 15
    endloop
  endfacet
  facet normal -0 0 1
    outer loop
      vertex 0 15 17
      vertex 8 14 17
      vertex 8 15 17
    endloop
  endfacet
  facet normal 0 0 1
    outer loop
      vertex 8 14 17
      vertex 0 15 17
      vertex 0 14 17
    endloop
  endfacet
  facet normal 0 -1 0
    outer loop
      vertex 0 14 16
      vertex 8 14 17
      vertex 0 14 17
    endloop
  endfacet
  facet normal 0 -1 -0
    outer loop
      vertex 8 14 17
      vertex 0 14 16
      vertex 8 14 16
    endloop
  endfacet
  facet normal -0 0 1
    outer loop
      vertex 0 16 18
      vertex 8 15 18
      vertex 8 16 18
    endloop
  endfacet
  facet normal 0 0 1
    outer loop
      vertex 8 15 18
      vertex 0 16 18
      vertex 0 15 18
    endloop
  endfacet
  facet normal 0 -1 0
    outer loop
      vertex 0 15 17
      vertex 8 15 18
      vertex 0 15 18
    endloop
  endfacet
  facet normal 0 -1 -0
    outer loop
      vertex 8 15 18
      vertex 0 15 17
      vertex 8 15 17
    endloop
  endfacet
  facet normal -0 0 1
    outer loop
      vertex 0 17 19
      vertex 8 16 19
      vertex 8 17 19
    endloop
  endfacet
  facet normal 0 0 1
    outer loop
      vertex 8 16 19
      vertex 0 17 19
      vertex 0 16 19
    endloop
  endfacet
  facet normal 0 -1 0
    outer loop
      vertex 0 16 18
      vertex 8 16 19
      vertex 0 16 19
    endloop
  endfacet
  facet normal 0 -1 -0
    outer loop
      vertex 8 16 19
      vertex 0 16 18
      vertex 8 16 18
    endloop
  endfacet
  facet normal -0 0 1
    outer loop
      vertex 0 18 20
      vertex 8 17 20
      vertex 8 18 20
    endloop
  endfacet
  facet normal 0 0 1
    outer loop
      vertex 8 17 20
      vertex 0 18 20
      vertex 0 17 20
    endloop
  endfacet
  facet normal 0 -1 0
    outer loop
      vertex 0 17 19
      vertex 8 17 20
      vertex 0 17 20
    endloop
  endfacet
  facet normal 0 -1 -0
    outer loop
      vertex 8 17 20
      vertex 0 17 19
      vertex 8 17 19
    endloop
  endfacet
  facet normal -0 0 1
    outer loop
      vertex 0 19 21
      vertex 8 18 21
      vertex 8 19 21
    endloop
  endfacet
  facet normal 0 0 1
    outer loop
      vertex 8 18 21
      vertex 0 19 21
      vertex 0 18 21
    endloop
  endfacet
  facet normal 0 -1 0
    outer loop
      vertex 0 18 20
      vertex 8 18 21
      vertex 0 18 21
    endloop
  endfacet
  facet normal 0 -1 -0
    outer loop
      vertex 8 18 21
      vertex 0 18 20
      vertex 8 18 20
    endloop
  endfacet
  facet normal -0 0 1
    outer loop
      vertex 0 20 22
      vertex 8 19 22
      vertex 8 20 22
    endloop
  endfacet
  facet normal 0 0 1
    outer loop
      vertex 8 19 22
      vertex 0 20 22
      vertex 0 19 22
    endloop
  endfacet
  facet normal 0 -1 0
    outer loop
      vertex 0 19 21
      vertex 8 19 22
      vertex 0 19 22
    endloop
  endfacet
  facet normal 0 -1 -0
    outer loop
      vertex 8 19 22
      vertex 0 19 21
      vertex 8 19 21
    endloop
  endfacet
  facet normal -0 0 1
    outer loop
      vertex 0 21 23
      vertex 8 20 23
      vertex 8 21 23
    endloop
  endfacet
  facet normal 0 0 1
    outer loop
      vertex 8 20 23
      vertex 0 21 23
      vertex 0 20 23
    endloop
  endfacet
  facet normal 0 -1 0
    outer loop
      vertex 0 20 22
      vertex 8 20 23
      vertex 0 20 23
    endloop
  endfacet
  facet normal 0 -1 -0
    outer loop
      vertex 8 20 23
      vertex 0 20 22
      vertex 8 20 22
    endloop
  endfacet
  facet normal -0 0 1
    outer loop
      vertex 0 22 24
      vertex 8 21 24
      vertex 8 22 24
    endloop
  endfacet
  facet normal 0 0 1
    outer loop
      vertex 8 21 24
      vertex 0 22 24
      vertex 0 21 24
    endloop
  endfacet
  facet normal 0 -1 0
    outer loop
      vertex 0 21 23
      vertex 8 21 24
      vertex 0 21 24
    endloop
  endfacet
  facet normal 0 -1 -0
    outer loop
      vertex 8 21 24
      vertex 0 21 23
      vertex 8 21 23
    endloop
  endfacet
  facet normal -0 0 1
    outer loop
      vertex 0 23 25
      vertex 8 22 25
      vertex 8 23 25
    endloop
  endfacet
  facet normal 0 0 1
    outer loop
      vertex 8 22 25
      vertex 0 23 25
      vertex 0 22 25
    endloop
  endfacet
  facet normal 0 -1 0
    outer loop
      vertex 0 22 24
      vertex 8 22 25
      vertex 0 22 25
    endloop
  endfacet
  facet normal 0 -1 -0
    outer loop
      vertex 8 22 25
      vertex 0 22 24
      vertex 8 22 24
    endloop
  endfacet
  facet normal -0 0 1
    outer loop
      vertex 0 24 26
      vertex 8 23 26
      vertex 8 24 26
    endloop
  endfacet
  facet normal 0 0 1
    outer loop
      vertex 8 23 26
      vertex 0 24 26
      vertex 0 23 26
    endloop
  endfacet
  facet normal 0 -1 0
    outer loop
      vertex 0 23 25
      vertex 8 23 26
      vertex 0 23 26
    endloop
  endfacet
  facet normal 0 -1 -0
    outer loop
      vertex 8 23 26
      vertex 0 23 25
      vertex 8 23 25
    endloop
  endfacet
  facet normal -0 0 1
    outer loop
      vertex 0 25 27
      vertex 8 24 27
      vertex 8 25 27
    endloop
  endfacet
  facet normal 0 0 1
    outer loop
      vertex 8 24 27
      vertex 0 25 27
      vertex 0 24 27
    endloop
  endfacet
  facet normal 0 -1 0
    outer loop
      vertex 0 24 26
      vertex 8 24 27
      vertex 0 24 27
    endloop
  endfacet
  facet normal 0 -1 -0
    outer loop
      vertex 8 24 27
      vertex 0 24 26
      vertex 8 24 26
    endloop
  endfacet
  facet normal -0 0 1
    outer loop
      vertex 0 26 28
      vertex 8 25 28
      vertex 8 26 28
    endloop
  endfacet
  facet normal 0 0 1
    outer loop
      vertex 8 25 28
      vertex 0 26 28
      vertex 0 25 28
    endloop
  endfacet
  facet normal 0 -1 0
    outer loop
      vertex 0 25 27
      vertex 8 25 28
      vertex 0 25 28
    endloop
  endfacet
  facet normal 0 -1 -0
    outer loop
      vertex 8 25 28
      vertex 0 25 27
      vertex 8 25 27
    endloop
  endfacet
  facet normal -0 0 1
    outer loop
      vertex 0 27 29
      vertex 8 26 29
      vertex 8 27 29
    endloop
  endfacet
  facet normal 0 0 1
    outer loop
      vertex 8 26 29
      vertex 0 27 29
      vertex 0 26 29
    endloop
  endfacet
  facet normal 0 -1 0
    outer loop
      vertex 0 26 28
      vertex 8 26 29
      vertex 0 26 29
    endloop
  endfacet
  facet normal 0 -1 -0
    outer loop
      vertex 8 26 29
      vertex 0 26 28
      vertex 8 26 28
    endloop
  endfacet
  facet normal -0 0 1
    outer loop
      vertex 0 28 30
      vertex 8 27 30
      vertex 8 28 30
    endloop
  endfacet
  facet normal 0 0 1
    outer loop
      vertex 8 27 30
      vertex 0 28 30
      vertex 0 27 30
    endloop
  endfacet
  facet normal 0 -1 0
    outer loop
      vertex 0 27 29
      vertex 8 27 30
      vertex 0 27 30
    endloop
  endfacet
  facet normal 0 -1 -0
    outer loop
      vertex 8 27 30
      vertex 0 27 29
      vertex 8 27 29
    endloop
  endfacet
  facet normal -0 0 1
    outer loop
      vertex 0 29 31
      vertex 8 28 31
      vertex 8 29 31
    endloop
  endfacet
  facet normal 0 0 1
    outer loop
      vertex 8 28 31
      vertex 0 29 31
      vertex 0 28 31
    endloop
  endfacet
  facet normal 0 -1 0
    outer loop
      vertex 0 28 30
      vertex 8 28 31
      vertex 0 28 31
    endloop
  endfacet
  facet normal 0 -1 -0
    outer loop
      vertex 8 28 31
      vertex 0 28 30
      vertex 8 28 30
    endloop
  endfacet
  facet normal -0 0 1
    outer loop
      vertex 0 30 32
      vertex 8 29 32
      vertex 8 30 32
    endloop
  endfacet
  facet normal 0 0 1
    outer loop
      vertex 8 29 32
      vertex 0 30 32
      vertex 0 29 32
    endloop
  endfacet
  facet normal 0 -1 0
    outer loop
      vertex 0 29 31
      vertex 8 29 32
      vertex 0 29 32
    endloop
  endfacet
  facet normal 0 -1 -0
    outer loop
      vertex 8 29 32
      vertex 0 29 31
      vertex 8 29 31
    endloop
  endfacet
  facet normal -0 0 1
    outer loop
      vertex 0 31 33
      vertex 8 30 33
      vertex 8 31 33
    endloop
  endfacet
  facet normal 0 0 1
    outer loop
      vertex 8 30 33
      vertex 0 31 33
      vertex 0 30 33
    endloop
  endfacet
  facet normal 0 -1 0
    outer loop
      vertex 0 30 32
      vertex 8 30 33
      vertex 0 30 33
    endloop
  endfacet
  facet normal 0 -1 -0
    outer loop
      vertex 8 30 33
      vertex 0 30 32
      vertex 8 30 32
    endloop
  endfacet
  facet normal -0 0 1
    outer loop
      vertex 0 32 34
      vertex 8 31 34
      vertex 8 32 34
    endloop
  endfacet
  facet normal 0 0 1
    outer loop
      vertex 8 31 34
      vertex 0 32 34
      vertex 0 31 34
    endloop
  endfacet
  facet normal 0 -1 0
    outer loop
      vertex 0 31 33
      vertex 8 31 34
      vertex 0 31 34
    endloop
  endfacet
  facet normal 0 -1 -0
    outer loop
      vertex 8 31 34
      vertex 0 31 33
      vertex 8 31 33
    endloop
  endfacet
  facet normal -0 0 1
    outer loop
      vertex 0 33 35
      vertex 8 32 35
      vertex 8 33 35
    endloop
  endfacet
  facet normal 0 0 1
    outer loop
      vertex 8 32 35
      vertex 0 33 35
      vertex 0 32 35
    endloop
  endfacet
  facet normal 0 -1 0
    outer loop
      vertex 0 32 34
      vertex 8 32 35
      vertex 0 32 35
    endloop
  endfacet
  facet normal 0 -1 -0
    outer loop
      vertex 8 32 35
      vertex 0 32 34
      vertex 8 32 34
    endloop
  endfacet
  facet normal -0 0 1
    outer loop
      vertex 0 36 36
      vertex 8 33 36
      vertex 8 36 36
    endloop
  endfacet
  facet normal 0 0 1
    outer loop
      vertex 8 33 36
      vertex 0 36 36
      vertex 0 33 36
    endloop
  endfacet
  facet normal 0 1 -0
    outer loop
      vertex 8 36 0
      vertex 0 36 36
      vertex 8 36 36
    endloop
  endfacet
  facet normal 0 1 0
    outer loop
      vertex 0 36 36
      vertex 8 36 0
      vertex 0 36 0
    endloop
  endfacet
  facet normal 0 -1 0
    outer loop
      vertex 0 33 35
      vertex 8 33 36
      vertex 0 33 36
    endloop
  endfacet
  facet normal 0 -1 -0
    outer loop
      vertex 8 33 36
      vertex 0 33 35
      vertex 8 33 35
    endloop
  endfacet
endsolid OpenSCAD_Model
