solid OpenSCAD_Model
  facet normal -1 0 0
    outer loop
      vertex 0 0 0
      vertex 0 1 1
      vertex 0 1 0
    endloop
  endfacet
  facet normal -1 -0 0
    outer loop
      vertex 0 1 1
      vertex 0 0 0
      vertex 0 0 1
    endloop
  endfacet
  facet normal -0 0 1
    outer loop
      vertex 0 1 1
      vertex 1 0 1
      vertex 1 1 1
    endloop
  endfacet
  facet normal 0 0 1
    outer loop
      vertex 1 0 1
      vertex 0 1 1
      vertex 0 0 1
    endloop
  endfacet
  facet normal 1 -0 0
    outer loop
      vertex 1 0 1
      vertex 1 1 0
      vertex 1 1 1
    endloop
  endfacet
  facet normal 1 0 0
    outer loop
      vertex 1 1 0
      vertex 1 0 1
      vertex 1 0 0
    endloop
  endfacet
  facet normal 0 0 -1
    outer loop
      vertex 0 0 0
      vertex 1 1 0
      vertex 1 0 0
    endloop
  endfacet
  facet normal -0 0 -1
    outer loop
      vertex 1 1 0
      vertex 0 0 0
      vertex 0 1 0
    endloop
  endfacet
  facet normal 0 -1 0
    outer loop
      vertex 0 0 0
      vertex 1 0 1
      vertex 0 0 1
    endloop
  endfacet
  facet normal 0 -1 -0
    outer loop
      vertex 1 0 1
      vertex 0 0 0
      vertex 1 0 0
    endloop
  endfacet
  facet normal 0 1 -0
    outer loop
      vertex 1 1 0
      vertex 0 1 1
      vertex 1 1 1
    endloop
  endfacet
  facet normal 0 1 0
    outer loop
      vertex 0 1 1
      vertex 1 1 0
      vertex 0 1 0
    endloop
  endfacet
  facet normal -1 0 0
    outer loop
      vertex 0 1 1
      vertex 0 2 2
      vertex 0 2 1
    endloop
  endfacet
  facet normal -1 -0 0
    outer loop
      vertex 0 2 2
      vertex 0 1 1
      vertex 0 1 2
    endloop
  endfacet
  facet normal -0 0 1
    outer loop
      vertex 0 2 2
      vertex 1 1 2
      vertex 1 2 2
    endloop
  endfacet
  facet normal 0 0 1
    outer loop
      vertex 1 1 2
      vertex 0 2 2
      vertex 0 1 2
    endloop
  endfacet
  facet normal 1 -0 0
    outer loop
      vertex 1 1 2
      vertex 1 2 1
      vertex 1 2 2
    endloop
  endfacet
  facet normal 1 0 0
    outer loop
      vertex 1 2 1
      vertex 1 1 2
      vertex 1 1 1
    endloop
  endfacet
  facet normal 0 0 -1
    outer loop
      vertex 0 1 1
      vertex 1 2 1
      vertex 1 1 1
    endloop
  endfacet
  facet normal -0 0 -1
    outer loop
      vertex 1 2 1
      vertex 0 1 1
      vertex 0 2 1
    endloop
  endfacet
  facet normal 0 -1 0
    outer loop
      vertex 0 1 1
      vertex 1 1 2
      vertex 0 1 2
    endloop
  endfacet
  facet normal 0 -1 -0
    outer loop
      vertex 1 1 2
      vertex 0 1 1
      vertex 1 1 1
    endloop
  endfacet
  facet normal 0 1 -0
    outer loop
      vertex 1 2 1
      vertex 0 2 2
      vertex 1 2 2
    endloop
  endfacet
  facet normal 0 1 0
    outer loop
      vertex 0 2 2
      vertex 1 2 1
      vertex 0 2 1
    endloop
  endfacet
  facet normal -1 0 0
    outer loop
      vertex 0 2 2
      vertex 0 3 3
      vertex 0 3 2
    endloop
  endfacet
  facet normal -1 -0 0
    outer loop
      vertex 0 3 3
      vertex 0 2 2
      vertex 0 2 3
    endloop
  endfacet
  facet normal -0 0 1
    outer loop
      vertex 0 3 3
      vertex 1 2 3
      vertex 1 3 3
    endloop
  endfacet
  facet normal 0 0 1
    outer loop
      vertex 1 2 3
      vertex 0 3 3
      vertex 0 2 3
    endloop
  endfacet
  facet normal 1 -0 0
    outer loop
      vertex 1 2 3
      vertex 1 3 2
      vertex 1 3 3
    endloop
  endfacet
  facet normal 1 0 0
    outer loop
      vertex 1 3 2
      vertex 1 2 3
      vertex 1 2 2
    endloop
  endfacet
  facet normal 0 1 -0
    outer loop
      vertex 1 3 2
      vertex 0 3 3
      vertex 1 3 3
    endloop
  endfacet
  facet normal 0 1 0
    outer loop
      vertex 0 3 3
      vertex 1 3 2
      vertex 0 3 2
    endloop
  endfacet
  facet normal 0 0 -1
    outer loop
      vertex 0 2 2
      vertex 1 3 2
      vertex 1 2 2
    endloop
  endfacet
  facet normal -0 0 -1
    outer loop
      vertex 1 3 2
      vertex 0 2 2
      vertex 0 3 2
    endloop
  endfacet
  facet normal 0 -1 0
    outer loop
      vertex 0 2 2
      vertex 1 2 3
      vertex 0 2 3
    endloop
  endfacet
  facet normal 0 -1 -0
    outer loop
      vertex 1 2 3
      vertex 0 2 2
      vertex 1 2 2
    endloop
  endfacet
  facet normal -1 0 0
    outer loop
      vertex 0 3 3
      vertex 0 4 4
      vertex 0 4 3
    endloop
  endfacet
  facet normal -1 -0 0
    outer loop
      vertex 0 4 4
      vertex 0 3 3
      vertex 0 3 4
    endloop
  endfacet
  facet normal -0 0 1
    outer loop
      vertex 0 4 4
      vertex 1 3 4
      vertex 1 4 4
    endloop
  endfacet
  facet normal 0 0 1
    outer loop
      vertex 1 3 4
      vertex 0 4 4
      vertex 0 3 4
    endloop
  endfacet
  facet normal 1 -0 0
    outer loop
      vertex 1 3 4
      vertex 1 4 3
      vertex 1 4 4
    endloop
  endfacet
  facet normal 1 0 0
    outer loop
      vertex 1 4 3
      vertex 1 3 4
      vertex 1 3 3
    endloop
  endfacet
  facet normal 0 1 -0
    outer loop
      vertex 1 4 3
      vertex 0 4 4
      vertex 1 4 4
    endloop
  endfacet
  facet normal 0 1 0
    outer loop
      vertex 0 4 4
      vertex 1 4 3
      vertex 0 4 3
    endloop
  endfacet
  facet normal 0 0 -1
    outer loop
      vertex 0 3 3
      vertex 1 4 3
      vertex 1 3 3
    endloop
  endfacet
  facet normal -0 0 -1
    outer loop
      vertex 1 4 3
      vertex 0 3 3
      vertex 0 4 3
    endloop
  endfacet
  facet normal 0 -1 0
    outer loop
      vertex 0 3 3
      vertex 1 3 4
      vertex 0 3 4
    endloop
  endfacet
  facet normal 0 -1 -0
    outer loop
      vertex 1 3 4
      vertex 0 3 3
      vertex 1 3 3
    endloop
  endfacet
  facet normal -1 0 0
    outer loop
      vertex 0 4 4
      vertex 0 5 5
      vertex 0 5 4
    endloop
  endfacet
  facet normal -1 -0 0
    outer loop
      vertex 0 5 5
      vertex 0 4 4
      vertex 0 4 5
    endloop
  endfacet
  facet normal -0 0 1
    outer loop
      vertex 0 5 5
      vertex 1 4 5
      vertex 1 5 5
    endloop
  endfacet
  facet normal 0 0 1
    outer loop
      vertex 1 4 5
      vertex 0 5 5
      vertex 0 4 5
    endloop
  endfacet
  facet normal 1 -0 0
    outer loop
      vertex 1 4 5
      vertex 1 5 4
      vertex 1 5 5
    endloop
  endfacet
  facet normal 1 0 0
    outer loop
      vertex 1 5 4
      vertex 1 4 5
      vertex 1 4 4
    endloop
  endfacet
  facet normal 0 0 -1
    outer loop
      vertex 0 4 4
      vertex 1 5 4
      vertex 1 4 4
    endloop
  endfacet
  facet normal -0 0 -1
    outer loop
      vertex 1 5 4
      vertex 0 4 4
      vertex 0 5 4
    endloop
  endfacet
  facet normal 0 -1 0
    outer loop
      vertex 0 4 4
      vertex 1 4 5
      vertex 0 4 5
    endloop
  endfacet
  facet normal 0 -1 -0
    outer loop
      vertex 1 4 5
      vertex 0 4 4
      vertex 1 4 4
    endloop
  endfacet
  facet normal 0 1 -0
    outer loop
      vertex 1 5 4
      vertex 0 5 5
      vertex 1 5 5
    endloop
  endfacet
  facet normal 0 1 0
    outer loop
      vertex 0 5 5
      vertex 1 5 4
      vertex 0 5 4
    endloop
  endfacet
  facet normal -1 0 0
    outer loop
      vertex 0 5 5
      vertex 0 6 6
      vertex 0 6 5
    endloop
  endfacet
  facet normal -1 -0 0
    outer loop
      vertex 0 6 6
      vertex 0 5 5
      vertex 0 5 6
    endloop
  endfacet
  facet normal -0 0 1
    outer loop
      vertex 0 6 6
      vertex 1 5 6
      vertex 1 6 6
    endloop
  endfacet
  facet normal 0 0 1
    outer loop
      vertex 1 5 6
      vertex 0 6 6
      vertex 0 5 6
    endloop
  endfacet
  facet normal 1 -0 0
    outer loop
      vertex 1 5 6
      vertex 1 6 5
      vertex 1 6 6
    endloop
  endfacet
  facet normal 1 0 0
    outer loop
      vertex 1 6 5
      vertex 1 5 6
      vertex 1 5 5
    endloop
  endfacet
  facet normal 0 1 -0
    outer loop
      vertex 1 6 5
      vertex 0 6 6
      vertex 1 6 6
    endloop
  endfacet
  facet normal 0 1 0
    outer loop
      vertex 0 6 6
      vertex 1 6 5
      vertex 0 6 5
    endloop
  endfacet
  facet normal 0 0 -1
    outer loop
      vertex 0 5 5
      vertex 1 6 5
      vertex 1 5 5
    endloop
  endfacet
  facet normal -0 0 -1
    outer loop
      vertex 1 6 5
      vertex 0 5 5
      vertex 0 6 5
    endloop
  endfacet
  facet normal 0 -1 0
    outer loop
      vertex 0 5 5
      vertex 1 5 6
      vertex 0 5 6
    endloop
  endfacet
  facet normal 0 -1 -0
    outer loop
      vertex 1 5 6
      vertex 0 5 5
      vertex 1 5 5
    endloop
  endfacet
  facet normal -1 0 0
    outer loop
      vertex 0 6 6
      vertex 0 7 7
      vertex 0 7 6
    endloop
  endfacet
  facet normal -1 -0 0
    outer loop
      vertex 0 7 7
      vertex 0 6 6
      vertex 0 6 7
    endloop
  endfacet
  facet normal -0 0 1
    outer loop
      vertex 0 7 7
      vertex 1 6 7
      vertex 1 7 7
    endloop
  endfacet
  facet normal 0 0 1
    outer loop
      vertex 1 6 7
      vertex 0 7 7
      vertex 0 6 7
    endloop
  endfacet
  facet normal 1 -0 0
    outer loop
      vertex 1 6 7
      vertex 1 7 6
      vertex 1 7 7
    endloop
  endfacet
  facet normal 1 0 0
    outer loop
      vertex 1 7 6
      vertex 1 6 7
      vertex 1 6 6
    endloop
  endfacet
  facet normal 0 1 -0
    outer loop
      vertex 1 7 6
      vertex 0 7 7
      vertex 1 7 7
    endloop
  endfacet
  facet normal 0 1 0
    outer loop
      vertex 0 7 7
      vertex 1 7 6
      vertex 0 7 6
    endloop
  endfacet
  facet normal 0 0 -1
    outer loop
      vertex 0 6 6
      vertex 1 7 6
      vertex 1 6 6
    endloop
  endfacet
  facet normal -0 0 -1
    outer loop
      vertex 1 7 6
      vertex 0 6 6
      vertex 0 7 6
    endloop
  endfacet
  facet normal 0 -1 0
    outer loop
      vertex 0 6 6
      vertex 1 6 7
      vertex 0 6 7
    endloop
  endfacet
  facet normal 0 -1 -0
    outer loop
      vertex 1 6 7
      vertex 0 6 6
      vertex 1 6 6
    endloop
  endfacet
  facet normal -1 0 0
    outer loop
      vertex 0 7 7
      vertex 0 8 8
      vertex 0 8 7
    endloop
  endfacet
  facet normal -1 -0 0
    outer loop
      vertex 0 8 8
      vertex 0 7 7
      vertex 0 7 8
    endloop
  endfacet
  facet normal -0 0 1
    outer loop
      vertex 0 8 8
      vertex 1 7 8
      vertex 1 8 8
    endloop
  endfacet
  facet normal 0 0 1
    outer loop
      vertex 1 7 8
      vertex 0 8 8
      vertex 0 7 8
    endloop
  endfacet
  facet normal 1 -0 0
    outer loop
      vertex 1 7 8
      vertex 1 8 7
      vertex 1 8 8
    endloop
  endfacet
  facet normal 1 0 0
    outer loop
      vertex 1 8 7
      vertex 1 7 8
      vertex 1 7 7
    endloop
  endfacet
  facet normal 0 0 -1
    outer loop
      vertex 0 7 7
      vertex 1 8 7
      vertex 1 7 7
    endloop
  endfacet
  facet normal -0 0 -1
    outer loop
      vertex 1 8 7
      vertex 0 7 7
      vertex 0 8 7
    endloop
  endfacet
  facet normal 0 -1 0
    outer loop
      vertex 0 7 7
      vertex 1 7 8
      vertex 0 7 8
    endloop
  endfacet
  facet normal 0 -1 -0
    outer loop
      vertex 1 7 8
      vertex 0 7 7
      vertex 1 7 7
    endloop
  endfacet
  facet normal 0 1 -0
    outer loop
      vertex 1 8 7
      vertex 0 8 8
      vertex 1 8 8
    endloop
  endfacet
  facet normal 0 1 0
    outer loop
      vertex 0 8 8
      vertex 1 8 7
      vertex 0 8 7
    endloop
  endfacet
  facet normal -1 0 0
    outer loop
      vertex 0 8 8
      vertex 0 9 9
      vertex 0 9 8
    endloop
  endfacet
  facet normal -1 -0 0
    outer loop
      vertex 0 9 9
      vertex 0 8 8
      vertex 0 8 9
    endloop
  endfacet
  facet normal -0 0 1
    outer loop
      vertex 0 9 9
      vertex 1 8 9
      vertex 1 9 9
    endloop
  endfacet
  facet normal 0 0 1
    outer loop
      vertex 1 8 9
      vertex 0 9 9
      vertex 0 8 9
    endloop
  endfacet
  facet normal 1 -0 0
    outer loop
      vertex 1 8 9
      vertex 1 9 8
      vertex 1 9 9
    endloop
  endfacet
  facet normal 1 0 0
    outer loop
      vertex 1 9 8
      vertex 1 8 9
      vertex 1 8 8
    endloop
  endfacet
  facet normal 0 0 -1
    outer loop
      vertex 0 8 8
      vertex 1 9 8
      vertex 1 8 8
    endloop
  endfacet
  facet normal -0 0 -1
    outer loop
      vertex 1 9 8
      vertex 0 8 8
      vertex 0 9 8
    endloop
  endfacet
  facet normal 0 -1 0
    outer loop
      vertex 0 8 8
      vertex 1 8 9
      vertex 0 8 9
    endloop
  endfacet
  facet normal 0 -1 -0
    outer loop
      vertex 1 8 9
      vertex 0 8 8
      vertex 1 8 8
    endloop
  endfacet
  facet normal 0 1 -0
    outer loop
      vertex 1 9 8
      vertex 0 9 9
      vertex 1 9 9
    endloop
  endfacet
  facet normal 0 1 0
    outer loop
      vertex 0 9 9
      vertex 1 9 8
      vertex 0 9 8
    endloop
  endfacet
  facet normal -1 0 0
    outer loop
      vertex 0 9 9
      vertex 0 10 10
      vertex 0 10 9
    endloop
  endfacet
  facet normal -1 -0 0
    outer loop
      vertex 0 10 10
      vertex 0 9 9
      vertex 0 9 10
    endloop
  endfacet
  facet normal -0 0 1
    outer loop
      vertex 0 10 10
      vertex 1 9 10
      vertex 1 10 10
    endloop
  endfacet
  facet normal 0 0 1
    outer loop
      vertex 1 9 10
      vertex 0 10 10
      vertex 0 9 10
    endloop
  endfacet
  facet normal 1 -0 0
    outer loop
      vertex 1 9 10
      vertex 1 10 9
      vertex 1 10 10
    endloop
  endfacet
  facet normal 1 0 0
    outer loop
      vertex 1 10 9
      vertex 1 9 10
      vertex 1 9 9
    endloop
  endfacet
  facet normal 0 1 -0
    outer loop
      vertex 1 10 9
      vertex 0 10 10
      vertex 1 10 10
    endloop
  endfacet
  facet normal 0 1 0
    outer loop
      vertex 0 10 10
      vertex 1 10 9
      vertex 0 10 9
    endloop
  endfacet
  facet normal 0 0 -1
    outer loop
      vertex 0 9 9
      vertex 1 10 9
      vertex 1 9 9
    endloop
  endfacet
  facet normal -0 0 -1
    outer loop
      vertex 1 10 9
      vertex 0 9 9
      vertex 0 10 9
    endloop
  endfacet
  facet normal 0 -1 0
    outer loop
      vertex 0 9 9
      vertex 1 9 10
      vertex 0 9 10
    endloop
  endfacet
  facet normal 0 -1 -0
    outer loop
      vertex 1 9 10
      vertex 0 9 9
      vertex 1 9 9
    endloop
  endfacet
  facet normal -1 0 0
    outer loop
      vertex 0 10 10
      vertex 0 11 11
      vertex 0 11 10
    endloop
  endfacet
  facet normal -1 -0 0
    outer loop
      vertex 0 11 11
      vertex 0 10 10
      vertex 0 10 11
    endloop
  endfacet
  facet normal -0 0 1
    outer loop
      vertex 0 11 11
      vertex 1 10 11
      vertex 1 11 11
    endloop
  endfacet
  facet normal 0 0 1
    outer loop
      vertex 1 10 11
      vertex 0 11 11
      vertex 0 10 11
    endloop
  endfacet
  facet normal 1 -0 0
    outer loop
      vertex 1 10 11
      vertex 1 11 10
      vertex 1 11 11
    endloop
  endfacet
  facet normal 1 0 0
    outer loop
      vertex 1 11 10
      vertex 1 10 11
      vertex 1 10 10
    endloop
  endfacet
  facet normal 0 0 -1
    outer loop
      vertex 0 10 10
      vertex 1 11 10
      vertex 1 10 10
    endloop
  endfacet
  facet normal -0 0 -1
    outer loop
      vertex 1 11 10
      vertex 0 10 10
      vertex 0 11 10
    endloop
  endfacet
  facet normal 0 -1 0
    outer loop
      vertex 0 10 10
      vertex 1 10 11
      vertex 0 10 11
    endloop
  endfacet
  facet normal 0 -1 -0
    outer loop
      vertex 1 10 11
      vertex 0 10 10
      vertex 1 10 10
    endloop
  endfacet
  facet normal 0 1 -0
    outer loop
      vertex 1 11 10
      vertex 0 11 11
      vertex 1 11 11
    endloop
  endfacet
  facet normal 0 1 0
    outer loop
      vertex 0 11 11
      vertex 1 11 10
      vertex 0 11 10
    endloop
  endfacet
  facet normal -1 0 0
    outer loop
      vertex 1 10 11
      vertex 1 11 12
      vertex 1 11 11
    endloop
  endfacet
  facet normal -1 -0 0
    outer loop
      vertex 1 11 12
      vertex 1 10 11
      vertex 1 10 12
    endloop
  endfacet
  facet normal -0 0 1
    outer loop
      vertex 1 11 12
      vertex 2 10 12
      vertex 2 11 12
    endloop
  endfacet
  facet normal 0 0 1
    outer loop
      vertex 2 10 12
      vertex 1 11 12
      vertex 1 10 12
    endloop
  endfacet
  facet normal 1 -0 0
    outer loop
      vertex 2 10 12
      vertex 2 11 11
      vertex 2 11 12
    endloop
  endfacet
  facet normal 1 0 0
    outer loop
      vertex 2 11 11
      vertex 2 10 12
      vertex 2 10 11
    endloop
  endfacet
  facet normal 0 1 -0
    outer loop
      vertex 2 11 11
      vertex 1 11 12
      vertex 2 11 12
    endloop
  endfacet
  facet normal 0 1 0
    outer loop
      vertex 1 11 12
      vertex 2 11 11
      vertex 1 11 11
    endloop
  endfacet
  facet normal 0 0 -1
    outer loop
      vertex 1 10 11
      vertex 2 11 11
      vertex 2 10 11
    endloop
  endfacet
  facet normal -0 0 -1
    outer loop
      vertex 2 11 11
      vertex 1 10 11
      vertex 1 11 11
    endloop
  endfacet
  facet normal 0 -1 0
    outer loop
      vertex 1 10 11
      vertex 2 10 12
      vertex 1 10 12
    endloop
  endfacet
  facet normal 0 -1 -0
    outer loop
      vertex 2 10 12
      vertex 1 10 11
      vertex 2 10 11
    endloop
  endfacet
  facet normal -1 0 0
    outer loop
      vertex 2 10 12
      vertex 2 11 13
      vertex 2 11 12
    endloop
  endfacet
  facet normal -1 -0 0
    outer loop
      vertex 2 11 13
      vertex 2 10 12
      vertex 2 10 13
    endloop
  endfacet
  facet normal -0 0 1
    outer loop
      vertex 2 11 13
      vertex 3 10 13
      vertex 3 11 13
    endloop
  endfacet
  facet normal 0 0 1
    outer loop
      vertex 3 10 13
      vertex 2 11 13
      vertex 2 10 13
    endloop
  endfacet
  facet normal 1 -0 0
    outer loop
      vertex 3 10 13
      vertex 3 11 12
      vertex 3 11 13
    endloop
  endfacet
  facet normal 1 0 0
    outer loop
      vertex 3 11 12
      vertex 3 10 13
      vertex 3 10 12
    endloop
  endfacet
  facet normal 0 1 -0
    outer loop
      vertex 3 11 12
      vertex 2 11 13
      vertex 3 11 13
    endloop
  endfacet
  facet normal 0 1 0
    outer loop
      vertex 2 11 13
      vertex 3 11 12
      vertex 2 11 12
    endloop
  endfacet
  facet normal 0 0 -1
    outer loop
      vertex 2 10 12
      vertex 3 11 12
      vertex 3 10 12
    endloop
  endfacet
  facet normal -0 0 -1
    outer loop
      vertex 3 11 12
      vertex 2 10 12
      vertex 2 11 12
    endloop
  endfacet
  facet normal 0 -1 0
    outer loop
      vertex 2 10 12
      vertex 3 10 13
      vertex 2 10 13
    endloop
  endfacet
  facet normal 0 -1 -0
    outer loop
      vertex 3 10 13
      vertex 2 10 12
      vertex 3 10 12
    endloop
  endfacet
  facet normal -1 0 0
    outer loop
      vertex 3 10 13
      vertex 3 11 14
      vertex 3 11 13
    endloop
  endfacet
  facet normal -1 -0 0
    outer loop
      vertex 3 11 14
      vertex 3 10 13
      vertex 3 10 14
    endloop
  endfacet
  facet normal -0 0 1
    outer loop
      vertex 3 11 14
      vertex 4 10 14
      vertex 4 11 14
    endloop
  endfacet
  facet normal 0 0 1
    outer loop
      vertex 4 10 14
      vertex 3 11 14
      vertex 3 10 14
    endloop
  endfacet
  facet normal 1 -0 0
    outer loop
      vertex 4 10 14
      vertex 4 11 13
      vertex 4 11 14
    endloop
  endfacet
  facet normal 1 0 0
    outer loop
      vertex 4 11 13
      vertex 4 10 14
      vertex 4 10 13
    endloop
  endfacet
  facet normal 0 1 -0
    outer loop
      vertex 4 11 13
      vertex 3 11 14
      vertex 4 11 14
    endloop
  endfacet
  facet normal 0 1 0
    outer loop
      vertex 3 11 14
      vertex 4 11 13
      vertex 3 11 13
    endloop
  endfacet
  facet normal 0 0 -1
    outer loop
      vertex 3 10 13
      vertex 4 11 13
      vertex 4 10 13
    endloop
  endfacet
  facet normal -0 0 -1
    outer loop
      vertex 4 11 13
      vertex 3 10 13
      vertex 3 11 13
    endloop
  endfacet
  facet normal 0 -1 0
    outer loop
      vertex 3 10 13
      vertex 4 10 14
      vertex 3 10 14
    endloop
  endfacet
  facet normal 0 -1 -0
    outer loop
      vertex 4 10 14
      vertex 3 10 13
      vertex 4 10 13
    endloop
  endfacet
  facet normal -1 0 0
    outer loop
      vertex 4 10 14
      vertex 4 11 15
      vertex 4 11 14
    endloop
  endfacet
  facet normal -1 -0 0
    outer loop
      vertex 4 11 15
      vertex 4 10 14
      vertex 4 10 15
    endloop
  endfacet
  facet normal -0 0 1
    outer loop
      vertex 4 11 15
      vertex 5 10 15
      vertex 5 11 15
    endloop
  endfacet
  facet normal 0 0 1
    outer loop
      vertex 5 10 15
      vertex 4 11 15
      vertex 4 10 15
    endloop
  endfacet
  facet normal 1 -0 0
    outer loop
      vertex 5 10 15
      vertex 5 11 14
      vertex 5 11 15
    endloop
  endfacet
  facet normal 1 0 0
    outer loop
      vertex 5 11 14
      vertex 5 10 15
      vertex 5 10 14
    endloop
  endfacet
  facet normal 0 1 -0
    outer loop
      vertex 5 11 14
      vertex 4 11 15
      vertex 5 11 15
    endloop
  endfacet
  facet normal 0 1 0
    outer loop
      vertex 4 11 15
      vertex 5 11 14
      vertex 4 11 14
    endloop
  endfacet
  facet normal 0 0 -1
    outer loop
      vertex 4 10 14
      vertex 5 11 14
      vertex 5 10 14
    endloop
  endfacet
  facet normal -0 0 -1
    outer loop
      vertex 5 11 14
      vertex 4 10 14
      vertex 4 11 14
    endloop
  endfacet
  facet normal 0 -1 0
    outer loop
      vertex 4 10 14
      vertex 5 10 15
      vertex 4 10 15
    endloop
  endfacet
  facet normal 0 -1 -0
    outer loop
      vertex 5 10 15
      vertex 4 10 14
      vertex 5 10 14
    endloop
  endfacet
  facet normal -1 0 0
    outer loop
      vertex 5 10 15
      vertex 5 11 16
      vertex 5 11 15
    endloop
  endfacet
  facet normal -1 -0 0
    outer loop
      vertex 5 11 16
      vertex 5 10 15
      vertex 5 10 16
    endloop
  endfacet
  facet normal -0 0 1
    outer loop
      vertex 5 11 16
      vertex 6 10 16
      vertex 6 11 16
    endloop
  endfacet
  facet normal 0 0 1
    outer loop
      vertex 6 10 16
      vertex 5 11 16
      vertex 5 10 16
    endloop
  endfacet
  facet normal 1 -0 0
    outer loop
      vertex 6 10 16
      vertex 6 11 15
      vertex 6 11 16
    endloop
  endfacet
  facet normal 1 0 0
    outer loop
      vertex 6 11 15
      vertex 6 10 16
      vertex 6 10 15
    endloop
  endfacet
  facet normal 0 1 -0
    outer loop
      vertex 6 11 15
      vertex 5 11 16
      vertex 6 11 16
    endloop
  endfacet
  facet normal 0 1 0
    outer loop
      vertex 5 11 16
      vertex 6 11 15
      vertex 5 11 15
    endloop
  endfacet
  facet normal 0 0 -1
    outer loop
      vertex 5 10 15
      vertex 6 11 15
      vertex 6 10 15
    endloop
  endfacet
  facet normal -0 0 -1
    outer loop
      vertex 6 11 15
      vertex 5 10 15
      vertex 5 11 15
    endloop
  endfacet
  facet normal 0 -1 0
    outer loop
      vertex 5 10 15
      vertex 6 10 16
      vertex 5 10 16
    endloop
  endfacet
  facet normal 0 -1 -0
    outer loop
      vertex 6 10 16
      vertex 5 10 15
      vertex 6 10 15
    endloop
  endfacet
  facet normal -1 0 0
    outer loop
      vertex 6 10 16
      vertex 6 11 17
      vertex 6 11 16
    endloop
  endfacet
  facet normal -1 -0 0
    outer loop
      vertex 6 11 17
      vertex 6 10 16
      vertex 6 10 17
    endloop
  endfacet
  facet normal -0 0 1
    outer loop
      vertex 6 11 17
      vertex 7 10 17
      vertex 7 11 17
    endloop
  endfacet
  facet normal 0 0 1
    outer loop
      vertex 7 10 17
      vertex 6 11 17
      vertex 6 10 17
    endloop
  endfacet
  facet normal 1 -0 0
    outer loop
      vertex 7 10 17
      vertex 7 11 16
      vertex 7 11 17
    endloop
  endfacet
  facet normal 1 0 0
    outer loop
      vertex 7 11 16
      vertex 7 10 17
      vertex 7 10 16
    endloop
  endfacet
  facet normal 0 0 -1
    outer loop
      vertex 6 10 16
      vertex 7 11 16
      vertex 7 10 16
    endloop
  endfacet
  facet normal -0 0 -1
    outer loop
      vertex 7 11 16
      vertex 6 10 16
      vertex 6 11 16
    endloop
  endfacet
  facet normal 0 -1 0
    outer loop
      vertex 6 10 16
      vertex 7 10 17
      vertex 6 10 17
    endloop
  endfacet
  facet normal 0 -1 -0
    outer loop
      vertex 7 10 17
      vertex 6 10 16
      vertex 7 10 16
    endloop
  endfacet
  facet normal 0 1 -0
    outer loop
      vertex 7 11 16
      vertex 6 11 17
      vertex 7 11 17
    endloop
  endfacet
  facet normal 0 1 0
    outer loop
      vertex 6 11 17
      vertex 7 11 16
      vertex 6 11 16
    endloop
  endfacet
  facet normal -1 0 0
    outer loop
      vertex 7 10 17
      vertex 7 11 18
      vertex 7 11 17
    endloop
  endfacet
  facet normal -1 -0 0
    outer loop
      vertex 7 11 18
      vertex 7 10 17
      vertex 7 10 18
    endloop
  endfacet
  facet normal -0 0 1
    outer loop
      vertex 7 11 18
      vertex 8 10 18
      vertex 8 11 18
    endloop
  endfacet
  facet normal 0 0 1
    outer loop
      vertex 8 10 18
      vertex 7 11 18
      vertex 7 10 18
    endloop
  endfacet
  facet normal 1 -0 0
    outer loop
      vertex 8 10 18
      vertex 8 11 17
      vertex 8 11 18
    endloop
  endfacet
  facet normal 1 0 0
    outer loop
      vertex 8 11 17
      vertex 8 10 18
      vertex 8 10 17
    endloop
  endfacet
  facet normal 0 1 -0
    outer loop
      vertex 8 11 17
      vertex 7 11 18
      vertex 8 11 18
    endloop
  endfacet
  facet normal 0 1 0
    outer loop
      vertex 7 11 18
      vertex 8 11 17
      vertex 7 11 17
    endloop
  endfacet
  facet normal 0 0 -1
    outer loop
      vertex 7 10 17
      vertex 8 11 17
      vertex 8 10 17
    endloop
  endfacet
  facet normal -0 0 -1
    outer loop
      vertex 8 11 17
      vertex 7 10 17
      vertex 7 11 17
    endloop
  endfacet
  facet normal 0 -1 0
    outer loop
      vertex 7 10 17
      vertex 8 10 18
      vertex 7 10 18
    endloop
  endfacet
  facet normal 0 -1 -0
    outer loop
      vertex 8 10 18
      vertex 7 10 17
      vertex 8 10 17
    endloop
  endfacet
  facet normal -1 0 0
    outer loop
      vertex 8 10 18
      vertex 8 11 19
      vertex 8 11 18
    endloop
  endfacet
  facet normal -1 -0 0
    outer loop
      vertex 8 11 19
      vertex 8 10 18
      vertex 8 10 19
    endloop
  endfacet
  facet normal -0 0 1
    outer loop
      vertex 8 11 19
      vertex 9 10 19
      vertex 9 11 19
    endloop
  endfacet
  facet normal 0 0 1
    outer loop
      vertex 9 10 19
      vertex 8 11 19
      vertex 8 10 19
    endloop
  endfacet
  facet normal 1 -0 0
    outer loop
      vertex 9 10 19
      vertex 9 11 18
      vertex 9 11 19
    endloop
  endfacet
  facet normal 1 0 0
    outer loop
      vertex 9 11 18
      vertex 9 10 19
      vertex 9 10 18
    endloop
  endfacet
  facet normal 0 0 -1
    outer loop
      vertex 8 10 18
      vertex 9 11 18
      vertex 9 10 18
    endloop
  endfacet
  facet normal -0 0 -1
    outer loop
      vertex 9 11 18
      vertex 8 10 18
      vertex 8 11 18
    endloop
  endfacet
  facet normal 0 -1 0
    outer loop
      vertex 8 10 18
      vertex 9 10 19
      vertex 8 10 19
    endloop
  endfacet
  facet normal 0 -1 -0
    outer loop
      vertex 9 10 19
      vertex 8 10 18
      vertex 9 10 18
    endloop
  endfacet
  facet normal 0 1 -0
    outer loop
      vertex 9 11 18
      vertex 8 11 19
      vertex 9 11 19
    endloop
  endfacet
  facet normal 0 1 0
    outer loop
      vertex 8 11 19
      vertex 9 11 18
      vertex 8 11 18
    endloop
  endfacet
  facet normal -1 0 0
    outer loop
      vertex 9 10 19
      vertex 9 11 20
      vertex 9 11 19
    endloop
  endfacet
  facet normal -1 -0 0
    outer loop
      vertex 9 11 20
      vertex 9 10 19
      vertex 9 10 20
    endloop
  endfacet
  facet normal -0 0 1
    outer loop
      vertex 9 11 20
      vertex 10 10 20
      vertex 10 11 20
    endloop
  endfacet
  facet normal 0 0 1
    outer loop
      vertex 10 10 20
      vertex 9 11 20
      vertex 9 10 20
    endloop
  endfacet
  facet normal 1 -0 0
    outer loop
      vertex 10 10 20
      vertex 10 11 19
      vertex 10 11 20
    endloop
  endfacet
  facet normal 1 0 0
    outer loop
      vertex 10 11 19
      vertex 10 10 20
      vertex 10 10 19
    endloop
  endfacet
  facet normal 0 0 -1
    outer loop
      vertex 9 10 19
      vertex 10 11 19
      vertex 10 10 19
    endloop
  endfacet
  facet normal -0 0 -1
    outer loop
      vertex 10 11 19
      vertex 9 10 19
      vertex 9 11 19
    endloop
  endfacet
  facet normal 0 -1 0
    outer loop
      vertex 9 10 19
      vertex 10 10 20
      vertex 9 10 20
    endloop
  endfacet
  facet normal 0 -1 -0
    outer loop
      vertex 10 10 20
      vertex 9 10 19
      vertex 10 10 19
    endloop
  endfacet
  facet normal 0 1 -0
    outer loop
      vertex 10 11 19
      vertex 9 11 20
      vertex 10 11 20
    endloop
  endfacet
  facet normal 0 1 0
    outer loop
      vertex 9 11 20
      vertex 10 11 19
      vertex 9 11 19
    endloop
  endfacet
  facet normal -1 0 0
    outer loop
      vertex 10 10 20
      vertex 10 11 21
      vertex 10 11 20
    endloop
  endfacet
  facet normal -1 -0 0
    outer loop
      vertex 10 11 21
      vertex 10 10 20
      vertex 10 10 21
    endloop
  endfacet
  facet normal -0 0 1
    outer loop
      vertex 10 11 21
      vertex 11 10 21
      vertex 11 11 21
    endloop
  endfacet
  facet normal 0 0 1
    outer loop
      vertex 11 10 21
      vertex 10 11 21
      vertex 10 10 21
    endloop
  endfacet
  facet normal 1 -0 0
    outer loop
      vertex 11 10 21
      vertex 11 11 20
      vertex 11 11 21
    endloop
  endfacet
  facet normal 1 0 0
    outer loop
      vertex 11 11 20
      vertex 11 10 21
      vertex 11 10 20
    endloop
  endfacet
  facet normal 0 0 -1
    outer loop
      vertex 10 10 20
      vertex 11 11 20
      vertex 11 10 20
    endloop
  endfacet
  facet normal -0 0 -1
    outer loop
      vertex 11 11 20
      vertex 10 10 20
      vertex 10 11 20
    endloop
  endfacet
  facet normal 0 -1 0
    outer loop
      vertex 10 10 20
      vertex 11 10 21
      vertex 10 10 21
    endloop
  endfacet
  facet normal 0 -1 -0
    outer loop
      vertex 11 10 21
      vertex 10 10 20
      vertex 11 10 20
    endloop
  endfacet
  facet normal 0 1 -0
    outer loop
      vertex 11 11 20
      vertex 10 11 21
      vertex 11 11 21
    endloop
  endfacet
  facet normal 0 1 0
    outer loop
      vertex 10 11 21
      vertex 11 11 20
      vertex 10 11 20
    endloop
  endfacet
  facet normal -1 0 0
    outer loop
      vertex 10 9 21
      vertex 10 10 22
      vertex 10 10 21
    endloop
  endfacet
  facet normal -1 -0 0
    outer loop
      vertex 10 10 22
      vertex 10 9 21
      vertex 10 9 22
    endloop
  endfacet
  facet normal -0 0 1
    outer loop
      vertex 10 10 22
      vertex 11 9 22
      vertex 11 10 22
    endloop
  endfacet
  facet normal 0 0 1
    outer loop
      vertex 11 9 22
      vertex 10 10 22
      vertex 10 9 22
    endloop
  endfacet
  facet normal 1 -0 0
    outer loop
      vertex 11 9 22
      vertex 11 10 21
      vertex 11 10 22
    endloop
  endfacet
  facet normal 1 0 0
    outer loop
      vertex 11 10 21
      vertex 11 9 22
      vertex 11 9 21
    endloop
  endfacet
  facet normal 0 0 -1
    outer loop
      vertex 10 9 21
      vertex 11 10 21
      vertex 11 9 21
    endloop
  endfacet
  facet normal -0 0 -1
    outer loop
      vertex 11 10 21
      vertex 10 9 21
      vertex 10 10 21
    endloop
  endfacet
  facet normal 0 -1 0
    outer loop
      vertex 10 9 21
      vertex 11 9 22
      vertex 10 9 22
    endloop
  endfacet
  facet normal 0 -1 -0
    outer loop
      vertex 11 9 22
      vertex 10 9 21
      vertex 11 9 21
    endloop
  endfacet
  facet normal 0 1 -0
    outer loop
      vertex 11 10 21
      vertex 10 10 22
      vertex 11 10 22
    endloop
  endfacet
  facet normal 0 1 0
    outer loop
      vertex 10 10 22
      vertex 11 10 21
      vertex 10 10 21
    endloop
  endfacet
  facet normal -1 0 0
    outer loop
      vertex 10 8 22
      vertex 10 9 23
      vertex 10 9 22
    endloop
  endfacet
  facet normal -1 -0 0
    outer loop
      vertex 10 9 23
      vertex 10 8 22
      vertex 10 8 23
    endloop
  endfacet
  facet normal -0 0 1
    outer loop
      vertex 10 9 23
      vertex 11 8 23
      vertex 11 9 23
    endloop
  endfacet
  facet normal 0 0 1
    outer loop
      vertex 11 8 23
      vertex 10 9 23
      vertex 10 8 23
    endloop
  endfacet
  facet normal 1 -0 0
    outer loop
      vertex 11 8 23
      vertex 11 9 22
      vertex 11 9 23
    endloop
  endfacet
  facet normal 1 0 0
    outer loop
      vertex 11 9 22
      vertex 11 8 23
      vertex 11 8 22
    endloop
  endfacet
  facet normal 0 1 -0
    outer loop
      vertex 11 9 22
      vertex 10 9 23
      vertex 11 9 23
    endloop
  endfacet
  facet normal 0 1 0
    outer loop
      vertex 10 9 23
      vertex 11 9 22
      vertex 10 9 22
    endloop
  endfacet
  facet normal 0 0 -1
    outer loop
      vertex 10 8 22
      vertex 11 9 22
      vertex 11 8 22
    endloop
  endfacet
  facet normal -0 0 -1
    outer loop
      vertex 11 9 22
      vertex 10 8 22
      vertex 10 9 22
    endloop
  endfacet
  facet normal 0 -1 0
    outer loop
      vertex 10 8 22
      vertex 11 8 23
      vertex 10 8 23
    endloop
  endfacet
  facet normal 0 -1 -0
    outer loop
      vertex 11 8 23
      vertex 10 8 22
      vertex 11 8 22
    endloop
  endfacet
  facet normal -1 0 0
    outer loop
      vertex 10 7 23
      vertex 10 8 24
      vertex 10 8 23
    endloop
  endfacet
  facet normal -1 -0 0
    outer loop
      vertex 10 8 24
      vertex 10 7 23
      vertex 10 7 24
    endloop
  endfacet
  facet normal -0 0 1
    outer loop
      vertex 10 8 24
      vertex 11 7 24
      vertex 11 8 24
    endloop
  endfacet
  facet normal 0 0 1
    outer loop
      vertex 11 7 24
      vertex 10 8 24
      vertex 10 7 24
    endloop
  endfacet
  facet normal 1 -0 0
    outer loop
      vertex 11 7 24
      vertex 11 8 23
      vertex 11 8 24
    endloop
  endfacet
  facet normal 1 0 0
    outer loop
      vertex 11 8 23
      vertex 11 7 24
      vertex 11 7 23
    endloop
  endfacet
  facet normal 0 0 -1
    outer loop
      vertex 10 7 23
      vertex 11 8 23
      vertex 11 7 23
    endloop
  endfacet
  facet normal -0 0 -1
    outer loop
      vertex 11 8 23
      vertex 10 7 23
      vertex 10 8 23
    endloop
  endfacet
  facet normal 0 -1 0
    outer loop
      vertex 10 7 23
      vertex 11 7 24
      vertex 10 7 24
    endloop
  endfacet
  facet normal 0 -1 -0
    outer loop
      vertex 11 7 24
      vertex 10 7 23
      vertex 11 7 23
    endloop
  endfacet
  facet normal 0 1 -0
    outer loop
      vertex 11 8 23
      vertex 10 8 24
      vertex 11 8 24
    endloop
  endfacet
  facet normal 0 1 0
    outer loop
      vertex 10 8 24
      vertex 11 8 23
      vertex 10 8 23
    endloop
  endfacet
  facet normal -1 0 0
    outer loop
      vertex 10 6 24
      vertex 10 7 25
      vertex 10 7 24
    endloop
  endfacet
  facet normal -1 -0 0
    outer loop
      vertex 10 7 25
      vertex 10 6 24
      vertex 10 6 25
    endloop
  endfacet
  facet normal -0 0 1
    outer loop
      vertex 10 7 25
      vertex 11 6 25
      vertex 11 7 25
    endloop
  endfacet
  facet normal 0 0 1
    outer loop
      vertex 11 6 25
      vertex 10 7 25
      vertex 10 6 25
    endloop
  endfacet
  facet normal 1 -0 0
    outer loop
      vertex 11 6 25
      vertex 11 7 24
      vertex 11 7 25
    endloop
  endfacet
  facet normal 1 0 0
    outer loop
      vertex 11 7 24
      vertex 11 6 25
      vertex 11 6 24
    endloop
  endfacet
  facet normal 0 0 -1
    outer loop
      vertex 10 6 24
      vertex 11 7 24
      vertex 11 6 24
    endloop
  endfacet
  facet normal -0 0 -1
    outer loop
      vertex 11 7 24
      vertex 10 6 24
      vertex 10 7 24
    endloop
  endfacet
  facet normal 0 -1 0
    outer loop
      vertex 10 6 24
      vertex 11 6 25
      vertex 10 6 25
    endloop
  endfacet
  facet normal 0 -1 -0
    outer loop
      vertex 11 6 25
      vertex 10 6 24
      vertex 11 6 24
    endloop
  endfacet
  facet normal 0 1 -0
    outer loop
      vertex 11 7 24
      vertex 10 7 25
      vertex 11 7 25
    endloop
  endfacet
  facet normal 0 1 0
    outer loop
      vertex 10 7 25
      vertex 11 7 24
      vertex 10 7 24
    endloop
  endfacet
  facet normal -1 0 0
    outer loop
      vertex 10 5 25
      vertex 10 6 26
      vertex 10 6 25
    endloop
  endfacet
  facet normal -1 -0 0
    outer loop
      vertex 10 6 26
      vertex 10 5 25
      vertex 10 5 26
    endloop
  endfacet
  facet normal -0 0 1
    outer loop
      vertex 10 6 26
      vertex 11 5 26
      vertex 11 6 26
    endloop
  endfacet
  facet normal 0 0 1
    outer loop
      vertex 11 5 26
      vertex 10 6 26
      vertex 10 5 26
    endloop
  endfacet
  facet normal 1 -0 0
    outer loop
      vertex 11 5 26
      vertex 11 6 25
      vertex 11 6 26
    endloop
  endfacet
  facet normal 1 0 0
    outer loop
      vertex 11 6 25
      vertex 11 5 26
      vertex 11 5 25
    endloop
  endfacet
  facet normal 0 0 -1
    outer loop
      vertex 10 5 25
      vertex 11 6 25
      vertex 11 5 25
    endloop
  endfacet
  facet normal -0 0 -1
    outer loop
      vertex 11 6 25
      vertex 10 5 25
      vertex 10 6 25
    endloop
  endfacet
  facet normal 0 -1 0
    outer loop
      vertex 10 5 25
      vertex 11 5 26
      vertex 10 5 26
    endloop
  endfacet
  facet normal 0 -1 -0
    outer loop
      vertex 11 5 26
      vertex 10 5 25
      vertex 11 5 25
    endloop
  endfacet
  facet normal 0 1 -0
    outer loop
      vertex 11 6 25
      vertex 10 6 26
      vertex 11 6 26
    endloop
  endfacet
  facet normal 0 1 0
    outer loop
      vertex 10 6 26
      vertex 11 6 25
      vertex 10 6 25
    endloop
  endfacet
  facet normal -1 0 0
    outer loop
      vertex 10 4 26
      vertex 10 5 27
      vertex 10 5 26
    endloop
  endfacet
  facet normal -1 -0 0
    outer loop
      vertex 10 5 27
      vertex 10 4 26
      vertex 10 4 27
    endloop
  endfacet
  facet normal -0 0 1
    outer loop
      vertex 10 5 27
      vertex 11 4 27
      vertex 11 5 27
    endloop
  endfacet
  facet normal 0 0 1
    outer loop
      vertex 11 4 27
      vertex 10 5 27
      vertex 10 4 27
    endloop
  endfacet
  facet normal 1 -0 0
    outer loop
      vertex 11 4 27
      vertex 11 5 26
      vertex 11 5 27
    endloop
  endfacet
  facet normal 1 0 0
    outer loop
      vertex 11 5 26
      vertex 11 4 27
      vertex 11 4 26
    endloop
  endfacet
  facet normal 0 1 -0
    outer loop
      vertex 11 5 26
      vertex 10 5 27
      vertex 11 5 27
    endloop
  endfacet
  facet normal 0 1 0
    outer loop
      vertex 10 5 27
      vertex 11 5 26
      vertex 10 5 26
    endloop
  endfacet
  facet normal 0 0 -1
    outer loop
      vertex 10 4 26
      vertex 11 5 26
      vertex 11 4 26
    endloop
  endfacet
  facet normal -0 0 -1
    outer loop
      vertex 11 5 26
      vertex 10 4 26
      vertex 10 5 26
    endloop
  endfacet
  facet normal 0 -1 0
    outer loop
      vertex 10 4 26
      vertex 11 4 27
      vertex 10 4 27
    endloop
  endfacet
  facet normal 0 -1 -0
    outer loop
      vertex 11 4 27
      vertex 10 4 26
      vertex 11 4 26
    endloop
  endfacet
  facet normal -1 0 0
    outer loop
      vertex 10 3 27
      vertex 10 4 28
      vertex 10 4 27
    endloop
  endfacet
  facet normal -1 -0 0
    outer loop
      vertex 10 4 28
      vertex 10 3 27
      vertex 10 3 28
    endloop
  endfacet
  facet normal -0 0 1
    outer loop
      vertex 10 4 28
      vertex 11 3 28
      vertex 11 4 28
    endloop
  endfacet
  facet normal 0 0 1
    outer loop
      vertex 11 3 28
      vertex 10 4 28
      vertex 10 3 28
    endloop
  endfacet
  facet normal 1 -0 0
    outer loop
      vertex 11 3 28
      vertex 11 4 27
      vertex 11 4 28
    endloop
  endfacet
  facet normal 1 0 0
    outer loop
      vertex 11 4 27
      vertex 11 3 28
      vertex 11 3 27
    endloop
  endfacet
  facet normal 0 1 -0
    outer loop
      vertex 11 4 27
      vertex 10 4 28
      vertex 11 4 28
    endloop
  endfacet
  facet normal 0 1 0
    outer loop
      vertex 10 4 28
      vertex 11 4 27
      vertex 10 4 27
    endloop
  endfacet
  facet normal 0 0 -1
    outer loop
      vertex 10 3 27
      vertex 11 4 27
      vertex 11 3 27
    endloop
  endfacet
  facet normal -0 0 -1
    outer loop
      vertex 11 4 27
      vertex 10 3 27
      vertex 10 4 27
    endloop
  endfacet
  facet normal 0 -1 0
    outer loop
      vertex 10 3 27
      vertex 11 3 28
      vertex 10 3 28
    endloop
  endfacet
  facet normal 0 -1 -0
    outer loop
      vertex 11 3 28
      vertex 10 3 27
      vertex 11 3 27
    endloop
  endfacet
  facet normal -1 0 0
    outer loop
      vertex 10 2 28
      vertex 10 3 29
      vertex 10 3 28
    endloop
  endfacet
  facet normal -1 -0 0
    outer loop
      vertex 10 3 29
      vertex 10 2 28
      vertex 10 2 29
    endloop
  endfacet
  facet normal -0 0 1
    outer loop
      vertex 10 3 29
      vertex 11 2 29
      vertex 11 3 29
    endloop
  endfacet
  facet normal 0 0 1
    outer loop
      vertex 11 2 29
      vertex 10 3 29
      vertex 10 2 29
    endloop
  endfacet
  facet normal 1 -0 0
    outer loop
      vertex 11 2 29
      vertex 11 3 28
      vertex 11 3 29
    endloop
  endfacet
  facet normal 1 0 0
    outer loop
      vertex 11 3 28
      vertex 11 2 29
      vertex 11 2 28
    endloop
  endfacet
  facet normal 0 0 -1
    outer loop
      vertex 10 2 28
      vertex 11 3 28
      vertex 11 2 28
    endloop
  endfacet
  facet normal -0 0 -1
    outer loop
      vertex 11 3 28
      vertex 10 2 28
      vertex 10 3 28
    endloop
  endfacet
  facet normal 0 -1 0
    outer loop
      vertex 10 2 28
      vertex 11 2 29
      vertex 10 2 29
    endloop
  endfacet
  facet normal 0 -1 -0
    outer loop
      vertex 11 2 29
      vertex 10 2 28
      vertex 11 2 28
    endloop
  endfacet
  facet normal 0 1 -0
    outer loop
      vertex 11 3 28
      vertex 10 3 29
      vertex 11 3 29
    endloop
  endfacet
  facet normal 0 1 0
    outer loop
      vertex 10 3 29
      vertex 11 3 28
      vertex 10 3 28
    endloop
  endfacet
  facet normal -1 0 0
    outer loop
      vertex 10 1 29
      vertex 10 2 30
      vertex 10 2 29
    endloop
  endfacet
  facet normal -1 -0 0
    outer loop
      vertex 10 2 30
      vertex 10 1 29
      vertex 10 1 30
    endloop
  endfacet
  facet normal -0 0 1
    outer loop
      vertex 10 2 30
      vertex 11 1 30
      vertex 11 2 30
    endloop
  endfacet
  facet normal 0 0 1
    outer loop
      vertex 11 1 30
      vertex 10 2 30
      vertex 10 1 30
    endloop
  endfacet
  facet normal 1 -0 0
    outer loop
      vertex 11 1 30
      vertex 11 2 29
      vertex 11 2 30
    endloop
  endfacet
  facet normal 1 0 0
    outer loop
      vertex 11 2 29
      vertex 11 1 30
      vertex 11 1 29
    endloop
  endfacet
  facet normal 0 1 -0
    outer loop
      vertex 11 2 29
      vertex 10 2 30
      vertex 11 2 30
    endloop
  endfacet
  facet normal 0 1 0
    outer loop
      vertex 10 2 30
      vertex 11 2 29
      vertex 10 2 29
    endloop
  endfacet
  facet normal 0 0 -1
    outer loop
      vertex 10 1 29
      vertex 11 2 29
      vertex 11 1 29
    endloop
  endfacet
  facet normal -0 0 -1
    outer loop
      vertex 11 2 29
      vertex 10 1 29
      vertex 10 2 29
    endloop
  endfacet
  facet normal 0 -1 0
    outer loop
      vertex 10 1 29
      vertex 11 1 30
      vertex 10 1 30
    endloop
  endfacet
  facet normal 0 -1 -0
    outer loop
      vertex 11 1 30
      vertex 10 1 29
      vertex 11 1 29
    endloop
  endfacet
  facet normal -1 0 0
    outer loop
      vertex 10 0 30
      vertex 10 1 31
      vertex 10 1 30
    endloop
  endfacet
  facet normal -1 -0 0
    outer loop
      vertex 10 1 31
      vertex 10 0 30
      vertex 10 0 31
    endloop
  endfacet
  facet normal -0 0 1
    outer loop
      vertex 10 1 31
      vertex 11 0 31
      vertex 11 1 31
    endloop
  endfacet
  facet normal 0 0 1
    outer loop
      vertex 11 0 31
      vertex 10 1 31
      vertex 10 0 31
    endloop
  endfacet
  facet normal 1 -0 0
    outer loop
      vertex 11 0 31
      vertex 11 1 30
      vertex 11 1 31
    endloop
  endfacet
  facet normal 1 0 0
    outer loop
      vertex 11 1 30
      vertex 11 0 31
      vertex 11 0 30
    endloop
  endfacet
  facet normal 0 1 -0
    outer loop
      vertex 11 1 30
      vertex 10 1 31
      vertex 11 1 31
    endloop
  endfacet
  facet normal 0 1 0
    outer loop
      vertex 10 1 31
      vertex 11 1 30
      vertex 10 1 30
    endloop
  endfacet
  facet normal 0 0 -1
    outer loop
      vertex 10 0 30
      vertex 11 1 30
      vertex 11 0 30
    endloop
  endfacet
  facet normal -0 0 -1
    outer loop
      vertex 11 1 30
      vertex 10 0 30
      vertex 10 1 30
    endloop
  endfacet
  facet normal 0 -1 0
    outer loop
      vertex 10 0 30
      vertex 11 0 31
      vertex 10 0 31
    endloop
  endfacet
  facet normal 0 -1 -0
    outer loop
      vertex 11 0 31
      vertex 10 0 30
      vertex 11 0 30
    endloop
  endfacet
  facet normal -1 0 0
    outer loop
      vertex 9 0 31
      vertex 9 1 32
      vertex 9 1 31
    endloop
  endfacet
  facet normal -1 -0 0
    outer loop
      vertex 9 1 32
      vertex 9 0 31
      vertex 9 0 32
    endloop
  endfacet
  facet normal -0 0 1
    outer loop
      vertex 9 1 32
      vertex 10 0 32
      vertex 10 1 32
    endloop
  endfacet
  facet normal 0 0 1
    outer loop
      vertex 10 0 32
      vertex 9 1 32
      vertex 9 0 32
    endloop
  endfacet
  facet normal 1 -0 0
    outer loop
      vertex 10 0 32
      vertex 10 1 31
      vertex 10 1 32
    endloop
  endfacet
  facet normal 1 0 0
    outer loop
      vertex 10 1 31
      vertex 10 0 32
      vertex 10 0 31
    endloop
  endfacet
  facet normal 0 1 -0
    outer loop
      vertex 10 1 31
      vertex 9 1 32
      vertex 10 1 32
    endloop
  endfacet
  facet normal 0 1 0
    outer loop
      vertex 9 1 32
      vertex 10 1 31
      vertex 9 1 31
    endloop
  endfacet
  facet normal 0 0 -1
    outer loop
      vertex 9 0 31
      vertex 10 1 31
      vertex 10 0 31
    endloop
  endfacet
  facet normal -0 0 -1
    outer loop
      vertex 10 1 31
      vertex 9 0 31
      vertex 9 1 31
    endloop
  endfacet
  facet normal 0 -1 0
    outer loop
      vertex 9 0 31
      vertex 10 0 32
      vertex 9 0 32
    endloop
  endfacet
  facet normal 0 -1 -0
    outer loop
      vertex 10 0 32
      vertex 9 0 31
      vertex 10 0 31
    endloop
  endfacet
  facet normal -1 0 0
    outer loop
      vertex 8 0 32
      vertex 8 1 33
      vertex 8 1 32
    endloop
  endfacet
  facet normal -1 -0 0
    outer loop
      vertex 8 1 33
      vertex 8 0 32
      vertex 8 0 33
    endloop
  endfacet
  facet normal -0 0 1
    outer loop
      vertex 8 1 33
      vertex 9 0 33
      vertex 9 1 33
    endloop
  endfacet
  facet normal 0 0 1
    outer loop
      vertex 9 0 33
      vertex 8 1 33
      vertex 8 0 33
    endloop
  endfacet
  facet normal 1 -0 0
    outer loop
      vertex 9 0 33
      vertex 9 1 32
      vertex 9 1 33
    endloop
  endfacet
  facet normal 1 0 0
    outer loop
      vertex 9 1 32
      vertex 9 0 33
      vertex 9 0 32
    endloop
  endfacet
  facet normal 0 1 -0
    outer loop
      vertex 9 1 32
      vertex 8 1 33
      vertex 9 1 33
    endloop
  endfacet
  facet normal 0 1 0
    outer loop
      vertex 8 1 33
      vertex 9 1 32
      vertex 8 1 32
    endloop
  endfacet
  facet normal 0 0 -1
    outer loop
      vertex 8 0 32
      vertex 9 1 32
      vertex 9 0 32
    endloop
  endfacet
  facet normal -0 0 -1
    outer loop
      vertex 9 1 32
      vertex 8 0 32
      vertex 8 1 32
    endloop
  endfacet
  facet normal 0 -1 0
    outer loop
      vertex 8 0 32
      vertex 9 0 33
      vertex 8 0 33
    endloop
  endfacet
  facet normal 0 -1 -0
    outer loop
      vertex 9 0 33
      vertex 8 0 32
      vertex 9 0 32
    endloop
  endfacet
  facet normal -1 0 0
    outer loop
      vertex 7 0 33
      vertex 7 1 34
      vertex 7 1 33
    endloop
  endfacet
  facet normal -1 -0 0
    outer loop
      vertex 7 1 34
      vertex 7 0 33
      vertex 7 0 34
    endloop
  endfacet
  facet normal -0 0 1
    outer loop
      vertex 7 1 34
      vertex 8 0 34
      vertex 8 1 34
    endloop
  endfacet
  facet normal 0 0 1
    outer loop
      vertex 8 0 34
      vertex 7 1 34
      vertex 7 0 34
    endloop
  endfacet
  facet normal 1 -0 0
    outer loop
      vertex 8 0 34
      vertex 8 1 33
      vertex 8 1 34
    endloop
  endfacet
  facet normal 1 0 0
    outer loop
      vertex 8 1 33
      vertex 8 0 34
      vertex 8 0 33
    endloop
  endfacet
  facet normal 0 0 -1
    outer loop
      vertex 7 0 33
      vertex 8 1 33
      vertex 8 0 33
    endloop
  endfacet
  facet normal -0 0 -1
    outer loop
      vertex 8 1 33
      vertex 7 0 33
      vertex 7 1 33
    endloop
  endfacet
  facet normal 0 -1 0
    outer loop
      vertex 7 0 33
      vertex 8 0 34
      vertex 7 0 34
    endloop
  endfacet
  facet normal 0 -1 -0
    outer loop
      vertex 8 0 34
      vertex 7 0 33
      vertex 8 0 33
    endloop
  endfacet
  facet normal 0 1 -0
    outer loop
      vertex 8 1 33
      vertex 7 1 34
      vertex 8 1 34
    endloop
  endfacet
  facet normal 0 1 0
    outer loop
      vertex 7 1 34
      vertex 8 1 33
      vertex 7 1 33
    endloop
  endfacet
  facet normal -1 0 0
    outer loop
      vertex 6 0 34
      vertex 6 1 35
      vertex 6 1 34
    endloop
  endfacet
  facet normal -1 -0 0
    outer loop
      vertex 6 1 35
      vertex 6 0 34
      vertex 6 0 35
    endloop
  endfacet
  facet normal -0 0 1
    outer loop
      vertex 6 1 35
      vertex 7 0 35
      vertex 7 1 35
    endloop
  endfacet
  facet normal 0 0 1
    outer loop
      vertex 7 0 35
      vertex 6 1 35
      vertex 6 0 35
    endloop
  endfacet
  facet normal 1 -0 0
    outer loop
      vertex 7 0 35
      vertex 7 1 34
      vertex 7 1 35
    endloop
  endfacet
  facet normal 1 0 0
    outer loop
      vertex 7 1 34
      vertex 7 0 35
      vertex 7 0 34
    endloop
  endfacet
  facet normal 0 1 -0
    outer loop
      vertex 7 1 34
      vertex 6 1 35
      vertex 7 1 35
    endloop
  endfacet
  facet normal 0 1 0
    outer loop
      vertex 6 1 35
      vertex 7 1 34
      vertex 6 1 34
    endloop
  endfacet
  facet normal 0 0 -1
    outer loop
      vertex 6 0 34
      vertex 7 1 34
      vertex 7 0 34
    endloop
  endfacet
  facet normal -0 0 -1
    outer loop
      vertex 7 1 34
      vertex 6 0 34
      vertex 6 1 34
    endloop
  endfacet
  facet normal 0 -1 0
    outer loop
      vertex 6 0 34
      vertex 7 0 35
      vertex 6 0 35
    endloop
  endfacet
  facet normal 0 -1 -0
    outer loop
      vertex 7 0 35
      vertex 6 0 34
      vertex 7 0 34
    endloop
  endfacet
  facet normal -1 0 0
    outer loop
      vertex 5 0 35
      vertex 5 1 36
      vertex 5 1 35
    endloop
  endfacet
  facet normal -1 -0 0
    outer loop
      vertex 5 1 36
      vertex 5 0 35
      vertex 5 0 36
    endloop
  endfacet
  facet normal -0 0 1
    outer loop
      vertex 5 1 36
      vertex 6 0 36
      vertex 6 1 36
    endloop
  endfacet
  facet normal 0 0 1
    outer loop
      vertex 6 0 36
      vertex 5 1 36
      vertex 5 0 36
    endloop
  endfacet
  facet normal 1 -0 0
    outer loop
      vertex 6 0 36
      vertex 6 1 35
      vertex 6 1 36
    endloop
  endfacet
  facet normal 1 0 0
    outer loop
      vertex 6 1 35
      vertex 6 0 36
      vertex 6 0 35
    endloop
  endfacet
  facet normal 0 1 -0
    outer loop
      vertex 6 1 35
      vertex 5 1 36
      vertex 6 1 36
    endloop
  endfacet
  facet normal 0 1 0
    outer loop
      vertex 5 1 36
      vertex 6 1 35
      vertex 5 1 35
    endloop
  endfacet
  facet normal 0 0 -1
    outer loop
      vertex 5 0 35
      vertex 6 1 35
      vertex 6 0 35
    endloop
  endfacet
  facet normal -0 0 -1
    outer loop
      vertex 6 1 35
      vertex 5 0 35
      vertex 5 1 35
    endloop
  endfacet
  facet normal 0 -1 0
    outer loop
      vertex 5 0 35
      vertex 6 0 36
      vertex 5 0 36
    endloop
  endfacet
  facet normal 0 -1 -0
    outer loop
      vertex 6 0 36
      vertex 5 0 35
      vertex 6 0 35
    endloop
  endfacet
  facet normal -1 0 0
    outer loop
      vertex 4 0 36
      vertex 4 1 37
      vertex 4 1 36
    endloop
  endfacet
  facet normal -1 -0 0
    outer loop
      vertex 4 1 37
      vertex 4 0 36
      vertex 4 0 37
    endloop
  endfacet
  facet normal -0 0 1
    outer loop
      vertex 4 1 37
      vertex 5 0 37
      vertex 5 1 37
    endloop
  endfacet
  facet normal 0 0 1
    outer loop
      vertex 5 0 37
      vertex 4 1 37
      vertex 4 0 37
    endloop
  endfacet
  facet normal 1 -0 0
    outer loop
      vertex 5 0 37
      vertex 5 1 36
      vertex 5 1 37
    endloop
  endfacet
  facet normal 1 0 0
    outer loop
      vertex 5 1 36
      vertex 5 0 37
      vertex 5 0 36
    endloop
  endfacet
  facet normal 0 0 -1
    outer loop
      vertex 4 0 36
      vertex 5 1 36
      vertex 5 0 36
    endloop
  endfacet
  facet normal -0 0 -1
    outer loop
      vertex 5 1 36
      vertex 4 0 36
      vertex 4 1 36
    endloop
  endfacet
  facet normal 0 -1 0
    outer loop
      vertex 4 0 36
      vertex 5 0 37
      vertex 4 0 37
    endloop
  endfacet
  facet normal 0 -1 -0
    outer loop
      vertex 5 0 37
      vertex 4 0 36
      vertex 5 0 36
    endloop
  endfacet
  facet normal 0 1 -0
    outer loop
      vertex 5 1 36
      vertex 4 1 37
      vertex 5 1 37
    endloop
  endfacet
  facet normal 0 1 0
    outer loop
      vertex 4 1 37
      vertex 5 1 36
      vertex 4 1 36
    endloop
  endfacet
  facet normal -1 0 0
    outer loop
      vertex 3 0 37
      vertex 3 1 38
      vertex 3 1 37
    endloop
  endfacet
  facet normal -1 -0 0
    outer loop
      vertex 3 1 38
      vertex 3 0 37
      vertex 3 0 38
    endloop
  endfacet
  facet normal -0 0 1
    outer loop
      vertex 3 1 38
      vertex 4 0 38
      vertex 4 1 38
    endloop
  endfacet
  facet normal 0 0 1
    outer loop
      vertex 4 0 38
      vertex 3 1 38
      vertex 3 0 38
    endloop
  endfacet
  facet normal 1 -0 0
    outer loop
      vertex 4 0 38
      vertex 4 1 37
      vertex 4 1 38
    endloop
  endfacet
  facet normal 1 0 0
    outer loop
      vertex 4 1 37
      vertex 4 0 38
      vertex 4 0 37
    endloop
  endfacet
  facet normal 0 1 -0
    outer loop
      vertex 4 1 37
      vertex 3 1 38
      vertex 4 1 38
    endloop
  endfacet
  facet normal 0 1 0
    outer loop
      vertex 3 1 38
      vertex 4 1 37
      vertex 3 1 37
    endloop
  endfacet
  facet normal 0 0 -1
    outer loop
      vertex 3 0 37
      vertex 4 1 37
      vertex 4 0 37
    endloop
  endfacet
  facet normal -0 0 -1
    outer loop
      vertex 4 1 37
      vertex 3 0 37
      vertex 3 1 37
    endloop
  endfacet
  facet normal 0 -1 0
    outer loop
      vertex 3 0 37
      vertex 4 0 38
      vertex 3 0 38
    endloop
  endfacet
  facet normal 0 -1 -0
    outer loop
      vertex 4 0 38
      vertex 3 0 37
      vertex 4 0 37
    endloop
  endfacet
  facet normal -1 0 0
    outer loop
      vertex 2 0 38
      vertex 2 1 39
      vertex 2 1 38
    endloop
  endfacet
  facet normal -1 -0 0
    outer loop
      vertex 2 1 39
      vertex 2 0 38
      vertex 2 0 39
    endloop
  endfacet
  facet normal -0 0 1
    outer loop
      vertex 2 1 39
      vertex 3 0 39
      vertex 3 1 39
    endloop
  endfacet
  facet normal 0 0 1
    outer loop
      vertex 3 0 39
      vertex 2 1 39
      vertex 2 0 39
    endloop
  endfacet
  facet normal 1 -0 0
    outer loop
      vertex 3 0 39
      vertex 3 1 38
      vertex 3 1 39
    endloop
  endfacet
  facet normal 1 0 0
    outer loop
      vertex 3 1 38
      vertex 3 0 39
      vertex 3 0 38
    endloop
  endfacet
  facet normal 0 0 -1
    outer loop
      vertex 2 0 38
      vertex 3 1 38
      vertex 3 0 38
    endloop
  endfacet
  facet normal -0 0 -1
    outer loop
      vertex 3 1 38
      vertex 2 0 38
      vertex 2 1 38
    endloop
  endfacet
  facet normal 0 -1 0
    outer loop
      vertex 2 0 38
      vertex 3 0 39
      vertex 2 0 39
    endloop
  endfacet
  facet normal 0 -1 -0
    outer loop
      vertex 3 0 39
      vertex 2 0 38
      vertex 3 0 38
    endloop
  endfacet
  facet normal 0 1 -0
    outer loop
      vertex 3 1 38
      vertex 2 1 39
      vertex 3 1 39
    endloop
  endfacet
  facet normal 0 1 0
    outer loop
      vertex 2 1 39
      vertex 3 1 38
      vertex 2 1 38
    endloop
  endfacet
  facet normal -1 0 0
    outer loop
      vertex 1 0 39
      vertex 1 1 40
      vertex 1 1 39
    endloop
  endfacet
  facet normal -1 -0 0
    outer loop
      vertex 1 1 40
      vertex 1 0 39
      vertex 1 0 40
    endloop
  endfacet
  facet normal -0 0 1
    outer loop
      vertex 1 1 40
      vertex 2 0 40
      vertex 2 1 40
    endloop
  endfacet
  facet normal 0 0 1
    outer loop
      vertex 2 0 40
      vertex 1 1 40
      vertex 1 0 40
    endloop
  endfacet
  facet normal 1 -0 0
    outer loop
      vertex 2 0 40
      vertex 2 1 39
      vertex 2 1 40
    endloop
  endfacet
  facet normal 1 0 0
    outer loop
      vertex 2 1 39
      vertex 2 0 40
      vertex 2 0 39
    endloop
  endfacet
  facet normal 0 0 -1
    outer loop
      vertex 1 0 39
      vertex 2 1 39
      vertex 2 0 39
    endloop
  endfacet
  facet normal -0 0 -1
    outer loop
      vertex 2 1 39
      vertex 1 0 39
      vertex 1 1 39
    endloop
  endfacet
  facet normal 0 -1 0
    outer loop
      vertex 1 0 39
      vertex 2 0 40
      vertex 1 0 40
    endloop
  endfacet
  facet normal 0 -1 -0
    outer loop
      vertex 2 0 40
      vertex 1 0 39
      vertex 2 0 39
    endloop
  endfacet
  facet normal 0 1 -0
    outer loop
      vertex 2 1 39
      vertex 1 1 40
      vertex 2 1 40
    endloop
  endfacet
  facet normal 0 1 0
    outer loop
      vertex 1 1 40
      vertex 2 1 39
      vertex 1 1 39
    endloop
  endfacet
  facet normal -1 0 0
    outer loop
      vertex 0 0 40
      vertex 0 1 41
      vertex 0 1 40
    endloop
  endfacet
  facet normal -1 -0 0
    outer loop
      vertex 0 1 41
      vertex 0 0 40
      vertex 0 0 41
    endloop
  endfacet
  facet normal -0 0 1
    outer loop
      vertex 0 1 41
      vertex 1 0 41
      vertex 1 1 41
    endloop
  endfacet
  facet normal 0 0 1
    outer loop
      vertex 1 0 41
      vertex 0 1 41
      vertex 0 0 41
    endloop
  endfacet
  facet normal 1 -0 0
    outer loop
      vertex 1 0 41
      vertex 1 1 40
      vertex 1 1 41
    endloop
  endfacet
  facet normal 1 0 0
    outer loop
      vertex 1 1 40
      vertex 1 0 41
      vertex 1 0 40
    endloop
  endfacet
  facet normal 0 0 -1
    outer loop
      vertex 0 0 40
      vertex 1 1 40
      vertex 1 0 40
    endloop
  endfacet
  facet normal -0 0 -1
    outer loop
      vertex 1 1 40
      vertex 0 0 40
      vertex 0 1 40
    endloop
  endfacet
  facet normal 0 -1 0
    outer loop
      vertex 0 0 40
      vertex 1 0 41
      vertex 0 0 41
    endloop
  endfacet
  facet normal 0 -1 -0
    outer loop
      vertex 1 0 41
      vertex 0 0 40
      vertex 1 0 40
    endloop
  endfacet
  facet normal 0 1 -0
    outer loop
      vertex 1 1 40
      vertex 0 1 41
      vertex 1 1 41
    endloop
  endfacet
  facet normal 0 1 0
    outer loop
      vertex 0 1 41
      vertex 1 1 40
      vertex 0 1 40
    endloop
  endfacet
endsolid OpenSCAD_Model
